<?xml version="1.0" encoding="UTF-8" standalone="no"?>
<svg
   sodipodi:docname="discord-white.svg"
   inkscape:version="1.1 (c68e22c387, 2021-05-23)"
   id="svg8"
   version="1.1"
   viewBox="0 0 500 500"
   height="500"
   width="500"
   xmlns:inkscape="http://www.inkscape.org/namespaces/inkscape"
   xmlns:sodipodi="http://sodipodi.sourceforge.net/DTD/sodipodi-0.dtd"
   xmlns="http://www.w3.org/2000/svg"
   xmlns:svg="http://www.w3.org/2000/svg"
   xmlns:rdf="http://www.w3.org/1999/02/22-rdf-syntax-ns#"
   xmlns:cc="http://creativecommons.org/ns#"
   xmlns:dc="http://purl.org/dc/elements/1.1/">
  <defs
     id="defs2" />
  <sodipodi:namedview
     inkscape:window-maximized="1"
     inkscape:window-y="1"
     inkscape:window-x="1961"
     inkscape:window-height="1046"
     inkscape:window-width="2519"
     showborder="true"
     units="px"
     showgrid="false"
     inkscape:document-rotation="0"
     inkscape:current-layer="layer1"
     inkscape:document-units="px"
     inkscape:cy="438.57143"
     inkscape:cx="318.57143"
     inkscape:zoom="0.35"
     inkscape:pageshadow="0"
     inkscape:pageopacity="0.0"
     borderopacity="1.0"
     bordercolor="#666666"
     pagecolor="#ffffff"
     id="base"
     objecttolerance="10.0"
     gridtolerance="10.0"
     guidetolerance="10.0"
     inkscape:pagecheckerboard="1"
     fit-margin-top="0"
     fit-margin-left="0"
     fit-margin-right="0"
     fit-margin-bottom="0" />
  <metadata
     id="metadata5">
    <rdf:RDF>
      <cc:Work
         rdf:about="">
        <dc:format>image/svg+xml</dc:format>
        <dc:type
           rdf:resource="http://purl.org/dc/dcmitype/StillImage" />
      </cc:Work>
    </rdf:RDF>
  </metadata>
  <g
     id="layer1"
     inkscape:groupmode="layer"
     inkscape:label="Layer 1"
     transform="translate(-82.725299,-122.5)">
    <path
       d="m 505.99604,213.53709 c -31.86839,-14.62252 -66.04227,-25.39574 -101.77317,-31.56602 -0.65072,-0.11912 -1.3007,0.17852 -1.63593,0.77373 -4.39516,7.81697 -9.26335,18.01485 -12.67257,26.03034 -38.43094,-5.75352 -76.66476,-5.75352 -114.30763,0 -3.40981,-8.19367 -8.45495,-18.21337 -12.8697,-26.03034 -0.33522,-0.57535 -0.9852,-0.87296 -1.63593,-0.77373 -35.71117,6.15057 -69.88519,16.92379 -101.77316,31.56602 -0.27604,0.11897 -0.51263,0.31761 -0.66971,0.57536 -64.820616,96.84075 -82.577784,191.30123 -73.866664,284.59059 0.03886,0.45633 0.295621,0.89294 0.650278,1.17042 42.766926,31.40699 84.193836,50.47388 124.851516,63.11189 0.65072,0.1986 1.34016,-0.0394 1.7543,-0.57535 9.61756,-13.13379 18.19088,-26.98237 25.54152,-41.54574 0.43386,-0.85282 0.0194,-1.86477 -0.86684,-2.20209 -13.59859,-5.15845 -26.5472,-11.44788 -39.00291,-18.59013 -0.98521,-0.57534 -1.06397,-1.9845 -0.15768,-2.65914 2.62114,-1.96409 5.24303,-4.00775 7.7458,-6.07112 0.45284,-0.37676 1.08369,-0.45635 1.6162,-0.21831 81.82812,37.3598 170.41669,37.3598 251.27933,0 0.53236,-0.25775 1.16336,-0.17818 1.63594,0.19858 2.50351,2.06339 5.12465,4.12676 7.76537,6.09085 0.90644,0.67464 0.84725,2.0838 -0.1375,2.65914 -12.45556,7.28099 -25.40417,13.43168 -39.02249,18.57041 -0.88657,0.33732 -1.28098,1.36899 -0.84711,2.22181 7.50846,14.54295 16.08163,28.39152 25.52179,41.52602 0.39441,0.55563 1.10357,0.79367 1.75415,0.59507 40.85495,-12.63801 82.28172,-31.7049 125.0485,-63.11189 0.37468,-0.27748 0.61127,-0.69436 0.65073,-1.15071 10.42536,-107.85273 -17.462,-201.53855 -73.92601,-284.59057 -0.1375,-0.27748 -0.37393,-0.47606 -0.64998,-0.59509 z M 249.80891,441.89956 c -24.63583,0 -44.93522,-22.61759 -44.93522,-50.39432 0,-27.77674 19.90558,-50.39433 44.93522,-50.39433 25.22602,0 45.32888,22.81619 44.93447,50.39433 0,27.77673 -19.90558,50.39432 -44.93447,50.39432 z m 166.13989,0 c -24.63508,0 -44.93433,-22.61759 -44.93433,-50.39432 0,-27.77674 19.90484,-50.39433 44.93433,-50.39433 25.22676,0 45.32888,22.81619 44.93521,50.39433 0,27.77673 -19.70845,50.39432 -44.93521,50.39432 z"
       fill="#ffffff"
       id="path1041"
       style="stroke-width:1.49455" />
  </g>
</svg>
