<?xml version="1.0" encoding="UTF-8" standalone="no"?>
<svg
   width="512"
   height="499.36905"
   viewBox="0 0 512 499.36905"
   fill="none"
   version="1.1"
   id="svg79986"
   sodipodi:docname="github-white.svg"
   inkscape:version="1.1.2 (0a00cf5339, 2022-02-04)"
   xmlns:inkscape="http://www.inkscape.org/namespaces/inkscape"
   xmlns:sodipodi="http://sodipodi.sourceforge.net/DTD/sodipodi-0.dtd"
   xmlns="http://www.w3.org/2000/svg"
   xmlns:svg="http://www.w3.org/2000/svg">
  <defs
     id="defs79990" />
  <sodipodi:namedview
     id="namedview79988"
     pagecolor="#505050"
     bordercolor="#ffffff"
     borderopacity="1"
     inkscape:pageshadow="0"
     inkscape:pageopacity="0"
     inkscape:pagecheckerboard="1"
     showgrid="false"
     fit-margin-top="0"
     fit-margin-left="0"
     fit-margin-right="0"
     fit-margin-bottom="0"
     inkscape:zoom="2.0820813"
     inkscape:cx="84.770947"
     inkscape:cy="99.659895"
     inkscape:window-width="2519"
     inkscape:window-height="1044"
     inkscape:window-x="1121"
     inkscape:window-y="547"
     inkscape:window-maximized="1"
     inkscape:current-layer="svg79986" />
  <path
     fill-rule="evenodd"
     clip-rule="evenodd"
     d="M 256,0 C 114.56,0 0,114.56 0,256 c 0,113.28 73.28,208.96 175.04,242.88 12.8,2.24 17.6,-5.44 17.6,-12.16 0,-6.08 -0.32,-26.24 -0.32,-47.68 C 128,450.88 111.36,423.36 106.24,408.96 103.36,401.6 90.88,378.88 80,372.8 71.04,368 58.24,356.16 79.68,355.84 c 20.16,-0.32 34.56,18.56 39.36,26.24 23.04,38.72 59.84,27.84 74.56,21.12 2.24,-16.64 8.96,-27.84 16.32,-34.24 -56.96,-6.4 -116.48,-28.48 -116.48,-126.4 0,-27.84 9.92,-50.88 26.24,-68.8 -2.56,-6.4 -11.52,-32.64 2.56,-67.84 0,0 21.44,-6.72 70.4,26.24 20.48,-5.76 42.24,-8.64 64,-8.64 21.76,0 43.52,2.88 64,8.64 48.96,-33.28 70.4,-26.24 70.4,-26.24 14.08,35.2 5.12,61.44 2.56,67.84 16.32,17.92 26.24,40.64 26.24,68.8 0,98.24 -59.84,120 -116.8,126.4 9.28,8 17.28,23.36 17.28,47.36 0,34.24 -0.32,61.76 -0.32,70.4 0,6.72 4.8,14.72 17.6,12.16 C 438.72,464.96 512,368.96 512,256 512,114.56 397.44,0 256,0 Z"
     fill="#24292E"
     id="path79984"
     style="fill:#ffffff;stroke-width:1" />
</svg>
