<?xml version="1.0" encoding="UTF-8" standalone="no"?>
<svg
   viewBox="0 0 500.00001 481.49048"
   version="1.1"
   id="svg216"
   sodipodi:docname="gitlab-white.svg"
   width="500"
   height="481.49048"
   inkscape:version="1.2.1 (9c6d41e410, 2022-07-14)"
   xmlns:inkscape="http://www.inkscape.org/namespaces/inkscape"
   xmlns:sodipodi="http://sodipodi.sourceforge.net/DTD/sodipodi-0.dtd"
   xmlns="http://www.w3.org/2000/svg"
   xmlns:svg="http://www.w3.org/2000/svg">
  <sodipodi:namedview
     id="namedview218"
     pagecolor="#505050"
     bordercolor="#ffffff"
     borderopacity="1"
     inkscape:showpageshadow="0"
     inkscape:pageopacity="0"
     inkscape:pagecheckerboard="1"
     inkscape:deskcolor="#505050"
     showgrid="false"
     inkscape:zoom="1.9616162"
     inkscape:cx="346.14315"
     inkscape:cy="74.938208"
     inkscape:current-layer="svg216" />
  <defs
     id="defs193">
    <style
       id="style191">.cls-1{fill:#171321;}.cls-2{fill:#e24329;}.cls-3{fill:#fc6d26;}.cls-4{fill:#fca326;}</style>
  </defs>
  <path
     class="cls-2"
     d="M 491.65938,190.58405 490.9853,188.78649 422.93517,11.278377 A 17.654514,17.654514 0 0 0 415.93757,2.8363097 17.975506,17.975506 0 0 0 388.94221,13.108027 L 343.00837,153.73426 H 156.99398 L 111.06014,13.108027 A 18.007605,18.007605 0 0 0 84.064782,2.8363097 17.654514,17.654514 0 0 0 77.067174,11.278377 L 9.0491437,188.81859 8.3429632,190.58405 A 126.34212,126.34212 0 0 0 50.264412,336.60293 l 0.256793,0.19259 0.577784,0.44939 103.519651,77.58357 51.35859,38.80783 31.20034,23.59285 a 21.08912,21.08912 0 0 0 25.4225,0 l 31.20034,-23.59285 51.3586,-38.80783 104.25793,-78.03296 0.2889,-0.22469 a 126.34212,126.34212 0 0 0 41.95354,-145.98678 z"
     id="path207"
     style="fill:#ffffff;stroke-width:1" />
  <path
     class="cls-3"
     d="m 491.65938,190.58405 -0.67408,-1.79756 a 229.50869,229.50869 0 0 0 -91.48248,41.15107 l -149.4214,112.98889 95.14179,71.90203 104.25793,-78.03296 0.28889,-0.22469 a 126.34212,126.34212 0 0 0 41.88935,-145.98678 z"
     id="path209"
     style="fill:#e6e6e6;stroke-width:1" />
  <path
     class="cls-4"
     d="m 154.61864,414.82848 51.35859,38.80783 31.20034,23.59285 a 21.08912,21.08912 0 0 0 25.4225,0 l 31.20034,-23.59285 51.3586,-38.80783 -95.14179,-71.90203 z"
     id="path211"
     style="fill:#b3b3b3;stroke-width:1" />
  <path
     class="cls-3"
     d="M 100.49953,229.93756 A 229.31609,229.31609 0 0 0 9.0491437,188.81859 l -0.7061805,1.76546 A 126.34212,126.34212 0 0 0 50.264412,336.60293 l 0.256793,0.19259 0.577784,0.44939 103.519651,77.58357 95.20598,-71.90203 z"
     id="path213"
     style="fill:#e6e6e6;stroke-width:1" />
</svg>
