<?xml version="1.0" encoding="UTF-8" standalone="no"?>
<svg
   sodipodi:docname="hamsic.svg"
   inkscape:version="1.2.1 (9c6d41e410, 2022-07-14)"
   id="svg8"
   version="1.1"
   viewBox="0 0 640 619.69653"
   height="619.69653"
   width="640"
   xmlns:inkscape="http://www.inkscape.org/namespaces/inkscape"
   xmlns:sodipodi="http://sodipodi.sourceforge.net/DTD/sodipodi-0.dtd"
   xmlns="http://www.w3.org/2000/svg"
   xmlns:svg="http://www.w3.org/2000/svg"
   xmlns:rdf="http://www.w3.org/1999/02/22-rdf-syntax-ns#"
   xmlns:cc="http://creativecommons.org/ns#"
   xmlns:dc="http://purl.org/dc/elements/1.1/">
  <defs
     id="defs2" />
  <sodipodi:namedview
     inkscape:window-maximized="1"
     inkscape:window-y="1"
     inkscape:window-x="37"
     inkscape:window-height="1046"
     inkscape:window-width="2523"
     showborder="false"
     units="px"
     showgrid="false"
     inkscape:document-rotation="0"
     inkscape:current-layer="layer1"
     inkscape:document-units="px"
     inkscape:cy="560"
     inkscape:cx="402.85714"
     inkscape:zoom="0.35"
     inkscape:pageshadow="0"
     inkscape:pageopacity="0.0"
     borderopacity="1.0"
     bordercolor="#666666"
     pagecolor="#ffffff"
     id="base"
     inkscape:showpageshadow="0"
     inkscape:pagecheckerboard="1"
     inkscape:deskcolor="#d1d1d1" />
  <metadata
     id="metadata5">
    <rdf:RDF>
      <cc:Work
         rdf:about="">
        <dc:format>image/svg+xml</dc:format>
        <dc:type
           rdf:resource="http://purl.org/dc/dcmitype/StillImage" />
      </cc:Work>
    </rdf:RDF>
  </metadata>
  <g
     id="layer1"
     inkscape:groupmode="layer"
     inkscape:label="Layer 1"
     transform="translate(3.6203875e-4,2.910518e-4)">
    <g
       aria-label="☭"
       id="text595"
       style="font-weight:500;font-size:24px;line-height:1.15;font-family:'Futura Std';-inkscape-font-specification:'Futura Std, Medium';font-variant-ligatures:none;text-align:center;letter-spacing:1px;text-anchor:middle;stroke-width:0.0271875;fill:#d4aa00"
       transform="matrix(36.781609,0,0,36.781609,-9730.621,-11513.74)">
      <path
         d="m 280.84725,329.8778 c 0.696,-0.048 1.104,-0.648 1.104,-1.104 0,-0.264 -0.072,-0.408 -0.216,-0.552 l -2.52,-2.544 c 1.104,-1.032 1.68,-2.544 1.68,-4.56 0,-4.344 -3.12,-7.296 -7.056,-8.088 l -0.096,0.24 c 2.352,1.344 4.824,4.488 4.824,7.488 0,1.392 -0.36,2.472 -1.152,3.168 l -5.904,-5.88 2.136,-2.16 -3.816,-0.624 -3.72,3.672 2.232,2.232 1.752,-1.728 5.736,5.76 c -0.888,0.432 -1.632,0.672 -2.304,0.672 -1.584,0 -2.856,-0.72 -3.72,-2.136 h -0.84 l -1.176,1.152 c -0.288,-0.408 -0.528,-0.624 -0.744,-0.624 -0.192,0 -0.456,0.192 -0.456,0.408 0,0.192 0.192,0.456 0.6,0.768 -0.072,0.048 -2.64,1.536 -2.64,2.568 0,0.6 0.384,1.08 0.984,1.08 0.624,0 1.488,-0.888 2.616,-2.688 0.264,0.384 0.48,0.576 0.744,0.576 0.288,0 0.408,-0.144 0.408,-0.432 0,-0.168 -0.192,-0.408 -0.6,-0.744 l 0.48,-0.456 c 0.792,1.608 2.592,2.736 4.944,2.736 1.368,0 2.568,-0.336 3.6,-0.984 l 2.544,2.52 c 0.192,0.168 0.384,0.264 0.576,0.264 z"
         id="path597"
         style="stroke-width:0.0271875;fill:#d4aa00" />
    </g>
  </g>
</svg>
