<?xml version="1.0" encoding="UTF-8" standalone="no"?>
<!-- Created with Inkscape (http://www.inkscape.org/) -->

<svg
   version="1.1"
   id="svg1262"
   width="1920"
   height="1080"
   viewBox="0 0 1920 1080"
   sodipodi:docname="lenin.svg"
   inkscape:version="1.2.1 (9c6d41e410, 2022-07-14)"
   inkscape:export-filename="../../../misc/soviet/lenin.png"
   inkscape:export-xdpi="96"
   inkscape:export-ydpi="96"
   xmlns:inkscape="http://www.inkscape.org/namespaces/inkscape"
   xmlns:sodipodi="http://sodipodi.sourceforge.net/DTD/sodipodi-0.dtd"
   xmlns="http://www.w3.org/2000/svg"
   xmlns:svg="http://www.w3.org/2000/svg">
  <defs
     id="defs1266" />
  <sodipodi:namedview
     id="namedview1264"
     pagecolor="#505050"
     bordercolor="#ffffff"
     borderopacity="1"
     inkscape:pageshadow="0"
     inkscape:pageopacity="0"
     inkscape:pagecheckerboard="1"
     showgrid="false"
     fit-margin-top="0"
     fit-margin-left="0"
     fit-margin-right="0"
     fit-margin-bottom="0"
     showguides="true"
     inkscape:guide-bbox="true"
     inkscape:zoom="0.36779915"
     inkscape:cx="2009.2488"
     inkscape:cy="489.39754"
     inkscape:window-width="2519"
     inkscape:window-height="1048"
     inkscape:window-x="1121"
     inkscape:window-y="575"
     inkscape:window-maximized="1"
     inkscape:current-layer="g1268"
     inkscape:showpageshadow="0"
     inkscape:deskcolor="#505050">
    <sodipodi:guide
       position="2.5141094e-13,1080"
       orientation="0,-1"
       id="guide4398"
       inkscape:locked="false" />
    <sodipodi:guide
       position="2.5141094e-13,1080"
       orientation="1,0"
       id="guide4457"
       inkscape:locked="false" />
    <sodipodi:guide
       position="1599.9999,1080"
       orientation="1,0"
       id="guide4459"
       inkscape:locked="false" />
    <sodipodi:guide
       position="2.5141094e-13,180"
       orientation="0,-1"
       id="guide4461"
       inkscape:locked="false" />
  </sodipodi:namedview>
  <g
     inkscape:groupmode="layer"
     inkscape:label="Image"
     id="g1268"
     transform="translate(-617.01282,-13.082151)">
    <rect
       style="fill:#862d2d;fill-opacity:1;stroke:none;stroke-width:12.4168;stroke-linecap:round;stroke-linejoin:round;paint-order:stroke fill markers"
       id="rect3907"
       width="1920"
       height="1080"
       x="617.01282"
       y="13.082151" />
    <path
       style="fill:#280b0b;stroke-width:0.73682"
       d="M 617.01282,13.082158 H 2537.0127 V 1093.0821 H 617.01282 Z M 1760.9547,1051.9325 c -3.6891,-24.6094 -2.5229,-51.7586 -2.9847,-65.74887 -0.5874,-16.70702 -1.1748,-32.56493 -1.3058,-35.23967 -0.1308,-2.67475 -0.5584,-14.01945 -0.9498,-25.2104 -0.7646,-21.85181 -0.834,-21.34842 3.9548,-28.72656 0.4736,-0.72947 3.1178,-5.10631 5.8761,-9.72634 2.7583,-4.62 5.8926,-9.5937 6.9653,-11.05265 2.2064,-3.00084 7.2697,-16.60346 7.811,-20.98374 1.8336,-14.83851 2.0123,-13.11591 -2.1964,-21.1547 -2.1244,-4.0576 -4.0616,-7.5764 -4.3046,-7.81955 -0.8502,-0.85026 -2.6525,-4.40439 -2.6525,-5.23076 0,-0.71467 -4.6757,-7.92089 -8.7609,-13.50241 -1.0877,-1.48602 -1.0536,-1.89183 0.2689,-3.20015 1.4258,-1.41031 1.7067,-1.28094 4.7823,2.20275 1.7973,2.03559 5.058,5.94716 7.2464,8.69237 7.6296,9.57145 8.9116,10.89609 12.1814,12.58662 2.9119,1.50547 3.6218,1.56522 6.1595,0.51829 1.5776,-0.6508 4.1019,-2.87416 5.6097,-4.9408 2.3703,-3.2485 2.6804,-4.29653 2.2898,-7.73646 -0.6488,-5.713 0.1104,-8.47905 2.6442,-9.63356 2.3664,-1.07833 3.1582,-0.82537 6.3481,2.02824 l 2.0767,1.85793 3.4045,-3.82127 c 3.4185,-3.8369 5.2741,-9.8098 4.044,-13.0158 -0.2922,-0.76178 0.4591,-3.33976 1.6697,-5.72884 1.2106,-2.38908 2.201,-5.57847 2.201,-7.08754 0,-3.08045 -3.3354,-8.24429 -8.816,-13.64922 -1.9591,-1.93221 -3.5622,-3.95949 -3.5622,-4.50507 0,-2.05598 3.6509,-4.18926 7.862,-4.59391 3.7133,-0.35683 5.2536,0.0467 10.6198,2.78158 9.4912,4.83718 9.7366,4.74595 14.5828,-5.42214 2.26,-4.74159 4.4863,-9.21792 4.9474,-9.9474 2.3326,-3.68982 6.1859,-12.53405 7.5119,-17.24214 0.822,-2.9179 2.4379,-8.2895 3.591,-11.93687 3.8188,-12.07938 6.2094,-42.80487 3.9215,-50.4001 -0.5126,-1.70211 -1.7026,-13.33095 -2.6441,-25.84188 -0.9416,-12.51091 -2.1228,-25.24357 -2.6251,-28.2948 -0.5021,-3.05121 -1.4971,-9.12872 -2.2108,-13.50558 -0.7137,-4.37684 -2.3271,-12.73266 -3.5853,-18.56845 -1.2582,-5.8358 -2.6338,-12.79897 -3.0569,-15.47372 -1.478,-9.34529 -3.4321,-18.17108 -5.2859,-23.87373 -6.138,-18.88304 -6.3452,-20.00438 -5.711,-30.89045 0.6577,-11.28592 -0.3798,-17.36404 -4.4302,-25.95528 -1.1946,-2.53387 -3.1626,-8.78494 -4.3735,-13.89127 -1.2107,-5.10632 -3.3641,-12.08708 -4.7852,-15.51278 -1.4212,-3.42573 -3.6605,-9.55415 -4.9762,-13.61877 -5.3336,-16.47711 -18.5147,-37.20099 -26.1511,-41.11597 -1.2159,-0.62327 -4.1999,-1.3889 -6.6312,-1.70143 -2.9322,-0.37686 -8.8872,-2.81178 -17.6832,-7.23024 -7.2943,-3.6641 -15.4507,-7.29055 -18.1253,-8.05878 -2.6746,-0.7682 -5.2607,-1.69394 -5.747,-2.0572 -1.0421,-0.7784 -21.3329,-7.60743 -32.7138,-11.01012 -16.2292,-4.85217 -31.7645,-11.42451 -35.9424,-15.20563 -0.9178,-0.83071 -3.0464,-5.92353 -4.7301,-11.3174 -2.9979,-9.60447 -7.7499,-19.03758 -9.9455,-19.74315 -1.5511,-0.49839 -1.3813,1.9992 0.2264,3.33359 0.7324,0.6079 1.2463,2.22479 1.1421,3.59309 -0.1104,1.45016 0.5327,3.28728 1.5419,4.40449 1.6042,1.77592 1.7104,3.04072 1.4446,17.22489 -0.2453,13.08952 -0.074,15.63243 1.1787,17.54504 1.138,1.73704 1.5771,5.29308 1.9648,15.91582 l 0.4992,13.67901 -3.5735,0.96229 c -5.7432,1.54658 -18.6486,1.39938 -23.1026,-0.26353 -4.8066,-1.79453 -10.7153,-1.86107 -12.9824,-0.14623 -2.2946,1.73575 -3.5468,1.70129 -2.0874,-0.0575 0.9888,-1.19131 0.9336,-1.54514 -0.3524,-2.26487 -0.8382,-0.46914 -1.2614,-1.27805 -0.9402,-1.79755 0.3409,-0.55172 0.072,-0.76019 -0.6446,-0.50122 -0.6755,0.24387 -3.1054,-0.59379 -5.3997,-1.86145 -4.1313,-2.28271 -4.1844,-2.28799 -5.5266,-0.54972 -1.3513,1.74995 -1.3585,1.74991 -2.4599,-0.0133 -0.6073,-0.97265 -1.1043,-2.36528 -1.1043,-3.09474 0,-0.72948 -0.8707,-1.70855 -1.935,-2.17572 -1.0642,-0.46717 -2.1346,-1.61306 -2.3787,-2.54642 -0.2878,-1.10094 -0.9282,-1.51115 -1.8228,-1.16784 -0.7794,0.29916 -1.3911,0.0608 -1.4068,-0.54832 -0.016,-0.59263 -1.0101,0.0389 -2.2106,1.40338 -1.3041,1.48259 -2.1823,1.97699 -2.1823,1.22865 0,-1.60024 3.5194,-6.79123 7.5799,-11.18022 1.7397,-1.88034 4.1357,-4.73727 5.3246,-6.34875 1.1888,-1.61147 4.0726,-4.93084 6.4084,-7.37634 2.3361,-2.44551 6.6723,-7.45451 9.6363,-11.13109 2.964,-3.6766 6.0183,-7.20692 6.7873,-7.84514 0.769,-0.63822 1.3981,-1.73715 1.3981,-2.44206 0,-0.70491 0.9634,-2.94409 2.1408,-4.97595 3.0018,-5.18007 4.7863,-12.03838 5.6778,-21.82067 0.6175,-6.77723 0.525,-8.6797 -0.4789,-9.84779 -1.0757,-1.25143 -0.9446,-3.22975 0.9661,-14.58949 2.0778,-12.35237 2.3728,-13.27846 4.9113,-15.41785 l 2.7006,-2.27611 -2.2709,-2.13353 c -1.8217,-1.71162 -2.1683,-2.67988 -1.7527,-4.89619 0.356,-1.89803 0.098,-3.11159 -0.825,-3.8776 -1.7742,-1.47259 -1.7049,-2.25221 0.6268,-7.02977 1.2956,-2.65442 2.0828,-6.17358 2.2984,-10.27526 0.2982,-5.67045 0.12,-6.48565 -1.96,-8.95755 -2.7526,-3.27142 -7.3293,-5.5832 -11.0534,-5.5832 -1.5018,0 -5.3243,1.03836 -8.4942,2.30747 -5.436,2.17629 -5.8883,2.22583 -7.9554,0.87128 -4.2106,-2.75906 -7.2548,-11.68446 -4.3152,-12.65135 0.5467,-0.17979 2.1956,0.68432 3.6644,1.92023 2.7656,2.32733 4.6254,2.88253 4.6254,1.38083 0,-0.47646 -1.5966,-2.9633 -3.548,-5.52632 -4.4819,-5.88658 -7.3565,-11.73615 -7.3565,-14.96999 0,-3.86855 1.0865,-4.10608 3.7655,-0.82327 2.5836,3.16569 4.4867,3.11235 4.4867,-0.12578 0,-1.85817 0.014,-1.85707 2.1716,0.17014 5.0761,4.76894 9.0015,12.94704 4.0739,8.48741 -0.9474,-0.85746 -2.1719,-1.40917 -2.7212,-1.22607 -2.44,0.81334 7.6207,9.57489 10.9945,9.57489 2.6313,0 2.3447,-1.99876 -1.116,-7.77718 -1.9525,-3.26046 -5.3143,-9.31023 -7.4704,-13.44393 -3.6937,-7.08166 -4.3483,-7.80639 -11.3329,-12.54653 -4.0769,-2.76689 -8.21,-5.99845 -9.1846,-7.18126 -3.3714,-4.09157 -7.5255,-5.21425 -10.2318,-2.7651 -1.39,1.25823 -2.3324,1.14532 -10.6087,-1.27119 -4.9957,-1.45864 -10.193,-3.47266 -11.5494,-4.47561 -1.3566,-1.00293 -2.8271,-1.82354 -3.2679,-1.82354 -0.441,0 -4.5537,-1.77747 -9.1395,-3.94992 -11.2646,-5.33647 -18.0486,-6.78088 -32.1042,-6.83545 -9.1097,-0.0354 -12.9473,0.34797 -18.3539,1.83348 -3.7597,1.03302 -7.9881,1.8782 -9.3963,1.8782 -1.4083,0 -3.0859,0.63304 -3.7279,1.40675 -1.0498,1.26492 -0.7265,1.34809 3.2073,0.82508 2.406,-0.31991 6.3641,-0.95359 8.7955,-1.40817 2.7683,-0.51755 7.0647,-0.50906 11.4941,0.0228 7.2997,0.87645 9.7457,1.49244 24.7563,6.23476 4.863,1.53633 11.2312,3.10727 14.1519,3.49098 3.9396,0.51759 7.1155,1.76501 12.3036,4.83243 10.7764,6.37158 15.6911,8.43085 23.8968,10.01287 8.0619,1.55423 9.355,2.80349 4.8387,4.6743 -2.1862,0.90569 -4.6631,0.91529 -12.5992,0.049 -13.8812,-1.51541 -33.7894,-1.70076 -35.1724,-0.32746 -0.8545,0.8486 -0.7252,1.19164 0.6112,1.62158 0.9323,0.29992 3.0877,1.33839 4.7897,2.30773 1.7021,0.96933 5.3823,2.82043 8.1785,4.11354 8.3246,3.84979 6.1765,4.99176 -3.6154,1.92213 -3.0827,-0.96634 -6.5452,-1.75701 -7.6949,-1.75701 -2.7913,0 -6.5939,1.79369 -6.5939,3.1104 0,1.47552 16.0229,8.38437 19.445,8.38437 1.8548,0 2.6797,0.37474 2.4327,1.10526 -0.2648,0.78389 -2.8998,1.10526 -9.0619,1.10526 -5.0306,0 -8.7973,0.37227 -8.947,0.88422 -0.142,0.48632 0.9904,1.68 2.5166,2.65264 1.5262,0.97264 2.7264,2.16632 2.6671,2.65264 -0.1441,1.18202 -11.9746,3.89722 -17.1787,3.9427 -2.2811,0.0199 -4.4213,-0.40672 -4.756,-0.94816 -0.3347,-0.54142 -2.3716,-1.76442 -4.5266,-2.71778 -2.1552,-0.95335 -6.1486,-3.29564 -8.8742,-5.20508 -7.0563,-4.94326 -8.2665,-4.69961 -16.3776,3.29717 -7.2598,7.15753 -8.1038,9.17381 -5.2924,12.64568 1.1668,1.44132 3.0322,2.10889 7.4097,2.6518 3.2177,0.39906 6.9919,1.35414 8.3872,2.12238 1.3952,0.76823 4.1323,2.18171 6.0824,3.14105 4.1127,2.02333 11.0431,2.29982 11.0431,0.44056 0,-0.9005 0.5283,-0.99934 2.1155,-0.39583 1.1634,0.44239 2.9669,0.58167 4.0077,0.30948 2.2228,-0.5813 5.3708,1.88915 5.3708,4.21489 0,0.85887 1.8458,3.4076 4.1021,5.66386 3.0369,3.03722 3.8438,4.36038 3.1077,5.0964 -1.649,1.64922 -8.9125,-2.50726 -13.86,-7.93151 l -4.4396,-4.8674 -2.948,2.75413 c -3.401,3.17712 -6.7836,3.52646 -13.7326,1.41824 -6.3587,-1.92908 -7.3201,-1.73713 -8.4502,1.68724 -0.5451,1.65218 -1.7697,3.90149 -2.721,4.99846 -0.9513,1.09696 -1.7298,2.34134 -1.7298,2.76529 0,1.0721 4.0287,2.49546 7.0631,2.49546 1.39,0 3.6695,0.96139 5.0658,2.13642 1.3965,1.17503 4.1125,2.40786 6.0359,2.73962 7.026,1.21188 12.0418,3.06503 13.6402,5.03961 0.8998,1.11166 3.7304,2.62758 6.2898,3.36867 9.2974,2.69205 5.2226,5.5075 -7.131,4.92703 -5.3358,-0.25071 -9.1196,-0.95043 -11.9787,-2.21522 -5.3147,-2.35114 -8.0876,-2.37888 -8.8147,-0.0882 -0.7085,2.23248 0.092,3.54476 2.1622,3.54476 2.3503,0 6.0069,3.1978 4.9087,4.29262 -0.4864,0.48472 -3.8068,1.28141 -7.3787,1.77041 -6.8062,0.93179 -9.0806,2.23929 -11.2739,6.48055 -1.343,2.59756 -1.3939,6.72118 -0.1032,8.4379 0.597,0.79426 1.2855,0.83576 2.5589,0.15418 1.4591,-0.78097 2.2412,-0.41872 4.8127,2.22911 1.7645,1.81713 3.9337,3.16161 5.101,3.16161 1.1169,0 2.756,0.80142 3.6423,1.78093 0.9676,1.06908 2.2372,1.5824 3.1764,1.28427 0.8606,-0.27315 2.3043,-0.0348 3.2081,0.52973 1.8561,1.15925 11.2542,-0.34209 12.2525,-1.95735 0.3514,-0.56852 3.1984,-0.67577 7.7879,-0.29344 5.6028,0.46674 8.3225,0.26771 12.0608,-0.88261 2.6548,-0.81688 9.0046,-1.81759 14.1105,-2.22379 5.106,-0.40622 11.0742,-1.39594 13.2624,-2.19939 6.3986,-2.34931 7.0732,-2.48721 7.0732,-1.44591 0,0.98571 -7.8842,8.7552 -14.5885,14.37625 -1.9453,1.63085 -3.7356,3.21875 -3.9788,3.52866 -0.2431,0.30992 -3.6251,2.12934 -7.5154,4.04315 -3.8903,1.9138 -12.2455,6.11119 -18.5673,9.32752 -6.3216,3.21634 -12.6206,6.27425 -13.9973,6.7954 -3.1228,1.182 -2.6939,2.65207 1.4033,4.8098 2.3677,1.24692 3.7419,2.93762 5.3946,6.63686 2.7198,6.08804 4.48,12.87922 3.7986,14.6551 -0.2795,0.72821 0.2632,3.02345 1.206,5.10054 0.9427,2.07708 1.7226,4.69155 1.7334,5.80991 0.023,2.42172 -2.1398,6.92689 -4.6373,9.65934 -1.6181,1.77034 -1.6512,2.02251 -0.3315,2.52894 0.8062,0.30941 2.8468,-0.0929 4.5347,-0.89381 1.6878,-0.80097 4.7338,-2.04379 6.7686,-2.76181 2.035,-0.71801 4.3126,-1.79753 5.0614,-2.39893 0.8433,-0.67735 0.7041,-0.17873 -0.3658,1.31038 -0.9499,1.32208 -2.2556,2.4163 -2.9016,2.43158 -2.1414,0.0506 -8.9933,8.25004 -8.9933,10.76189 0,3.1092 6.7448,23.42624 8.9852,27.06599 2.111,3.42925 2.5251,3.4917 5.2618,0.79316 3.7697,-3.71718 9.7805,-7.05677 10.5272,-5.84876 0.3678,0.59518 1.0658,0.8367 1.5512,0.53671 0.4854,-0.29999 1.0889,0.24386 1.3411,1.20858 0.2523,0.96471 1.0991,1.99981 1.882,2.30024 0.7829,0.30041 2.6313,1.67467 4.1077,3.05391 1.4764,1.37923 3.4597,2.75382 4.4076,3.05467 0.9479,0.30085 1.7233,1.02258 1.7233,1.60386 0,0.58128 1.0601,1.84761 2.356,2.81411 1.2959,0.96646 3.4313,3.23596 4.7453,5.0433 1.3141,1.80733 2.5416,3.13944 2.7278,2.96023 0.1862,-0.17921 1.7312,0.33758 3.4333,1.14843 2.6397,1.25756 3.0499,1.8511 2.7911,4.03792 -0.2968,2.5085 -1.9452,4.91014 -3.3911,4.94057 -0.3996,0.008 -1.7209,1.07147 -2.9366,2.36239 -1.2157,1.29092 -5.9784,5.14866 -10.5837,8.57275 -4.6053,3.42408 -11.966,9.70978 -16.3569,13.96822 -10.9193,10.58947 -11.6687,11.27718 -17.7094,16.24899 -8.6305,7.10336 -11.2011,9.37595 -17.0201,15.04698 -4.3508,4.24022 -5.526,5.94892 -5.526,8.03483 0,2.86326 -3.2029,6.78082 -17.9313,21.93251 -4.9285,5.07013 -7.9959,7.61546 -8.3995,6.97019 -0.6222,-0.99459 -0.4235,-7.23762 1.4876,-46.731 0.5176,-10.69896 1.341,-34.5727 1.8299,-53.05275 0.4886,-18.48003 1.3321,-38.52301 1.8745,-44.53994 0.7099,-7.8757 0.7176,-11.46677 0.028,-12.82106 -0.5274,-1.03468 -1.0658,-4.06232 -1.1965,-6.7281 -0.2365,-4.82094 -0.2615,-4.8601 -4.6587,-7.31577 -2.4313,-1.35789 -6.5096,-3.48333 -9.0625,-4.72322 -2.5531,-1.23989 -4.6437,-2.72255 -4.6459,-3.29479 0,-0.57225 -1.0964,-2.24642 -2.4314,-3.72038 -3.1227,-3.44745 -6.4061,-8.08867 -6.4061,-9.05485 0,-0.93899 -4.9036,-4.62314 -6.1534,-4.62314 -0.5059,0 -0.9199,-0.55428 -0.9199,-1.23172 0,-0.67746 -0.6293,-1.47324 -1.3986,-1.76843 -1.9976,-0.76659 -6.938,-0.66322 -7.9292,0.1659 -0.462,0.38643 -3.2272,1.45149 -6.145,2.36679 -2.9177,0.9153 -5.683,1.99176 -6.1448,2.39214 -0.462,0.40037 -1.6322,0.72795 -2.6004,0.72795 -1.6908,0 -1.6962,-0.047 -0.1352,-1.18857 1.4822,-1.08382 1.2827,-1.26847 -2.2624,-2.09511 -4.1356,-0.9643 -12.5942,-0.86097 -15.1534,0.18513 -1.0208,0.4173 -1.7232,0.15151 -2.0839,-0.78867 -0.2994,-0.77992 -1.4963,-1.41806 -2.6599,-1.41806 -1.5989,0 -2.1206,0.48606 -2.1356,1.98949 l -0.019,1.98947 -1.6288,-2.11871 -1.6289,-2.11868 -0.6421,4.28237 c -0.5121,3.41544 -0.3575,4.4906 0.7642,5.31092 1.5742,1.151 1.8887,4.41028 0.5081,5.26357 -0.4943,0.30546 -0.6693,0.92653 -0.3889,1.38016 0.2803,0.45362 -0.5088,1.21206 -1.7538,1.68543 -2.7122,1.03124 -3.035,3.55709 -0.4547,3.55709 1.5821,0 1.7836,0.49356 1.6054,3.93493 -0.3033,5.86118 3.8412,12.61001 5.7987,9.44246 0.2616,-0.4235 1.7378,-1.0224 3.28,-1.33088 1.5424,-0.30848 4.4893,-1.40253 6.549,-2.4312 3.7039,-1.84993 3.7352,-1.90528 2.8814,-5.07966 -0.4746,-1.76514 -2.053,-5.08504 -3.5077,-7.3776 -2.7306,-4.30388 -2.6989,-6.00018 0.1116,-6.00018 1.857,0 7.1127,5.5893 7.1127,7.56416 0,0.7222 1.0059,3.79204 2.2353,6.82186 1.8963,4.67296 3.8077,7.05155 12.5993,15.67721 9.5492,9.36923 15.2023,16.05627 16.556,19.58406 0.3028,0.78879 -0.1436,2.0935 -1.0141,2.96399 -1.4305,1.43059 -3.0788,1.50181 -20.6076,0.89027 -21.9095,-0.76439 -23.9868,-0.86709 -35.5454,-1.75735 -8.3359,-0.64204 -8.5673,-0.60858 -9.897,1.43083 -1.2499,1.91699 -1.1512,3.06722 1.206,14.02512 1.4121,6.56527 4.007,15.31897 5.7663,19.45267 1.7594,4.13369 4.1237,9.90318 5.2542,12.82108 2.206,5.69361 9.9555,23.70229 13.3174,30.94743 1.1284,2.43159 3.6186,8.00213 5.5338,12.37897 4.1492,9.48192 19.2019,39.11561 22.5604,44.4141 1.3041,2.05719 2.371,3.90653 2.371,4.10964 0,0.43265 4.6114,8.04266 12.3888,20.44484 12.2687,19.56384 16.1354,29.9976 16.3836,44.21061 0.068,3.89055 0.9728,12.44529 2.0103,19.01057 1.0375,6.56527 2.9077,20.49163 4.1559,30.94744 1.2484,10.45581 3.0665,22.59162 4.0406,26.96847 1.9026,8.54979 7.3815,22.01526 11.8725,29.17901 2.4727,3.94427 6.3597,11.68462 11.1007,22.10531 0.9582,2.1062 1.7268,6.21932 1.9001,10.16844 0.2287,5.2103 0.8818,7.86338 3.0471,12.37898 1.5944,3.32529 2.9929,7.94809 3.3183,10.96944 0.3095,2.87213 1.1017,6.45319 1.7607,7.95791 0.659,1.50472 3.1068,7.90849 5.4397,14.23062 2.3328,6.3221 4.4976,11.89265 4.8105,12.37896 0.313,0.48632 0.6528,2.27036 0.7553,3.96455 0.102,1.69416 0.5217,3.41568 0.9315,3.82555 0.4099,0.40987 0.4456,2.2069 0.079,3.99337 -0.5634,2.74924 -0.5021,24.65479 0.1824,65.14302 0.1116,6.63 -0.4107,11.386 -2.0892,19.01056 -0.9776,6.80564 -1.1614,12.64721 -2.0643,20.34962 0.2379,2.53476 -1.8755,14.34891 -5.7354,27.79522 -1.0416,3.62924 -1.4229,6.35537 -0.9311,6.65935 -0.1365,1.25965 -0.22,-0.4604 -1.8289,2.1245 -0.6613,1.08405 -0.8147,3.63076 -0.4393,7.29476 0,0 1.1665,5.19156 -1.0393,2.09248 -0.489,0 -1.1533,1.49211 -1.4765,3.3158 -0.3233,1.82368 -0.7915,4.11158 -1.0406,5.08422 1.3948,4.76617 0.8472,2.13007 -4.8824,8.45298 -0.4191,0.27225 -0.924,2.17711 -1.122,4.23308 -8.3989,43.20853 45.1558,72.49083 88.3365,74.50363 -3.817,0.4484 50.1283,1.2001 101.8783,1.4196 l 44.4082,0.1884 -0.4456,-10.3569 z m 14.1917,-284.92421 c -2.823,0 -7.2058,-3.67424 -10.6098,-4.97702 -3.4041,-1.30276 -9.4354,-3.88906 -13.4031,-5.74735 l -7.2139,-3.37869 -0.059,-6.251 c -0.031,-3.43804 -0.2442,-6.5517 -0.4715,-6.91923 -0.2271,-0.36754 -0.012,-4.62282 0.4937,-9.45621 0.8414,-8.15448 1.5277,-20.11226 1.6094,-28.04731 0.038,-3.74963 1.8569,-5.11613 4.5604,-3.42759 0.9017,0.56306 2.7661,1.02374 4.1432,1.02374 3.3466,0 11.0451,2.33731 15.0545,4.57067 3.6177,2.01512 8.9903,7.45254 8.9903,9.09879 0,1.58148 8.7949,7.35288 13.3148,8.7375 6.4456,1.97453 11.8606,4.8815 14.8624,7.97877 3.9673,4.09368 2.3836,7.53675 -2.3275,5.0598 -2.7233,-1.43176 -21.7518,-7.38913 -25.6287,-8.02373 -2.655,-0.43457 -3.7576,-0.3072 -3.7576,0.43404 0,0.57701 -0.7737,1.74925 -1.7192,2.60498 -1.4204,1.28556 -2.628,1.45041 -6.9498,0.94877 -5.618,-0.65208 -11.7794,0.63756 -13.6153,2.84982 -2.2106,2.66391 0.4061,3.94215 13.4412,6.56581 7.2905,1.4674 13.4328,3.18023 14.3359,3.99767 4.0636,3.67767 -0.096,6.26326 -8.0214,4.98676 -4.0438,-0.6513 -5.1507,-0.59771 -4.8316,0.23396 0.2277,0.59335 1.5134,1.53426 2.8573,2.09091 2.5639,1.06207 6.4469,4.43844 9.2678,8.0587 0.9189,1.17908 2.2511,2.8152 2.9607,3.63587 1.1462,1.32582 1.0586,1.74108 -0.7864,3.72601 l -2.0762,2.23391 -4.421,-2.60835 z m 65.9396,-13.75949 c 0.042,-1.03006 0.2519,-1.23957 0.5341,-0.53421 0.2554,0.63828 0.2241,1.40093 -0.07,1.69474 -0.2937,0.29382 -0.5027,-0.22842 -0.4643,-1.16053 z m -32.3416,-49.92629 c -1.7378,0 -3.2552,-1.71923 -3.9918,-1.7218 -0.7366,-0.002 -2.8521,-0.8155 -4.7011,-1.80655 -6.7326,-3.60867 -13.4069,-4.67466 -29.7679,-4.75433 -14.4354,-0.0703 -15.737,-0.21418 -19.4134,-2.14598 -6.3657,-3.34499 -6.3091,-3.14946 -5.8116,-20.0347 0.2438,-8.26737 0.6856,-26.96846 0.9819,-41.55798 0.3771,-18.5763 0.9326,-28.24888 1.8531,-32.27374 1.214,-5.30662 3.6519,-23.45619 3.7712,-28.07375 0.089,-3.45757 2.5008,-2.27147 3.146,1.54737 0.3287,1.94528 0.9604,3.53686 1.404,3.53686 0.4434,0 0.8064,-0.39791 0.8064,-0.88422 0,-0.48631 0.5969,-0.88421 1.3262,-0.88421 0.7295,0 1.3263,0.51277 1.3263,1.1395 0,0.62671 2.1883,2.46582 4.8629,4.08687 4.395,2.66387 5.2604,3.62819 4.9845,5.55422 -0.049,0.33668 1.0983,1.79817 2.5479,3.24777 1.4494,1.4496 2.6354,2.78824 2.6354,2.97474 0,0.18652 1.7904,2.26185 3.9787,4.61185 2.1882,2.35 3.9786,3.85702 3.9786,3.34894 0,-0.61553 0.7242,-0.58273 2.1702,0.0984 1.4637,0.68942 2.2549,1.87883 2.4313,3.65455 0.1694,1.70542 0.9816,2.98944 2.3064,3.64615 1.1248,0.55754 2.02,1.26292 1.9894,1.56754 -0.2737,2.72261 0.1511,4.0907 1.2706,4.0907 2.1816,0 1.4769,1.15598 -2.6949,4.42106 -7.2135,5.64572 -6.1728,8.84212 2.8791,8.84212 5.819,0 17.0569,2.45206 17.0569,3.72176 0,0.38463 0.7735,0.69931 1.7189,0.69931 0.9456,0 2.8356,1.02683 4.1998,2.28186 1.3644,1.25503 1.9834,2.02734 1.3756,1.71625 -0.6078,-0.3111 -1.1053,-0.10104 -1.1053,0.46662 0,0.63008 0.7779,0.83699 1.9968,0.53108 2.3297,-0.58474 4.9417,0.62618 3.4026,1.57744 -1.8153,1.12192 -1.0263,2.47255 1.1283,1.93175 1.7254,-0.43307 2.2992,-0.0647 3.1686,2.03445 0.8093,1.95384 0.8181,3.01862 0.037,4.47838 -0.9104,1.70118 -1.4372,1.83361 -4.716,1.1855 -2.0298,-0.4013 -10.6536,-0.72962 -19.1636,-0.72962 -13.6426,0 -16.2317,0.23852 -21.8882,2.01656 -5.5029,1.72967 -6.7413,2.50863 -8.7044,5.47529 -1.2588,1.90231 -2.0268,3.88243 -1.7068,4.40027 1.3908,2.25034 6.2343,3.76813 11.7604,3.68522 8.2635,-0.12396 17.8004,2.06104 20.417,4.67764 l 2.1428,2.14295 -2.5577,2.38724 c -2.435,2.27281 -2.8675,2.36149 -9.0242,1.84968 -4.8897,-0.40647 -7.0998,-0.21015 -9.0627,0.80494 -1.4277,0.73839 -2.596,1.52103 -2.596,1.73922 0,1.22906 5.679,2.91984 11.052,3.29047 13.9225,0.96037 23.8537,10.2445 23.2518,21.73697 -0.2244,4.28772 -0.5265,5.06169 -2.032,5.21021 -0.9726,0.0959 -2.683,-1.54272 -4.4208,-1.54272 z M 1662.8231,585.98529 c 0,2.45442 -2.1938,-5.79159 -3.0319,-7.73686 -0.8383,-1.94526 -3.4062,-9.50528 -5.7067,-16.80004 -2.3005,-7.29475 -5.292,-16.04845 -6.6478,-19.45266 -2.8003,-7.03202 -6.3067,-17.15558 -8.4222,-24.31584 -0.7901,-2.67475 -1.6592,-5.46002 -1.9314,-6.1895 -0.2719,-0.72946 -1.2131,2.05579 -2.0911,6.1895 -1.5392,7.24602 -4.434,17.10812 -6.0992,20.77899 -1.0499,2.31445 -2.7254,11.48927 -2.7316,14.95802 0,1.49943 -0.4194,4.21834 -0.9258,6.04203 -0.7661,2.75847 -1.312,3.31579 -3.2479,3.31579 -3.0432,0 -7.0659,-1.31627 -15.715,-5.14217 -7.8384,-3.46734 -10.9994,-3.78176 -20.3355,-2.02284 -7.9324,1.49444 -10.5236,1.14314 -10.8953,-1.47721 -0.3262,-2.29855 4.3674,-11.12538 9.0397,-16.99995 1.7405,-2.18841 3.1684,-4.27593 3.1732,-4.63891 0.012,-0.68702 8.6859,-13.15442 9.6945,-13.92955 0.3165,-0.24314 1.7345,-2.03369 3.1513,-3.97895 1.4168,-1.94526 3.8824,-5.03011 5.4791,-6.85519 1.5969,-1.8251 2.9034,-3.95783 2.9034,-4.7394 0,-2.20612 4.9877,-11.03404 8.4037,-14.87399 1.6929,-1.90286 2.9688,-3.5688 2.8355,-3.70208 -0.1332,-0.13327 -2.8159,0.18162 -5.9618,0.69977 -4.1131,0.6775 -6.4068,0.66898 -8.1667,-0.0304 -3.0887,-1.22728 -4.6142,-4.89285 -3.337,-8.01936 2.0152,-4.93372 3.6589,-12.85116 2.7324,-13.16008 -1.0192,-0.3397 -1.2803,-12.32104 -0.3679,-16.88249 0.3073,-1.53702 1.2461,-3.16239 2.0859,-3.61196 2.0428,-1.09326 7.965,-0.0718 7.965,1.37382 0,0.63055 1.0942,1.96679 2.4315,2.96943 1.3373,1.00263 2.9119,2.2252 3.4993,2.71682 0.5874,0.4916 1.4113,0.89383 1.8312,0.89383 1.0613,0 9.0371,7.73795 9.0371,8.76767 0,0.46172 0.8952,1.10826 1.9893,1.43674 2.3988,0.72021 8.2031,6.88216 6.8937,7.31864 -0.5091,0.16971 -0.9257,0.66345 -0.9257,1.0972 0,0.44141 1.0058,0.40619 2.2846,-0.08 2.9512,-1.1221 3.7101,-0.58056 4.4094,3.14625 0.3152,1.68078 0.9273,2.83704 1.3604,2.56943 0.4328,-0.2676 0.7872,-0.077 0.7872,0.42344 0,0.50051 1.5919,1.81714 3.5377,2.92588 1.9456,1.10872 3.7627,2.71219 4.0381,3.56325 0.2754,0.85105 1.1134,1.54737 1.862,1.54737 0.7941,0 1.1662,0.50835 0.8931,1.22008 -0.2575,0.67106 0.7942,3.05093 2.3369,5.28864 8.7604,12.70665 11.9552,17.70399 21.8419,34.16505 5.9878,9.96949 13.234,21.69203 16.1025,26.05007 4.816,7.31653 5.0962,8.01104 3.6574,9.06318 -0.857,0.62671 -2.1783,1.17007 -2.9364,1.20751 -8.0413,0.39704 -16.2547,1.72682 -17.7914,2.8805 -1.2695,0.95287 -4.173,5.77626 -9.3763,15.57639 -1.1493,2.16447 -2.4042,4.15396 -2.7889,4.42106 -0.3846,0.26708 -1.2224,1.77878 -1.8615,3.35932 -1.6211,4.00786 -4.962,-6.54605 -4.962,-1.32633 z m -26.0472,-98.76914 c 0,-1.75228 -2.3643,-4.90477 -3.6785,-4.90477 -2.1733,0 -2.0766,1.50637 0.142,2.21053 0.9725,0.30872 1.7682,1.13132 1.7682,1.82802 0,0.6967 0.3979,1.26674 0.8842,1.26674 0.4863,0 0.8841,-0.18023 0.8841,-0.40052 z M 1769.162,438.9141 c 0.3126,-1.19563 0.7134,-1.59644 0.934,-0.93421 0.2127,0.63791 -0.034,1.58023 -0.5475,2.09404 -0.6561,0.65616 -0.7711,0.31093 -0.3865,-1.15983 z m 2.0059,-4.35018 c 0,-0.48632 0.4213,-0.88421 0.9363,-0.88421 0.5151,0 0.6905,0.39789 0.3899,0.88421 -0.3005,0.48631 -0.7219,0.88421 -0.9362,0.88421 -0.2146,0 -0.39,-0.3979 -0.39,-0.88421 z m 5.6093,-13.92635 c 2.2724,-3.59091 5.4427,-4.53512 5.4427,-1.62105 0,0.9321 -0.4977,1.86062 -1.1058,2.06337 -0.702,0.234 -0.9096,-0.1427 -0.5686,-1.03159 0.9063,-2.36161 -0.8751,-1.54929 -2.7463,1.25243 -2.5752,3.85547 -3.5014,3.25447 -1.022,-0.66316 z m -173.5996,-35.58955 c 0,-0.48631 0.4213,-0.88421 0.9364,-0.88421 0.515,0 0.6904,0.3979 0.3898,0.88421 -0.3004,0.48631 -0.7219,0.88422 -0.9362,0.88422 -0.2146,0 -0.39,-0.39791 -0.39,-0.88422 z m 10.9909,-102.64056 c 0.3658,-1.17623 1.2231,-4.10569 1.9048,-6.5099 1.751,-6.17427 2.4053,-6.51939 6.1407,-3.23937 1.7669,1.55138 4.3983,3.05788 5.8478,3.34778 1.4493,0.28989 2.312,0.83278 1.9168,1.2064 -1.5056,1.42372 -7.9038,4.6663 -10.444,5.29301 -1.459,0.35993 -3.4127,0.96633 -4.342,1.34757 -1.4722,0.60405 -1.6039,0.41826 -1.0241,-1.44549 z m 13.3234,-20.60641 c 3.9549,0 -5.3473,-4.95444 -4.2035,-8.23582 0.5958,-1.70929 0.5758,-4.02504 -0.062,-7.13784 -0.622,-3.03681 -0.6524,-5.43906 -0.09,-7.0463 0.7442,-2.12454 1.4254,-2.49643 5.287,-2.88727 2.7084,-0.27413 5.4132,-1.21998 6.9534,-2.43159 1.6586,-1.30473 3.7317,-1.98295 6.0618,-1.98295 4.0225,0 5.874,1.72189 5.9181,5.50422 0.025,2.15604 -0.2276,2.36065 -2.4035,1.94529 -1.5117,-0.28863 -3.756,0.22134 -5.9338,1.34844 -1.9265,0.99692 -4.0277,1.8126 -4.6696,1.8126 -2.0525,0 -2.1713,2.379 -0.3018,6.04377 0.9997,1.95942 2.2211,3.81201 2.7142,4.11687 1.8358,1.1346 0.7972,4.28158 -2.3705,7.1833 -3.7075,3.39612 -10.7568,1.76728 -6.9005,1.76728 z m -54.4151,-2.85706 c -0.4838,-1.27285 -2.0654,-3.42198 -3.5147,-4.77582 -2.8802,-2.69064 -3.3759,-4.81528 -1.3087,-5.6086 3.0803,-1.18209 4.4765,0.77161 6.3896,8.94081 0.9668,4.12828 -0.1531,5.16052 -1.5662,1.44361 z m 0.7026,-45.21865 c -0.851,-0.1893 -1.5473,-0.71292 -1.5473,-1.16357 0,-1.12948 2.4154,-1.0341 3.1308,0.12366 0.7458,1.20659 0.346,1.46912 -1.5835,1.03991 z m 3.7832,-1.94841 c 0,-0.84639 -1.0606,-1.06253 -0.7675,-1.3558 0.8182,-0.81817 5.2174,0.51754 4.6624,1.41558 -0.6256,1.01215 -3.8949,1.89941 -3.8949,-0.0598 z M 1519.6359,357.406 c 0.8101,-2.54745 2.6546,-7.54599 4.0993,-11.10789 2.8398,-7.00238 2.9581,-9.59821 0.5062,-11.11778 -2.1609,-1.33924 -3.0863,0.34973 -3.0863,5.63272 0,2.29923 -0.5172,5.1353 -1.1493,6.3024 -1.0608,1.95892 -1.9042,5.41226 -3.1935,13.07426 -0.7579,4.50473 1.0835,2.6894 2.8236,-2.78371 z m -28.8372,-28.59299 c 3.5199,-1.26395 6.6263,-2.07149 6.9032,-1.79455 0.2769,0.27693 1.6045,-0.28053 2.9501,-1.2388 1.3457,-0.95826 3.1811,-1.73827 4.0786,-1.73334 2.7642,0.0152 12.6837,-3.81206 12.6837,-4.89371 0,-1.51951 -4.0335,-3.07316 -7.9785,-3.07316 -2.7308,0 -3.785,0.47333 -4.9232,2.21054 -0.7964,1.2158 -2.0372,2.21054 -2.7573,2.21054 -0.72,0 -2.3651,0.74584 -3.6559,1.65744 -1.2908,0.91161 -5.2314,3.10503 -8.757,4.87429 -5.9667,2.99429 -7.4762,4.07881 -5.6768,4.07881 0.4034,0 3.6132,-1.03414 7.1331,-2.29806 z m 8.0483,-17.31289 c 0,-2.71149 -2.2107,-6.93485 -3.3926,-6.48127 -0.6888,0.26431 -1.7988,0.0271 -2.4666,-0.52716 -0.9427,-0.78244 -1.214,-0.69396 -1.214,0.39573 0,0.77193 0.712,1.78456 1.5822,2.25035 0.8702,0.46577 2.1311,1.8724 2.8019,3.12584 1.2726,2.37813 2.6891,3.02944 2.6891,1.23651 z m 0.8841,-27.25479 c 0,-0.97126 -0.3978,-1.76594 -0.8841,-1.76594 -0.4863,0 -0.8842,0.48059 -0.8842,1.06798 0,0.5874 -1.3596,2.4774 -3.0214,4.20001 -2.6061,2.70164 -3.6468,5.35082 -3.2655,8.31353 0.189,1.46856 8.0552,-10.06977 8.0552,-11.81558 z m -297.0768,-9.89168 c 0,-1.55125 -0.3983,-5.03285 -0.8849,-7.73686 -0.4868,-2.70402 -1.6978,-11.08377 -2.6916,-18.62169 -0.9937,-7.53791 -2.0196,-14.79949 -2.2798,-16.13687 -0.3502,-1.79924 -0.1217,-2.43158 0.8792,-2.43158 0.7439,0 1.6708,0.52531 2.0596,1.16736 0.9328,1.54006 11.1378,7.75555 15.1935,9.25387 1.7581,0.64952 5.7828,1.97424 8.9437,2.94385 3.161,0.96959 6.9406,2.18068 8.3994,2.69126 3.8735,1.35568 25.5828,1.95118 32.2719,0.88523 13.3128,-2.12145 22.1119,-4.96537 29.1915,-9.43482 1.9179,-1.21081 3.7743,-2.20148 4.125,-2.20148 0.7428,0 13.5333,13.15643 19.9862,20.55793 2.438,2.79634 4.8703,5.0825 5.4054,5.08039 1.2854,-0.005 20.1186,-16.85661 19.7924,-17.71008 -0.2288,-0.59911 -7.2643,-8.45651 -18.659,-20.83927 l -4.2599,-4.62925 2.4915,-3.77747 c 3.3216,-4.37732 4.8591,-8.3149 6.599,-11.50318 5.6194,-8.64747 8.9204,-35.53086 6.4849,-52.81306 -1.5225,-10.80412 -2.3885,-14.04418 -6.3775,-23.86551 -9.2949,-22.88432 -23.6086,-39.507295 -49.4925,-57.477189 -2.8021,-1.94548 -10.0142,-5.958159 -16.6133,-9.243528 -5.7722,-2.873753 -8.9943,-4.260292 -19.6724,-8.465777 -2.3099,-0.909714 -9.3721,-2.917976 -15.6938,-4.462806 -6.3218,-1.544828 -13.6824,-3.419587 -16.357,-4.16613 -2.6746,-0.746543 -6.2263,-1.225105 -7.8928,-1.063523 l -3.0301,0.29383 2.146,2.315023 c 1.2194,1.315519 5.3904,3.524652 9.6611,5.116842 21.4339,7.990805 37.1875,17.884927 52.2248,32.799798 12.4046,12.303744 18.0101,19.7253 23.7085,31.38954 4.8558,9.93954 6.4801,14.6429 8.4606,24.49962 2.52,12.54222 1.2268,30.57341 -3.0264,42.19593 -2.5205,6.8875 -3.1809,7.25794 -6.4181,3.59933 -1.5061,-1.7021 -8.3848,-9.06317 -15.2864,-16.35792 -6.9014,-7.29476 -14.6738,-15.65057 -17.2718,-18.56846 -2.598,-2.91791 -5.2229,-5.81251 -5.833,-6.43248 -0.6102,-0.61996 -2.5837,-2.92643 -4.3858,-5.12556 l -3.276,-3.99835 3.091,-2.83235 c 1.7002,-1.55778 7.6072,-6.78643 13.1267,-11.61919 5.5195,-4.83276 9.6511,-8.91493 9.1814,-9.0715 -0.8101,-0.27008 -10.5609,-2.99557 -28.2128,-7.88591 -4.3767,-1.212498 -10.4155,-2.839263 -13.4197,-3.615037 l -5.4623,-1.410495 -2.9373,2.435121 c -8.8746,7.357721 -28.5756,24.359321 -42.508,36.684031 -0.3676,0.325 0.035,1.36462 0.8919,2.31025 0.8581,0.94564 2.9491,3.49566 4.6468,5.66672 1.6975,2.17105 4.0325,4.95632 5.1887,6.18949 1.1559,1.23315 3.673,4.35521 5.5933,6.93789 1.9205,2.58268 4.0581,4.91314 4.7504,5.17882 0.6923,0.26567 1.2587,0.855 1.2587,1.30962 0,0.45463 0.7022,1.58039 1.5605,2.50171 1.5191,1.63066 1.7535,1.51822 8.8363,-4.23698 10.447,-8.48873 12.3272,-9.89106 13.2622,-9.89106 0.4582,0 2.9172,2.28791 5.4645,5.08422 2.5473,2.79632 8.2809,8.86423 12.7414,13.48424 4.4605,4.62 11.6864,12.34647 16.0573,17.16991 4.3711,4.82344 8.3473,9.20028 8.836,9.72633 0.4886,0.52605 3.1756,3.58848 5.971,6.80537 l 5.0826,5.84892 -3.3382,2.20938 c -5.0475,3.34042 -10.6024,6.01996 -15.4881,7.47091 -5.3942,1.60201 -23.0238,1.75621 -27.7892,0.24307 -11.809,-3.74966 -16.5345,-5.81707 -22.9549,-10.04305 l -7.2314,-4.75968 -10.7475,-0.12899 -10.7473,-0.12898 0.6262,36.0672 c 0.3447,19.83696 0.7995,36.36562 1.011,36.73036 0.2115,0.36474 5.9313,0.66318 12.7106,0.66317 h 12.3261 z m 289.1195,-10.45572 c 0,-1.04108 1.1299,-2.46863 2.719,-3.43501 1.4953,-0.90947 3.3082,-2.49521 4.0287,-3.52386 0.7205,-1.02863 1.8417,-1.87026 2.4915,-1.87026 1.4949,0 2.2548,-1.96135 2.2548,-5.8197 0,-3.49644 -1.3233,-4.03176 -2.12,-0.85756 -0.2988,1.19068 -1.6341,2.68773 -2.9673,3.32677 -1.3333,0.63906 -3.2208,2.68145 -4.1944,4.53866 -0.9737,1.85719 -2.4666,3.76203 -3.3175,4.23296 -2.2375,1.23822 -1.9571,5.18942 0.3684,5.18942 0.4052,0 0.7368,-0.80163 0.7368,-1.78142 z m 182.5894,-3.27545 c 3.554,-3.76813 6.3627,-10.5672 7.1569,-17.32446 0.4969,-4.22843 0.1784,-5.47699 -3.4344,-13.46598 -5.7509,-12.71675 -8.8421,-22.76948 -9.9131,-32.23705 -0.9166,-8.10336 -4.3667,-18.9693 -8.5626,-26.96848 -2.2249,-4.24137 -8.6671,-11.08886 -13.5474,-14.39964 -6.4498,-4.3755 -16.6969,-12.89254 -24.7597,-20.57929 -7.2775,-6.93801 -16.7249,-14.6855 -21.1991,-17.38459 -6.4931,-3.91695 -22.1729,-11.08457 -26.9875,-12.33669 -7.2448,-1.8841 -33.9227,-2.12692 -41.9975,-0.38225 -7.2941,1.57595 -14.9306,5.60054 -19.7252,10.39553 -5.3144,5.31465 -9.4142,7.81447 -17.0129,10.37345 -7.3296,2.46836 -11.1928,5.75396 -11.9992,10.20514 -0.315,1.7385 -1.3146,4.63717 -2.2213,6.44148 -1.9154,3.8112 -1.9541,4.20154 -0.7319,7.4164 1.2765,3.35755 2.8445,1.54473 2.779,-3.21266 -0.034,-2.44304 0.6515,-4.80958 2.0048,-6.92425 4.1992,-6.56091 7.9943,-8.94603 18.6137,-11.69826 2.4313,-0.63015 6.7262,-2.55975 9.5441,-4.28801 8.3729,-5.1353 8.8458,-5.32616 13.2323,-5.33974 2.315,-0.007 7.8654,-0.82751 12.3342,-1.82298 9.1573,-2.03991 15.4639,-1.73928 21.648,1.03197 2.0398,0.91421 4.2933,1.66218 5.0073,1.66218 1.3591,0 11.1198,7.21397 20.9027,15.44901 3.6149,3.0428 8.5355,6.03289 13.2625,8.05908 4.1333,1.77176 9.1843,3.97147 11.2245,4.88826 2.0398,0.91678 4.0736,1.66687 4.5189,1.66687 1.2353,0 8.2357,7.20137 11.2572,11.58041 1.4776,2.14131 5.2572,5.80686 8.3995,8.14564 9.7166,7.23209 12.9977,10.96088 15.0365,17.08827 1.0122,3.04163 4.1489,9.23273 6.9706,13.75802 2.8217,4.52529 5.6361,9.79149 6.2544,11.70267 1.0371,3.20664 0.9781,3.59298 -0.7655,5.0049 -2.8052,2.2718 -2.3453,5.79957 1.6474,12.63235 1.945,3.32885 3.5366,6.39223 3.5366,6.80751 0,0.41528 0.7378,1.1499 1.6394,1.63252 1.4748,0.78935 4.184,9.78746 3.8519,12.79408 -0.173,1.56843 -1.9338,9.67597 -2.469,11.36966 -0.8021,2.53817 1.1965,1.76552 4.5039,-1.74107 z M 1493.311,246.38937 c -1.1346,-3.87099 -1.101,-4.52225 0.3766,-7.2775 0.8925,-1.66432 1.6228,-4.57687 1.6228,-6.47232 0,-1.89545 0.7446,-4.68694 1.6547,-6.20329 2.4667,-4.10976 3.1249,-7.62017 1.429,-7.62017 -0.754,0 -1.5807,0.69632 -1.8372,1.54738 -0.2565,0.85105 -1.5988,3.93475 -2.983,6.85264 -3.4493,7.27101 -3.9509,11.33862 -2.2843,18.52494 1.5754,6.79343 2.4953,8.79788 2.9603,6.45062 0.1689,-0.85296 -0.2535,-3.46398 -0.9389,-5.8023 z m -0.9287,-41.49962 c -0.1346,-1.96698 0.3826,-2.67327 2.707,-3.69643 3.2575,-1.43382 3.911,-3.19842 0.8841,-2.38722 -1.0941,0.29325 -3.0834,0.53861 -4.4206,0.54525 -2.7329,0.0136 -3.1785,1.82613 -1.4055,5.71785 1.3475,2.95734 2.4437,2.86932 2.235,-0.17945 z m 54.6071,-15.31524 c 0.5212,-0.50973 -0.4019,-0.87199 -2.4314,-0.95427 -1.7993,-0.073 -3.7356,-0.17242 -4.303,-0.22105 -1.7244,-0.14782 -1.8311,1.94329 -0.1226,2.40414 1.9885,0.53634 5.7397,-0.13589 6.857,-1.22882 z"
       id="path1537"
       sodipodi:nodetypes="cccccccssssssssssssssssssscssssssssssssssssssssssssssssssssssssssscsssssssssssssssssssssssssssscssssssssssssssssssssssssssssssssssssssssssssssssssssssssssssssssssssssscsssssssssssssssssssssssssssssssssssssssssssssssssssssssssssssscssssssssssssssscssssssssssssssccccsssssssssssssssssssssssssssssssssssssssssssssccsccccsccccscccsccscsssssssssssssssssssssccsssssssssssssssssssscssssssscsssssssssssssssssssscssssssssssssssssscssssssssssssssssssssssssssssssssssssssssssssssssssssssssssssssssssssssssssssssssssssssscssssssssssssssssssssssssssssssssssssssssssssssssssssssssssssssssssssscssssccsssscssssssssssscssssscsscssssssssssssscsssscccssscssssssssssssssssssssssssssssssssssssssssssssssssssssssssssssssssssssssssssss" />
  </g>
</svg>
