<?xml version="1.0" encoding="UTF-8" standalone="no"?>
<!-- Created with Inkscape (http://www.inkscape.org/) -->

<svg
   version="1.1"
   id="svg1262"
   width="1599.9999"
   height="900"
   viewBox="0 0 1599.9999 900"
   sodipodi:docname="lenin_promise.svg"
   inkscape:version="1.1.2 (0a00cf5339, 2022-02-04, custom)"
   xmlns:inkscape="http://www.inkscape.org/namespaces/inkscape"
   xmlns:sodipodi="http://sodipodi.sourceforge.net/DTD/sodipodi-0.dtd"
   xmlns="http://www.w3.org/2000/svg"
   xmlns:svg="http://www.w3.org/2000/svg">
  <defs
     id="defs1266" />
  <sodipodi:namedview
     id="namedview1264"
     pagecolor="#505050"
     bordercolor="#ffffff"
     borderopacity="1"
     inkscape:pageshadow="0"
     inkscape:pageopacity="0"
     inkscape:pagecheckerboard="1"
     showgrid="false"
     fit-margin-top="0"
     fit-margin-left="0"
     fit-margin-right="0"
     fit-margin-bottom="0"
     showguides="true"
     inkscape:guide-bbox="true"
     inkscape:zoom="0.20243291"
     inkscape:cx="-321.09403"
     inkscape:cy="1314.0156"
     inkscape:window-width="2519"
     inkscape:window-height="1048"
     inkscape:window-x="1121"
     inkscape:window-y="575"
     inkscape:window-maximized="1"
     inkscape:current-layer="g1268">
    <sodipodi:guide
       position="-2.6171873e-06,900.00001"
       orientation="0,-1"
       id="guide4398" />
    <sodipodi:guide
       position="-2.6171873e-06,900.00001"
       orientation="1,0"
       id="guide4457" />
    <sodipodi:guide
       position="1599.9999,900.00001"
       orientation="1,0"
       id="guide4459" />
    <sodipodi:guide
       position="-2.6171873e-06,3.6842515e-06"
       orientation="0,-1"
       id="guide4461" />
  </sodipodi:namedview>
  <g
     inkscape:groupmode="layer"
     inkscape:label="Image"
     id="g1268"
     transform="translate(-617.01282,-13.082157)">
    <rect
       style="fill:#862d2d;fill-opacity:1;stroke:none;stroke-width:12.4168;stroke-linecap:round;stroke-linejoin:round;paint-order:stroke fill markers"
       id="rect3907"
       width="1600"
       height="900"
       x="617.01282"
       y="13.082151" />
    <path
       style="fill:#280b0b;stroke-width:0.736821"
       d="M 617.01282,13.082157 H 2217.0127 V 913.08215 H 617.01282 Z M 1570.2977,878.79079 c -0.8734,-20.30639 -1.5307,-27.69729 -2.4912,-28.01753 -0.7578,-0.25259 -0.764,-0.43503 -0.03,-0.88863 0.739,-0.45677 0.7458,-5.62573 0.034,-25.88458 -0.4895,-13.92252 -0.979,-27.13744 -1.0882,-29.36639 -0.109,-2.22896 -0.4653,-11.68288 -0.7915,-21.00867 -0.6372,-18.20984 -0.695,-17.79035 3.2957,-23.9388 0.3946,-0.60789 2.5981,-4.25526 4.8967,-8.10528 2.2986,-3.85 4.9105,-7.99475 5.8044,-9.21054 1.8387,-2.5007 6.0581,-13.83622 6.5092,-17.48645 1.528,-12.36543 1.6769,-10.92993 -1.8303,-17.62892 -1.7704,-3.38133 -3.3847,-6.31367 -3.5872,-6.51629 -0.7085,-0.70855 -2.2104,-3.67033 -2.2104,-4.35897 0,-0.59556 -3.8964,-6.60074 -7.3008,-11.25201 -0.9064,-1.23835 -0.878,-1.57652 0.2241,-2.66679 1.1882,-1.17526 1.4223,-1.06745 3.9853,1.83563 1.4977,1.69632 4.215,4.95596 6.0386,7.24364 6.358,7.97621 7.4264,9.08007 10.1512,10.48885 2.4266,1.25456 3.0182,1.30435 5.1329,0.43191 1.3147,-0.54234 3.4183,-2.39514 4.6748,-4.11734 1.9752,-2.70708 2.2336,-3.58044 1.9081,-6.44705 -0.5406,-4.76083 0.092,-7.06587 2.2035,-8.02796 1.972,-0.89861 2.6319,-0.68781 5.2901,1.6902 l 1.7306,1.54827 2.8371,-3.18439 c 2.8487,-3.19742 4.3951,-8.17483 3.37,-10.8465 -0.2435,-0.63482 0.3826,-2.78313 1.3914,-4.77403 1.0088,-1.9909 1.8342,-4.64873 1.8342,-5.90629 0,-2.56704 -2.7795,-6.87024 -7.3467,-11.37435 -1.6326,-1.61017 -2.9685,-3.29957 -2.9685,-3.75422 0,-1.71332 3.0424,-3.49105 6.5517,-3.82826 3.0944,-0.29736 4.378,0.0389 8.8498,2.31798 7.9093,4.03099 8.1138,3.95496 12.1523,-4.51845 1.8834,-3.95132 3.7386,-7.6816 4.1229,-8.2895 1.9438,-3.07485 5.1549,-10.44504 6.2599,-14.36845 0.685,-2.43158 2.0316,-6.90791 2.9925,-9.94739 3.1823,-10.06615 5.1745,-35.67072 3.2679,-42.00008 -0.4272,-1.41843 -1.4188,-11.10913 -2.2034,-21.5349 -0.7847,-10.42576 -1.769,-21.03631 -2.1876,-23.579 -0.4184,-2.54268 -1.2476,-7.60727 -1.8423,-11.25465 -0.5948,-3.64737 -1.9393,-10.61055 -2.9878,-15.47371 -1.0485,-4.86317 -2.1948,-10.66581 -2.5474,-12.89477 -1.2317,-7.78774 -2.8601,-15.14256 -4.4049,-19.89477 -5.115,-15.73587 -5.2877,-16.67032 -4.7592,-25.74204 0.5481,-9.40494 -0.3165,-14.47004 -3.6918,-21.6294 -0.9955,-2.11156 -2.6355,-7.32079 -3.6446,-11.57606 -1.0089,-4.25527 -2.8034,-10.07257 -3.9877,-12.92732 -1.1843,-2.85477 -3.0504,-7.96179 -4.1468,-11.34897 -4.4447,-13.73093 -15.4289,-31.00083 -21.7926,-34.26331 -1.0132,-0.51939 -3.4999,-1.15742 -5.526,-1.41786 -2.4435,-0.31405 -7.406,-2.34315 -14.736,-6.0252 -6.0786,-3.05342 -12.8756,-6.07546 -15.1044,-6.71565 -2.2288,-0.64017 -4.3839,-1.41162 -4.7892,-1.71433 -0.8684,-0.64867 -17.7774,-6.33953 -27.2615,-9.1751 -13.5243,-4.04348 -26.4704,-9.52043 -29.952,-12.67136 -0.7648,-0.69226 -2.5386,-4.93628 -3.9417,-9.43117 -2.4983,-8.00372 -6.4583,-15.86465 -8.2879,-16.45262 -1.2926,-0.41533 -1.1511,1.666 0.1886,2.77799 0.6104,0.50658 1.0386,1.85399 0.9518,2.99424 -0.092,1.20847 0.4439,2.7394 1.2849,3.67041 1.3368,1.47993 1.4253,2.53393 1.2038,14.35407 -0.2044,10.90794 -0.062,13.02703 0.9823,14.62087 0.9483,1.44753 1.3142,4.4109 1.6373,13.26318 l 0.416,11.39918 -2.9779,0.80191 c -4.786,1.28881 -15.5405,1.16615 -19.2522,-0.21961 -4.0055,-1.49544 -8.9294,-1.55089 -10.8186,-0.12186 -1.9122,1.44646 -2.9557,1.41774 -1.7395,-0.0479 0.824,-0.99276 0.778,-1.28762 -0.2937,-1.88739 -0.6985,-0.39095 -1.0512,-1.06504 -0.7835,-1.49796 0.2841,-0.45977 0.06,-0.63349 -0.5372,-0.41768 -0.5629,0.20322 -2.5878,-0.49483 -4.4997,-1.55121 -3.4428,-1.90226 -3.487,-1.90666 -4.6055,-0.4581 -1.1261,1.45829 -1.1321,1.45826 -2.0499,-0.0111 -0.5061,-0.81054 -0.9203,-1.97107 -0.9203,-2.57895 0,-0.6079 -0.7256,-1.42379 -1.6125,-1.8131 -0.8868,-0.38931 -1.7788,-1.34422 -1.9822,-2.12202 -0.2399,-0.91745 -0.7735,-1.25929 -1.519,-0.9732 -0.6495,0.2493 -1.1593,0.0507 -1.1724,-0.45693 -0.013,-0.49386 -0.8417,0.0324 -1.8421,1.16948 -1.0868,1.23549 -1.8186,1.64749 -1.8186,1.02388 0,-1.33354 2.9328,-5.65936 6.3166,-9.31685 1.4497,-1.56695 3.4464,-3.94773 4.4371,-5.29063 0.9907,-1.34289 3.3939,-4.10903 5.3404,-6.14695 1.9467,-2.03792 5.5602,-6.21209 8.0302,-9.27591 2.47,-3.06383 5.0153,-6.00576 5.6561,-6.53761 0.6408,-0.53185 1.1651,-1.44763 1.1651,-2.03505 0,-0.58743 0.8028,-2.45341 1.784,-4.14663 2.5015,-4.31672 3.9886,-10.03198 4.7315,-18.18389 0.5146,-5.64769 0.4375,-7.23308 -0.3991,-8.20649 -0.8964,-1.04286 -0.7872,-2.69146 0.8051,-12.15791 1.7315,-10.29364 1.9773,-11.06538 4.0927,-12.84821 l 2.2505,-1.89676 -1.8924,-1.77794 c -1.5181,-1.42635 -1.8069,-2.23323 -1.4606,-4.08016 0.2967,-1.58169 0.082,-2.59299 -0.6875,-3.23133 -1.4785,-1.22716 -1.4207,-1.87684 0.5224,-5.85814 1.0796,-2.21202 1.7356,-5.14465 1.9153,-8.56272 0.2485,-4.72537 0.1,-5.40471 -1.6333,-7.46462 -2.2939,-2.72619 -6.1078,-4.65267 -9.2112,-4.65267 -1.2515,0 -4.4369,0.8653 -7.0785,1.92289 -4.53,1.81358 -4.9069,1.85486 -6.6295,0.72607 -3.5088,-2.29922 -6.0457,-9.73705 -3.596,-10.54279 0.4556,-0.14983 1.8297,0.57026 3.0537,1.60019 2.3046,1.93944 3.8545,2.40211 3.8545,1.15069 0,-0.39705 -1.3305,-2.46942 -2.9567,-4.60527 -3.7349,-4.90548 -6.1304,-9.78012 -6.1304,-12.47499 0,-3.22379 0.9054,-3.42173 3.1379,-0.68606 2.153,2.63808 3.7389,2.59363 3.7389,-0.10481 0,-1.54848 0.012,-1.54756 1.8097,0.14178 4.2301,3.97412 7.5012,10.7892 3.3949,7.07284 -0.7895,-0.71455 -1.8099,-1.17431 -2.2677,-1.02172 -2.0333,0.67778 6.3506,7.97907 9.1621,7.97907 2.1928,0 1.9539,-1.66563 -0.93,-6.48098 -1.6271,-2.71705 -4.4286,-7.75853 -6.2253,-11.20328 -3.0781,-5.90138 -3.6236,-6.50532 -9.4441,-10.45544 -3.3974,-2.30574 -6.8417,-4.99871 -7.6538,-5.98438 -2.8095,-3.40964 -6.2713,-4.34521 -8.5265,-2.30425 -1.1584,1.04852 -1.9437,0.95443 -8.8406,-1.05933 -4.1631,-1.21553 -8.4942,-2.89388 -9.6245,-3.72967 -1.1305,-0.83578 -2.3559,-1.51962 -2.7233,-1.51962 -0.3675,0 -3.7947,-1.48122 -7.6162,-3.2916 -9.3872,-4.44706 -15.0405,-5.65073 -26.7535,-5.69621 -7.5914,-0.0295 -10.7894,0.28998 -15.2949,1.5279 -3.1331,0.86085 -6.6568,1.56517 -7.8303,1.56517 -1.1736,0 -2.5716,0.52753 -3.1066,1.17229 -0.8748,1.0541 -0.6054,1.12341 2.6728,0.68757 2.005,-0.26659 5.3034,-0.79466 7.3296,-1.17348 2.3069,-0.43129 5.8872,-0.42421 9.5784,0.019 6.0831,0.73038 8.1214,1.2437 20.6302,5.19564 4.0525,1.28027 9.3594,2.58939 11.7933,2.90915 3.283,0.43132 5.9296,1.47084 10.253,4.02702 8.9803,5.30965 13.0759,7.02571 19.914,8.34406 6.7182,1.29519 7.7958,2.33624 4.0322,3.89525 -1.8218,0.75474 -3.8859,0.76274 -10.4993,0.0408 -11.5677,-1.26284 -28.1578,-1.4173 -29.3103,-0.27288 -0.7121,0.70716 -0.6044,0.99303 0.5093,1.35131 0.7769,0.24994 2.5731,1.11533 3.9914,1.92311 1.4184,0.80778 4.4853,2.35036 6.8154,3.42795 6.9372,3.20816 5.1471,4.1598 -3.0128,1.60178 -2.5689,-0.80529 -5.4543,-1.46418 -6.4124,-1.46418 -2.3261,0 -5.4949,1.49474 -5.4949,2.592 0,1.2296 13.3524,6.98698 16.2041,6.98698 1.5457,0 2.2331,0.31228 2.0273,0.92105 -0.2207,0.65324 -2.4165,0.92105 -7.5516,0.92105 -4.1922,0 -7.3311,0.31022 -7.4558,0.73685 -0.1184,0.40526 0.8253,1.4 2.0971,2.21053 1.2719,0.81053 2.272,1.80527 2.2226,2.21053 -0.1201,0.98502 -9.9788,3.24769 -14.3156,3.28559 -1.9009,0.0166 -3.6844,-0.33894 -3.9633,-0.79014 -0.2789,-0.45118 -1.9763,-1.47035 -3.7722,-2.26481 -1.796,-0.79446 -5.1238,-2.74637 -7.3951,-4.33757 -5.8803,-4.11938 -6.8888,-3.91634 -13.648,2.74764 -6.0499,5.96461 -6.7532,7.64484 -4.4104,10.53807 0.9724,1.2011 2.5269,1.75741 6.1748,2.20983 2.6814,0.33255 5.8266,1.12845 6.9893,1.76865 1.1627,0.64019 3.4436,1.81809 5.0687,2.61754 3.4272,1.68611 9.2026,1.91652 9.2026,0.36714 0,-0.75042 0.4402,-0.83279 1.7629,-0.32986 0.9695,0.36866 2.4724,0.48472 3.3397,0.2579 1.8524,-0.48442 4.4757,1.57429 4.4757,3.51241 0,0.71572 1.5382,2.83966 3.4184,4.71988 2.5308,2.53102 3.2032,3.63365 2.5898,4.247 -1.3742,1.37435 -7.4271,-2.08938 -11.55,-6.60959 l -3.6997,-4.05617 -2.4567,2.29511 c -2.8341,2.6476 -5.653,2.93872 -11.4438,1.18187 -5.2989,-1.60757 -6.1001,-1.44761 -7.0418,1.40603 -0.4543,1.37682 -1.4748,3.25124 -2.2675,4.16538 -0.7928,0.91414 -1.4415,1.95112 -1.4415,2.30441 0,0.89342 3.3572,2.07955 5.8859,2.07955 1.1583,0 3.0579,0.80116 4.2215,1.78035 1.1637,0.97919 3.4271,2.00655 5.0299,2.28302 5.855,1.0099 10.0348,2.55419 11.3668,4.19967 0.7499,0.92639 3.1087,2.18965 5.2415,2.80723 7.7479,2.24337 4.3522,4.58958 -5.9425,4.10586 -4.4465,-0.20893 -7.5996,-0.79203 -9.9822,-1.84602 -4.4289,-1.95928 -6.7397,-1.9824 -7.3456,-0.0735 -0.5904,1.8604 0.077,2.95397 1.8018,2.95397 1.9586,0 5.0058,2.66483 4.0906,3.57718 -0.4053,0.40393 -3.1723,1.06784 -6.1489,1.47534 -5.6718,0.77649 -7.5672,1.86608 -9.3949,5.40046 -1.1192,2.16463 -1.1616,5.60098 -0.086,7.03158 0.4975,0.66189 1.0712,0.69647 2.1324,0.12849 1.2159,-0.65081 1.8677,-0.34894 4.0106,1.85759 1.4704,1.51427 3.2781,2.63467 4.2508,2.63467 0.9308,0 2.2967,0.66785 3.0353,1.48411 0.8063,0.8909 1.8643,1.31867 2.647,1.07023 0.7171,-0.22763 1.9202,-0.029 2.6734,0.44144 1.5467,0.96604 9.3785,-0.28508 10.2104,-1.63113 0.2928,-0.47376 2.6653,-0.56314 6.4899,-0.24453 4.669,0.38895 6.9354,0.22309 10.0507,-0.73551 2.2123,-0.68073 7.5038,-1.51466 11.7587,-1.85316 4.255,-0.33851 9.2285,-1.16328 11.052,-1.83282 5.3322,-1.95776 5.8944,-2.07268 5.8944,-1.20493 0,0.82143 -6.5702,7.296 -12.1571,11.98021 -1.6211,1.35904 -3.113,2.68229 -3.3157,2.94055 -0.2026,0.25827 -3.0209,1.77445 -6.2628,3.36929 -3.2419,1.59484 -10.2046,5.09266 -15.4728,7.77294 -5.268,2.68028 -10.5171,5.22854 -11.6644,5.66283 -2.6023,0.985 -2.2449,2.21006 1.1694,4.00817 1.9731,1.0391 3.1183,2.44801 4.4955,5.53071 2.2665,5.07337 3.7334,10.73269 3.1655,12.21259 -0.2329,0.60684 0.2194,2.51954 1.005,4.25045 0.7856,1.7309 1.4355,3.90962 1.4445,4.84159 0.019,2.0181 -1.7831,5.77241 -3.8644,8.04945 -1.3484,1.47528 -1.376,1.68542 -0.2762,2.10745 0.6718,0.25784 2.3723,-0.0774 3.7789,-0.74484 1.4065,-0.66748 3.9448,-1.70316 5.6405,-2.30151 1.6958,-0.59834 3.5938,-1.49794 4.2178,-1.99911 0.7028,-0.56446 0.5868,-0.14894 -0.3048,1.09198 -0.7916,1.10174 -1.8797,2.01359 -2.418,2.02632 -1.7845,0.0422 -7.4944,6.87503 -7.4944,8.96824 0,2.591 5.6206,19.52187 7.4876,22.55499 1.7592,2.85771 2.1043,2.90975 4.3849,0.66097 3.1414,-3.09765 8.1504,-5.88064 8.7726,-4.87397 0.3065,0.49599 0.8882,0.69725 1.2927,0.44726 0.4045,-0.24999 0.9074,0.20322 1.1176,1.00715 0.2102,0.80393 0.9159,1.66651 1.5683,1.91687 0.6524,0.25034 2.1928,1.39556 3.4231,2.54492 1.2303,1.14936 2.8831,2.29485 3.673,2.54556 0.7899,0.25071 1.4361,0.85215 1.4361,1.33655 0,0.4844 0.8834,1.53968 1.9633,2.34509 1.0799,0.80539 2.8594,2.69664 3.9544,4.20275 1.0951,1.50611 2.118,2.6162 2.2732,2.46686 0.1552,-0.14934 1.4427,0.28132 2.8611,0.95703 2.1997,1.04796 2.5416,1.54258 2.3259,3.36493 -0.2473,2.09042 -1.621,4.09178 -2.8259,4.11714 -0.333,0.007 -1.4341,0.89289 -2.4472,1.96866 -1.0131,1.07577 -4.982,4.29055 -8.8197,7.14396 -3.8378,2.8534 -9.9717,8.09148 -13.6308,11.64018 -9.0994,8.82456 -9.7239,9.39765 -14.7578,13.54083 -7.1921,5.91946 -9.3343,7.81329 -14.1834,12.53915 -3.6257,3.53351 -4.605,4.95743 -4.605,6.69569 0,2.38605 -2.6691,5.65068 -14.9428,18.27709 -4.1071,4.22511 -6.6632,6.34622 -6.9996,5.80849 -0.5185,-0.82882 -0.3529,-6.03135 1.2397,-38.9425 0.4313,-8.9158 1.1175,-28.81058 1.5249,-44.21062 0.4072,-15.40003 1.1101,-32.10251 1.5621,-37.11662 0.5916,-6.56308 0.598,-9.55564 0.023,-10.68422 -0.4395,-0.86223 -0.8882,-3.38526 -0.9971,-5.60675 -0.1971,-4.01745 -0.2179,-4.05008 -3.8822,-6.09647 -2.0261,-1.13158 -5.4247,-2.90278 -7.5521,-3.93602 -2.1276,-1.03324 -3.8698,-2.26879 -3.8716,-2.74566 0,-0.47687 -0.9137,-1.87201 -2.0262,-3.10031 -2.6022,-2.87288 -5.3384,-6.74056 -5.3384,-7.54571 0,-0.78249 -4.0863,-3.85262 -5.1278,-3.85262 -0.4216,0 -0.7666,-0.4619 -0.7666,-1.02643 0,-0.56455 -0.5244,-1.2277 -1.1655,-1.47369 -1.6647,-0.63883 -5.7817,-0.55269 -6.6077,0.13825 -0.385,0.32202 -2.6893,1.20957 -5.1208,1.97232 -2.4314,0.76275 -4.7358,1.6598 -5.1207,1.99345 -0.385,0.33364 -1.3601,0.60663 -2.167,0.60663 -1.409,0 -1.4135,-0.0392 -0.1126,-0.99048 1.2351,-0.90318 1.0689,-1.05706 -1.8854,-1.74592 -3.4463,-0.80359 -10.4951,-0.71748 -12.6278,0.15427 -0.8507,0.34775 -1.436,0.12626 -1.7366,-0.65722 -0.2495,-0.64994 -1.2469,-1.18172 -2.2166,-1.18172 -1.3324,0 -1.7671,0.40505 -1.7796,1.65791 l -0.016,1.65789 -1.3574,-1.76559 -1.3574,-1.76557 -0.5351,3.56864 c -0.4267,2.8462 -0.2979,3.74217 0.6369,4.42577 1.3118,0.95917 1.5739,3.67523 0.4234,4.38631 -0.4119,0.25455 -0.5578,0.77211 -0.3241,1.15013 0.2336,0.37802 -0.424,1.01005 -1.4615,1.40453 -2.2602,0.85936 -2.5292,2.96424 -0.3789,2.96424 1.3184,0 1.4863,0.4113 1.3378,3.27911 -0.2527,4.88431 3.201,10.50834 4.8323,7.86871 0.218,-0.35291 1.4481,-0.852 2.7333,-1.10906 1.2853,-0.25707 3.7411,-1.16878 5.4575,-2.026 3.0866,-1.54161 3.1127,-1.58774 2.4012,-4.23305 -0.3955,-1.47095 -1.7109,-4.23754 -2.9231,-6.148 -2.2755,-3.58657 -2.2491,-5.00015 0.093,-5.00015 1.5475,0 5.9272,4.65775 5.9272,6.30346 0,0.60184 0.8383,3.16004 1.8628,5.68489 1.5802,3.89413 3.1731,5.87629 10.4994,13.06434 7.9577,7.80769 12.6686,13.38022 13.7967,16.32005 0.2523,0.65732 -0.1197,1.74458 -0.8451,2.46999 -1.1921,1.19216 -2.5657,1.25151 -17.173,0.74189 -18.2579,-0.63699 -19.989,-0.72257 -29.6212,-1.46446 -6.9466,-0.53503 -7.1394,-0.50715 -8.2475,1.19236 -1.0416,1.59749 -0.9593,2.55602 1.005,11.6876 1.1768,5.47106 3.3392,12.76581 4.8053,16.21056 1.4661,3.44474 3.4364,8.25265 4.3785,10.68423 1.8383,4.74468 8.2962,19.75191 11.0978,25.78953 0.9403,2.02632 3.0155,6.66844 4.6115,10.31581 3.4577,7.9016 16.0016,32.59634 18.8003,37.01175 1.0868,1.71432 1.9759,3.25544 1.9759,3.4247 0,0.36054 3.8428,6.70221 10.324,17.03736 10.2239,16.3032 13.4461,24.998 13.653,36.84218 0.057,3.24212 0.8106,10.37107 1.6752,15.84214 0.8646,5.47106 2.4231,17.07636 3.4633,25.78953 1.0403,8.71318 2.5554,18.82635 3.3671,22.47373 1.5855,7.12482 6.1513,18.34605 9.8938,24.31584 2.0606,3.28689 5.2997,9.73718 9.2506,18.42109 0.7985,1.75517 1.439,5.18277 1.5834,8.4737 0.1906,4.34192 0.7348,6.55282 2.5392,10.31582 1.3287,2.77107 2.4941,6.62341 2.7653,9.1412 0.2579,2.39344 0.9181,5.37766 1.4672,6.63159 0.5492,1.25393 2.589,6.59041 4.5331,11.85885 1.944,5.26842 3.748,9.91054 4.0088,10.3158 0.2608,0.40527 0.544,1.89197 0.6294,3.30379 0.085,1.4118 0.4347,2.8464 0.7762,3.18796 0.3416,0.34156 0.3714,1.83908 0.066,3.32781 -0.4695,2.29103 -0.4184,20.54566 0.152,54.28585 0.093,5.525 -0.3422,9.48833 -1.741,15.84213 -2.4841,11.28285 -2.5981,14.30096 -0.5936,15.70501 0.9695,0.67916 1.2565,1.27238 0.7631,1.57737 -0.4351,0.26887 -0.791,0.13771 -0.791,-0.29149 0,-0.42914 -0.3511,-0.78033 -0.7803,-0.78033 -0.4291,0 -0.5724,0.33638 -0.3184,0.74746 0.6781,1.09708 -1.5629,11.95742 -4.7795,23.16268 -0.868,3.02437 -1.1858,5.29614 -0.7759,5.54946 -0.1138,1.04971 -0.1834,-0.38367 -1.5241,1.77042 -0.5511,0.90337 -0.6789,3.02563 -0.3661,6.07896 0,0 0.9721,4.3263 -0.8661,1.74374 -0.4075,0 -0.9611,1.24342 -1.2304,2.76316 -0.2694,1.51974 -0.6596,3.42632 -0.8672,4.23685 1.1624,3.97181 0.706,1.77506 -4.0686,7.04415 -0.3493,0.22688 -0.77,1.81426 -0.935,3.52757 -6.9991,36.00711 37.6298,60.40902 73.6137,62.08638 -3.1808,0.37372 41.7736,1.00011 84.8986,1.183 l 37.0068,0.15701 -0.3713,-8.63072 z m -2.9096,7.21148 c 0.2504,-0.40526 -0.061,-0.73684 -0.6934,-0.73684 -0.8489,0 -1.1487,-0.76911 -1.1487,-2.94737 0,-2.62111 0.1961,-2.94738 1.7709,-2.94738 1.5998,0 1.7955,0.3559 2.0263,3.68466 0.2188,3.15804 0.065,3.68466 -1.0776,3.68422 -0.7331,-2.2e-4 -1.128,-0.33202 -0.8775,-0.73729 z m -2.3782,-33.15796 c 0,-1.82369 0.1438,-2.56974 0.3194,-1.6579 0.1755,0.91184 0.1755,2.40395 0,3.3158 -0.1756,0.91184 -0.3194,0.16579 -0.3194,-1.6579 z m -0.8211,-5.89475 c 0,-1.01316 0.1672,-1.42763 0.3717,-0.92105 0.2043,0.50658 0.2043,1.33552 0,1.8421 -0.2045,0.50658 -0.3717,0.0921 -0.3717,-0.92105 z m 2.0758,-6.04469 c -0.1954,-1.90615 -0.083,-3.19327 0.2502,-2.86029 0.3328,0.33305 0.4927,1.89259 0.3553,3.46575 l -0.25,2.86028 z m -0.6604,-26.80623 c 0.035,-0.85842 0.2099,-1.03299 0.4452,-0.44521 0.2128,0.53194 0.1866,1.16746 -0.058,1.41232 -0.2448,0.24485 -0.4189,-0.1904 -0.3869,-0.96711 z m -175.4047,-36.96502 c 0.01,-0.30395 0.3325,-1.05 0.7255,-1.6579 0.5775,-0.89378 0.7163,-0.78798 0.7255,0.55264 0.01,0.91184 -0.3203,1.6579 -0.7255,1.6579 -0.4052,0 -0.7317,-0.24869 -0.7255,-0.55264 z m 1.6853,-2.98621 c -0.5636,-0.35316 -0.6445,-0.93703 -0.2242,-1.61715 0.789,-1.27657 1.7063,-0.5821 1.3557,1.02629 -0.1485,0.68091 -0.6062,0.91994 -1.1315,0.59086 z m 0.3227,-14.59864 c 0.213,-1.97968 0.5088,-3.73756 0.6575,-3.90645 0.5873,-0.66699 0.2066,5.52987 -0.3985,6.4854 -0.395,0.62382 -0.4956,-0.37844 -0.259,-2.57895 z m 5.6389,-15.32664 c -0.22,-0.5737 -0.2593,-1.98292 -0.087,-3.13159 0.3028,-2.02108 0.3166,-2.01113 0.4234,0.30617 0.06,1.3171 0.4419,2.39474 0.8471,2.39474 0.4052,0 0.7368,0.33158 0.7368,0.73684 0,1.11536 -1.4641,0.88193 -1.9201,-0.30616 z m -0.2565,-7.86219 c 0.4523,-0.84531 0.9691,-1.39014 1.1484,-1.21079 0.5157,0.51572 -0.5296,2.74755 -1.2869,2.74755 -0.3764,0 -0.3141,-0.69102 0.1385,-1.53676 z m -2.2442,-2.14746 c 0,-0.40527 0.3512,-0.73684 0.7803,-0.73684 0.4292,0 0.5754,0.33157 0.325,0.73684 -0.2505,0.40527 -0.6016,0.73684 -0.7803,0.73684 -0.1788,0 -0.325,-0.33157 -0.325,-0.73684 z m 2.2104,-6.58812 c 0,-1.77915 0.4097,-1.95863 0.9942,-0.43547 0.2283,0.59492 0.098,1.2776 -0.2896,1.51716 -0.3875,0.23954 -0.7046,-0.24721 -0.7046,-1.08169 z m -2.9472,-8.14875 c 0,-0.40527 0.3316,-0.73685 0.7368,-0.73685 0.4052,0 0.7368,0.33158 0.7368,0.73685 0,0.40526 -0.3316,0.73684 -0.7368,0.73684 -0.4052,0 -0.7368,-0.33158 -0.7368,-0.73684 z m 10.3152,-0.42983 c 0,-0.64167 0.3938,-1.03541 0.875,-0.875 1.3661,0.45542 1.5927,2.04167 0.2916,2.04167 -0.6416,0 -1.1666,-0.525 -1.1666,-1.16667 z m -7.1821,-7.30703 c -1.621,0 0.159,-2.19746 0.3352,-1.28089 0.1762,0.91657 0.1696,2.24289 -0.015,2.94738 -0.1844,0.70449 1.3005,-1.66649 -0.3205,-1.66649 z m 0.015,-6.26318 c 0,-1.82368 0.1437,-2.56973 0.3193,-1.65789 0.1756,0.91184 0.1756,2.40395 0,3.3158 -0.1756,0.91184 -0.3193,0.16579 -0.3193,-1.65791 z m 1.2729,-17.68424 c 0,-1.62106 0.3315,-2.94738 0.7368,-2.94738 0.4052,0 0.7368,1.32632 0.7368,2.94738 0,1.62106 -0.3316,2.94738 -0.7368,2.94738 -0.4053,0 -0.7368,-1.32632 -0.7368,-2.94738 z m 183.0942,-46.4374 c -2.3525,0 -6.0048,-3.06186 -8.8415,-4.14751 -2.8367,-1.08564 -7.8628,-3.24089 -11.1692,-4.78946 l -6.0116,-2.81558 -0.049,-5.20916 c -0.026,-2.86504 -0.2035,-5.45975 -0.3929,-5.76603 -0.1893,-0.30628 -0.01,-3.85235 0.4114,-7.88017 0.7012,-6.7954 1.2731,-16.76022 1.3412,-23.37276 0.032,-3.12469 1.5474,-4.26344 3.8003,-2.85633 0.7514,0.46922 2.3051,0.85312 3.4527,0.85312 2.7888,0 9.2042,1.94776 12.5454,3.80889 3.0147,1.67927 7.4919,6.21045 7.4919,7.58233 0,1.3179 7.3291,6.1274 11.0957,7.28125 5.3713,1.64544 9.8838,4.06791 12.3853,6.64897 3.3061,3.4114 1.9863,6.28063 -1.9396,4.2165 -2.2694,-1.19313 -18.1265,-6.15761 -21.3572,-6.68644 -2.2125,-0.36214 -3.1314,-0.256 -3.1314,0.3617 0,0.48084 -0.6447,1.45771 -1.4326,2.17082 -1.1837,1.0713 -2.19,1.20867 -5.7915,0.79064 -4.6817,-0.5434 -9.8162,0.5313 -11.3461,2.37485 -1.8422,2.21992 0.3384,3.28512 11.201,5.47151 6.0754,1.22283 11.194,2.65019 11.9466,3.33139 3.3863,3.06472 -0.08,5.21938 -6.6845,4.15563 -3.3699,-0.54275 -4.2923,-0.49809 -4.0264,0.19497 0.1898,0.49446 1.2612,1.27855 2.3811,1.74242 2.1366,0.88506 5.3724,3.6987 7.7232,6.71559 0.7657,0.98256 1.8759,2.346 2.4672,3.02989 0.9552,1.10485 0.8822,1.4509 -0.6553,3.10501 l -1.7302,1.86159 -3.6841,-2.17363 z m 54.9497,-11.46624 c 0.035,-0.85838 0.2099,-1.03297 0.4451,-0.44517 0.2128,0.5319 0.1867,1.16744 -0.058,1.41228 -0.2448,0.24485 -0.4189,-0.19035 -0.3869,-0.96711 z m -26.9513,-41.60524 c -1.4482,0 -2.7127,-1.43269 -3.3265,-1.43483 -0.6139,-0.002 -2.3768,-0.67959 -3.9176,-1.50546 -5.6105,-3.00723 -11.1724,-3.89555 -24.8066,-3.96194 -12.0295,-0.0586 -13.1142,-0.17849 -16.1778,-1.78832 -5.3048,-2.78749 -5.2576,-2.62455 -4.843,-16.69558 0.2031,-6.88948 0.5713,-22.47372 0.8182,-34.63165 0.3143,-15.48025 0.7772,-23.54074 1.5443,-26.89479 1.0116,-4.42218 3.0432,-19.54682 3.1426,-23.39479 0.074,-2.88131 2.084,-1.89289 2.6217,1.28948 0.2739,1.62106 0.8003,2.94738 1.17,2.94738 0.3695,0 0.672,-0.33159 0.672,-0.73685 0,-0.40526 0.4974,-0.73684 1.1052,-0.73684 0.6079,0 1.1052,0.42731 1.1052,0.94958 0,0.52226 1.8236,2.05485 4.0524,3.40573 3.6625,2.21989 4.3837,3.02349 4.1538,4.62851 -0.041,0.28057 0.9152,1.49848 2.1232,2.70648 1.2079,1.208 2.1962,2.32353 2.1962,2.47895 0,0.15543 1.492,1.88487 3.3156,3.84321 1.8235,1.95833 3.3155,3.21418 3.3155,2.79078 0,-0.51294 0.6035,-0.48561 1.8085,0.082 1.2197,0.57452 1.8791,1.56569 2.0261,3.04546 0.1411,1.42118 0.818,2.4912 1.922,3.03846 0.9373,0.46461 1.6833,1.05243 1.6578,1.30628 -0.2281,2.26884 0.1259,3.40892 1.0588,3.40892 1.818,0 1.2308,0.96331 -2.2457,3.68421 -6.0113,4.70477 -5.144,7.36844 2.3992,7.36844 4.8492,0 14.2141,2.04338 14.2141,3.10146 0,0.32053 0.6446,0.58276 1.4324,0.58276 0.788,0 2.363,0.85569 3.4999,1.90155 1.137,1.04586 1.6528,1.68945 1.1463,1.43021 -0.5065,-0.25925 -0.9211,-0.0842 -0.9211,0.38885 0,0.52507 0.6483,0.69749 1.664,0.44257 1.9414,-0.48729 4.1181,0.52181 2.8355,1.31453 -1.5127,0.93493 -0.8552,2.06046 0.9403,1.60979 1.4378,-0.36089 1.916,-0.0539 2.6405,1.69538 0.6744,1.6282 0.6817,2.51551 0.031,3.73198 -0.7587,1.41765 -1.1977,1.52801 -3.93,0.98792 -1.6915,-0.33442 -8.878,-0.60802 -15.9697,-0.60802 -11.3688,0 -13.5264,0.19877 -18.2402,1.68047 -4.5857,1.44139 -5.6177,2.09052 -7.2536,4.56274 -1.049,1.58526 -1.689,3.23536 -1.4224,3.66689 1.159,1.87528 5.1953,3.14011 9.8004,3.07102 6.8862,-0.1033 14.8336,1.71753 17.0141,3.89803 l 1.7857,1.78579 -2.1314,1.98937 c -2.0292,1.89401 -2.3896,1.96791 -7.5202,1.5414 -4.0747,-0.33873 -5.9165,-0.17513 -7.5522,0.67078 -1.1898,0.61533 -2.1634,1.26753 -2.1634,1.44935 0,1.02422 4.7325,2.4332 9.21,2.74206 11.6021,0.80031 19.8781,8.53708 19.3765,18.11414 -0.187,3.5731 -0.4387,4.21808 -1.6933,4.34184 -0.8105,0.0799 -2.2358,-1.2856 -3.684,-1.2856 z m -121.6011,-97.78102 c 0,2.04535 -1.8282,-4.82632 -2.5266,-6.44738 -0.6986,-1.62105 -2.8385,-7.92107 -4.7556,-14.00003 -1.9171,-6.07896 -4.41,-13.37371 -5.5398,-16.21055 -2.3336,-5.86002 -5.2556,-14.29632 -7.0185,-20.2632 -0.6584,-2.22896 -1.3827,-4.55002 -1.6095,-5.15792 -0.2266,-0.60788 -1.0109,1.71316 -1.7426,5.15792 -1.2827,6.03835 -3.695,14.25676 -5.0827,17.31582 -0.8749,1.92871 -2.2711,9.57439 -2.2763,12.46502 0,1.24952 -0.3495,3.51528 -0.7715,5.03502 -0.6384,2.29873 -1.0933,2.76316 -2.7066,2.76316 -2.536,0 -5.8882,-1.09689 -13.0958,-4.28514 -6.532,-2.88945 -9.1662,-3.15147 -16.9463,-1.6857 -6.6103,1.24537 -8.7696,0.95262 -9.0794,-1.23101 -0.2718,-1.91546 3.6395,-9.27115 7.5331,-14.16662 1.4504,-1.82368 2.6403,-3.56328 2.6443,-3.86576 0.01,-0.57252 7.2383,-10.96202 8.0788,-11.60796 0.2637,-0.20262 1.4454,-1.69474 2.6261,-3.31579 1.1806,-1.62105 3.2353,-4.19176 4.5659,-5.71266 1.3307,-1.52092 2.4195,-3.29819 2.4195,-3.9495 0,-1.83843 4.1564,-9.19503 7.0031,-12.39499 1.4107,-1.58572 2.474,-2.974 2.3629,-3.08507 -0.111,-0.11106 -2.3466,0.15135 -4.9682,0.58314 -3.4276,0.56459 -5.339,0.55749 -6.8056,-0.0253 -2.5739,-1.02273 -3.8451,-4.07737 -2.7808,-6.6828 1.6793,-4.11143 3.0491,-10.7093 2.277,-10.96673 -0.8493,-0.28308 -1.0669,-10.26753 -0.3066,-14.06874 0.2561,-1.28085 1.0384,-2.63533 1.7383,-3.00997 1.7023,-0.91105 6.6375,-0.0598 6.6375,1.14485 0,0.52546 0.9118,1.63899 2.0262,2.47453 1.1144,0.83552 2.4266,1.85433 2.9161,2.26401 0.4895,0.40967 1.1761,0.74486 1.526,0.74486 0.8844,0 7.5309,6.44829 7.5309,7.30639 0,0.38477 0.746,0.92355 1.6578,1.19729 1.999,0.60017 6.8359,5.73513 5.7447,6.09886 -0.4242,0.14143 -0.7714,0.55288 -0.7714,0.91434 0,0.36784 0.8382,0.33849 1.9038,-0.0667 2.4594,-0.93509 3.0918,-0.4838 3.6745,2.62187 0.2627,1.40065 0.7728,2.3642 1.1337,2.14119 0.3607,-0.223 0.656,-0.0642 0.656,0.35287 0,0.41709 1.3266,1.51428 2.9481,2.43823 1.6213,0.92394 3.1356,2.26016 3.3651,2.96938 0.2295,0.70921 0.9278,1.28947 1.5516,1.28947 0.6618,0 0.9719,0.42363 0.7443,1.01674 -0.2146,0.55921 0.6618,2.54244 1.9474,4.4072 7.3003,10.58887 9.9627,14.75332 18.2016,28.47087 4.9898,8.30791 11.0283,18.07669 13.4187,21.70839 4.0134,6.09711 4.2469,6.67587 3.0479,7.55265 -0.7142,0.52226 -1.8153,0.97506 -2.447,1.00626 -6.7011,0.33087 -13.5456,1.43902 -14.8262,2.40042 -1.0579,0.79406 -3.4775,4.81355 -7.8136,12.98032 -0.9577,1.80373 -2.0035,3.46164 -2.3241,3.68422 -0.3205,0.22257 -1.0186,1.48232 -1.5512,2.79943 -1.3509,3.33989 -4.135,-5.45504 -4.135,-1.10527 z m -21.706,-82.30761 c 0,-1.46024 -1.9703,-4.08731 -3.0654,-4.08731 -1.8111,0 -1.7305,1.25531 0.1183,1.84211 0.8104,0.25726 1.4735,0.94276 1.4735,1.52335 0,0.58058 0.3316,1.05561 0.7368,1.05561 0.4053,0 0.7368,-0.15019 0.7368,-0.33376 z m 110.3217,-40.25171 c 0.2605,-0.99636 0.5945,-1.33037 0.7784,-0.77851 0.1772,0.53159 -0.028,1.31686 -0.4563,1.74503 -0.5467,0.5468 -0.6426,0.25911 -0.3221,-0.96652 z m 1.6716,-3.62515 c 0,-0.40527 0.3511,-0.73684 0.7803,-0.73684 0.4292,0 0.5754,0.33157 0.3249,0.73684 -0.2504,0.40526 -0.6016,0.73684 -0.7802,0.73684 -0.1788,0 -0.325,-0.33158 -0.325,-0.73684 z m 4.6744,-11.60529 c 1.8937,-2.99243 4.5356,-3.77927 4.5356,-1.35088 0,0.77675 -0.4147,1.55052 -0.9215,1.71948 -0.585,0.195 -0.758,-0.11892 -0.4738,-0.85966 0.7552,-1.96801 -0.7293,-1.29108 -2.2886,1.04369 -2.146,3.21289 -2.9178,2.71206 -0.8517,-0.55263 z m -144.6663,-29.65796 c 0,-0.40526 0.3511,-0.73684 0.7803,-0.73684 0.4292,0 0.5754,0.33158 0.3249,0.73684 -0.2504,0.40526 -0.6016,0.73685 -0.7802,0.73685 -0.1788,0 -0.325,-0.33159 -0.325,-0.73685 z m 9.1591,-85.5338 c 0.3048,-0.98019 1.0192,-3.42141 1.5873,-5.42492 1.4592,-5.14522 2.0044,-5.43282 5.1173,-2.69947 1.4724,1.29281 3.6652,2.54823 4.8731,2.78981 1.2078,0.24158 1.9267,0.69399 1.5974,1.00534 -1.2547,1.18643 -6.5865,3.88858 -8.7034,4.41084 -1.2158,0.29994 -2.8439,0.80527 -3.6183,1.12297 -1.2268,0.50338 -1.3366,0.34855 -0.8534,-1.20457 z m 11.1028,-17.17201 c 3.2958,0 -4.4561,-4.1287 -3.5029,-6.86318 0.4965,-1.42441 0.4798,-3.3542 -0.052,-5.9482 -0.5183,-2.53068 -0.5437,-4.53255 -0.075,-5.87192 0.6202,-1.77045 1.1878,-2.08036 4.4058,-2.40606 2.257,-0.22844 4.511,-1.01665 5.7945,-2.02632 1.3822,-1.08728 3.1098,-1.65246 5.0515,-1.65246 3.3521,0 4.895,1.43491 4.9318,4.58685 0.021,1.7967 -0.1897,1.96721 -2.0029,1.62107 -1.2598,-0.24052 -3.13,0.18445 -4.9449,1.1237 -1.6054,0.83077 -3.3564,1.5105 -3.8913,1.5105 -1.7104,0 -1.8094,1.9825 -0.2515,5.03648 0.8331,1.63285 1.8509,3.17667 2.2618,3.43072 1.5299,0.9455 0.6644,3.56799 -1.9754,5.98609 -3.0896,2.8301 -8.964,1.47273 -5.7504,1.47273 z m -45.3459,-2.38088 c -0.4032,-1.06071 -1.7212,-2.85165 -2.9289,-3.97985 -2.4002,-2.2422 -2.8133,-4.01274 -1.0906,-4.67384 2.5669,-0.98507 3.7304,0.64301 5.3247,7.45068 0.8056,3.44023 -0.1276,4.30043 -1.3052,1.20301 z m 0.5855,-37.68221 c -0.7092,-0.15775 -1.2894,-0.5941 -1.2894,-0.96964 0,-0.94124 2.0128,-0.86175 2.609,0.10305 0.6215,1.00549 0.2883,1.22426 -1.3196,0.86659 z m 3.1527,-1.62368 c 0,-0.70532 -0.8839,-0.88544 -0.6396,-1.12983 0.6818,-0.68181 4.3478,0.43128 3.8853,1.17965 -0.5213,0.84346 -3.2457,1.58284 -3.2457,-0.0498 z m -50.8604,707.75304 c 0,-0.17869 -0.3315,-0.52986 -0.7368,-0.78032 -0.4052,-0.25045 -0.7368,-0.10426 -0.7368,0.32495 0,0.42914 0.3316,0.78032 0.7368,0.78032 0.4053,0 0.7368,-0.14619 0.7368,-0.32495 z m 0.5079,-9.80665 c -0.1853,-0.70921 -0.3369,-0.12895 -0.3369,1.28948 0,1.41842 0.1516,1.99868 0.3369,1.28947 0.1853,-0.70921 0.1853,-1.86974 0,-2.57895 z m 1.5499,-29.25269 c -0.3213,-0.38501 -0.5247,3.92552 -0.4519,9.57896 l 0.1322,10.27897 0.4519,-9.57897 c 0.2485,-5.26843 0.1891,-9.89397 -0.1322,-10.27896 z m 1.0145,-12.36439 c -0.3286,-0.32856 -0.6176,1.64758 -0.6424,4.39144 l -0.045,4.98873 0.6422,-4.39145 c 0.3534,-2.41515 0.3736,-4.66016 0.045,-4.98872 z m 4.0138,-9.17584 c 0.5602,-0.21501 0.4762,-0.90647 0.4762,-1.56108 0,-2.43564 -2.2902,1.61516 -2.7027,4.64359 l -0.4015,2.94738 0.8046,-2.81946 c 0.4426,-1.55076 1.2632,-2.99541 1.8234,-3.21043 z m -4.498,-525.79591 c 0.6751,-2.12287 2.2122,-6.28832 3.4161,-9.25657 2.3665,-5.83532 2.4651,-7.99851 0.4218,-9.26482 -1.8007,-1.11603 -2.5719,0.29144 -2.5719,4.69393 0,1.91603 -0.431,4.27942 -0.9577,5.252 -0.884,1.63244 -1.5869,4.51022 -2.6613,10.89522 -0.6316,3.75394 0.9029,2.24117 2.353,-2.31976 z m -24.031,-23.82749 c 2.9333,-1.05329 5.5219,-1.72624 5.7527,-1.49546 0.2307,0.23078 1.3371,-0.23377 2.4584,-1.03233 1.1214,-0.79855 2.6509,-1.44856 3.3988,-1.44445 2.3035,0.0127 10.5698,-3.17672 10.5698,-4.07809 0,-1.26626 -3.3613,-2.56097 -6.6488,-2.56097 -2.2756,0 -3.1541,0.39444 -4.1026,1.84212 -0.6637,1.01316 -1.6977,1.84211 -2.2978,1.84211 -0.6,0 -1.9709,0.62154 -3.0466,1.3812 -1.0756,0.75968 -4.3595,2.58753 -7.2975,4.06191 -4.9722,2.49524 -6.2301,3.39901 -4.7306,3.39901 0.3361,0 3.011,-0.86178 5.9442,-1.91505 z m 6.7069,-14.42741 c 0,-2.25957 -1.8422,-5.77904 -2.8271,-5.40106 -0.574,0.22026 -1.499,0.0226 -2.0555,-0.4393 -0.7856,-0.65203 -1.0117,-0.5783 -1.0117,0.32978 0,0.64327 0.5933,1.48713 1.3185,1.87529 0.7252,0.38814 1.7759,1.56033 2.3349,2.60487 1.0605,1.98177 2.2409,2.52453 2.2409,1.03042 z m 0.7368,-22.71232 c 0,-0.80939 -0.3315,-1.47162 -0.7368,-1.47162 -0.4052,0 -0.7368,0.40049 -0.7368,0.88998 0,0.4895 -1.133,2.0645 -2.5178,3.50001 -2.1718,2.25137 -3.039,4.45902 -2.7213,6.92794 0.1575,1.2238 6.7127,-8.39147 6.7127,-9.84631 z m -247.564,-8.24307 c 0,-1.29271 -0.3319,-4.19404 -0.7374,-6.44738 -0.4057,-2.25335 -1.4149,-9.23648 -2.243,-15.51808 -0.8281,-6.28159 -1.683,-12.33291 -1.8999,-13.44739 -0.2918,-1.49937 -0.1014,-2.02632 0.7327,-2.02632 0.6199,0 1.3923,0.43776 1.7163,0.9728 0.7774,1.28339 9.2815,6.46296 12.6613,7.71156 1.4651,0.54127 4.819,1.6452 7.4531,2.45321 2.6341,0.80799 5.7838,1.81723 6.9995,2.24272 3.2279,1.12973 21.319,1.62598 26.8932,0.73769 11.094,-1.76788 18.4266,-4.13781 24.3263,-7.86235 1.5982,-1.00901 3.1452,-1.83457 3.4375,-1.83457 0.619,0 11.2777,10.96369 16.6551,17.13161 2.0317,2.33028 4.0586,4.23542 4.5045,4.23366 1.0712,-0.004 16.7655,-14.04718 16.4937,-14.7584 -0.1907,-0.49926 -6.0536,-7.04709 -15.5492,-17.36606 l -3.5499,-3.85771 2.0763,-3.14789 c 1.8353,-2.78245 2.1041,-2.95676 2.316,-1.50161 0.1909,1.31118 0.5657,1.54865 1.842,1.1667 0.8813,-0.26375 2.0878,-0.94134 2.6812,-1.50573 0.9437,-0.89754 0.9205,-1.0262 -0.1841,-1.0262 -0.6948,0 -1.2632,-0.33157 -1.2632,-0.73683 0,-0.40528 0.5026,-0.73685 1.117,-0.73685 0.7871,0 1.0671,-0.65247 0.9484,-2.21044 -0.1403,-1.84105 -0.4132,-2.13273 -1.6334,-1.74546 -1.3838,0.43925 -1.4018,0.36786 -0.3248,-1.28956 4.6829,-7.20623 7.4337,-29.60905 5.4041,-44.01089 -1.2687,-9.00343 -1.9904,-11.70348 -5.3146,-19.88792 -7.7457,-19.070272 -19.6738,-32.922747 -41.2437,-47.897659 -2.3351,-1.621233 -8.3452,-4.965132 -13.8444,-7.70294 -4.8102,-2.394794 -7.4953,-3.550243 -16.3937,-7.054814 -1.9249,-0.758095 -7.8101,-2.431647 -13.0782,-3.719005 -5.2681,-1.287357 -11.402,-2.849656 -13.6308,-3.471775 -2.2288,-0.622119 -5.1886,-1.020921 -6.5773,-0.886269 l -2.5251,0.244858 1.7883,1.929186 c 1.0162,1.096266 4.492,2.93721 8.0509,4.264035 17.8616,6.659004 30.9896,14.904106 43.5207,27.333165 10.3372,10.25312 15.0084,16.43775 19.7571,26.157949 4.0465,8.282949 5.4001,12.202419 7.0505,20.416349 2.1,10.45185 1.0223,25.47784 -2.522,35.16328 -2.1004,5.73958 -2.6508,6.04828 -5.3484,2.99944 -1.2551,-1.41842 -6.9874,-7.55264 -12.7387,-13.6316 -5.7512,-6.07897 -12.2282,-13.04214 -14.3932,-15.47372 -2.165,-2.43159 -4.3524,-4.84376 -4.8608,-5.3604 -0.5085,-0.51663 -2.1531,-2.43869 -3.6548,-4.2713 l -2.73,-3.33196 2.5758,-2.36029 c 1.4168,-1.29815 6.3393,-5.65536 10.9389,-9.68266 4.5996,-4.027295 8.0426,-7.429103 7.6512,-7.559576 -0.6751,-0.225069 -8.8008,-2.496308 -23.5107,-6.571592 -3.6472,-1.010418 -8.6796,-2.366056 -11.1831,-3.012534 l -4.5519,-1.175413 -2.4477,2.029268 c -7.3955,6.131431 -23.813,20.299437 -35.4234,30.570027 -0.3063,0.27083 0.029,1.13718 0.7433,1.92521 0.7151,0.78803 2.4576,2.91305 3.8723,4.72226 1.4146,1.80921 3.3604,4.13027 4.3239,5.15791 0.9633,1.02763 3.0609,3.62934 4.6611,5.78158 1.6004,2.15223 3.3818,4.09428 3.9587,4.31568 0.5769,0.22139 1.0489,0.7125 1.0489,1.09135 0,0.37886 0.5852,1.31699 1.3004,2.08476 1.2659,1.35888 1.4613,1.26518 7.3636,-3.53082 8.7058,-7.07394 10.2727,-8.24255 11.0518,-8.24255 0.3819,0 2.431,1.90659 4.5538,4.23685 2.1227,2.33027 6.9007,7.38686 10.6178,11.23687 3.7171,3.85 9.7387,10.28872 13.3811,14.30826 3.6426,4.01953 6.9561,7.6669 7.3633,8.10527 0.4072,0.43838 2.6464,2.9904 4.9759,5.67114 l 4.2355,4.8741 -2.7819,1.84115 c -4.2062,2.78369 -8.8353,5.01664 -12.9067,6.22576 -4.4952,1.33501 -19.1865,1.46351 -23.1577,0.20256 -9.8408,-3.12472 -13.7787,-4.84756 -19.1291,-8.36921 l -6.0261,-3.9664 -8.9563,-0.10749 -8.9561,-0.10748 0.5219,30.056 c 0.2872,16.5308 0.6662,30.30468 0.8425,30.60863 0.1762,0.30395 4.9427,0.55265 10.5921,0.55264 h 10.2718 z m 240.9329,-8.7131 c 0,-0.86757 0.9416,-2.05719 2.2658,-2.86251 1.2461,-0.75789 2.7569,-2.07934 3.3573,-2.93655 0.6004,-0.85719 1.5347,-1.55855 2.0762,-1.55855 1.2458,0 1.879,-1.63446 1.879,-4.84975 0,-2.9137 -1.1027,-3.3598 -1.7666,-0.71463 -0.249,0.99223 -1.3618,2.23977 -2.4728,2.77231 -1.1111,0.53255 -2.684,2.23454 -3.4953,3.78221 -0.8114,1.54766 -2.0555,3.13503 -2.7646,3.52747 -1.8646,1.03185 -1.6309,4.32452 0.307,4.32452 0.3377,0 0.614,-0.66803 0.614,-1.48452 z m 152.1578,-2.72954 c 2.9617,-3.14011 5.3023,-8.806 5.9641,-14.43705 0.4141,-3.52369 0.1487,-4.56416 -2.862,-11.22165 -4.7924,-10.59729 -7.3684,-18.97457 -8.2609,-26.86421 -0.7638,-6.7528 -3.6389,-15.80775 -7.1355,-22.47373 -1.8541,-3.53448 -7.2226,-9.24072 -11.2895,-11.9997 -5.3748,-3.64625 -13.9141,-10.74379 -20.6331,-17.14941 -6.0646,-5.78168 -13.9374,-12.23792 -17.6659,-14.48716 -5.4109,-3.264121 -18.4774,-9.237145 -22.4896,-10.280574 -6.0373,-1.570082 -28.2689,-1.772434 -34.9979,-0.318545 -6.0784,1.313291 -12.4422,4.667123 -16.4377,8.662945 -4.4286,4.428874 -7.8451,6.512054 -14.1774,8.644544 -6.108,2.05696 -9.3273,4.79496 -9.9993,8.50428 -0.2625,1.44875 -1.0955,3.86431 -1.8511,5.3679 -1.5962,3.176 -1.6284,3.50128 -0.6099,6.18033 1.0637,2.79796 2.3704,1.28728 2.3158,-2.67721 -0.028,-2.03587 0.5429,-4.00799 1.6707,-5.77021 3.4993,-5.46743 6.6619,-7.45503 15.5114,-9.74855 2.0261,-0.52513 5.6052,-2.13313 7.9534,-3.57334 6.9774,-4.27942 7.3715,-4.43847 11.0269,-4.44979 1.9292,-0.006 6.5545,-0.68959 10.2785,-1.519144 7.6311,-1.699927 12.8866,-1.4494 18.04,0.859974 1.6999,0.76184 3.5778,1.38515 4.1728,1.38515 1.1326,0 9.2665,6.01164 17.4189,12.87417 3.0124,2.53567 7.1129,5.02741 11.0521,6.7159 3.4444,1.47647 7.6536,3.30956 9.3537,4.07355 1.6999,0.76399 3.3947,1.38906 3.7658,1.38906 1.0294,0 6.8631,6.00114 9.381,9.65034 1.2313,1.78443 4.381,4.83905 6.9996,6.78804 8.0971,6.02674 10.8314,9.13406 12.5304,14.24022 0.8435,2.53469 3.4574,7.69394 5.8088,11.46502 2.3514,3.77107 4.6968,8.15957 5.212,9.75222 0.8643,2.6722 0.8151,2.99415 -0.6379,4.17075 -2.3377,1.89317 -1.9544,4.83298 1.3728,10.52696 1.6209,2.77404 2.9472,5.32686 2.9472,5.67293 0,0.34606 0.6148,0.95825 1.3662,1.36043 1.229,0.65779 3.4866,8.15622 3.2099,10.66173 -0.1442,1.30703 -1.6115,8.06331 -2.0575,9.47472 -0.6684,2.11514 0.9971,1.47127 3.7532,-1.45089 z m -150.8768,-11.86093 c -0.9455,-3.22582 -0.9175,-3.76854 0.3138,-6.06458 0.7438,-1.38693 1.3524,-3.81406 1.3524,-5.3936 0,-1.57954 0.6205,-3.90578 1.3789,-5.16941 2.0556,-3.4248 2.6041,-6.35014 1.1908,-6.35014 -0.6283,0 -1.3172,0.58027 -1.531,1.28948 -0.2137,0.70921 -1.3323,3.27896 -2.4858,5.71054 -2.8744,6.05917 -3.2924,9.44885 -1.9036,15.43745 1.3128,5.66119 2.0794,7.33156 2.4669,5.37551 0.1408,-0.7108 -0.2112,-2.88665 -0.7824,-4.83525 z m -0.7739,-34.58301 c -0.1122,-1.63915 0.3188,-2.22773 2.2558,-3.08036 2.7146,-1.19485 3.2592,-2.66535 0.7368,-1.98935 -0.9118,0.24437 -2.5695,0.44884 -3.6839,0.45437 -2.2774,0.0113 -2.6487,1.52178 -1.1712,4.76488 1.1229,2.46445 2.0364,2.3911 1.8625,-0.14954 z m 45.5059,-12.7627 c 0.4343,-0.42478 -0.3349,-0.72666 -2.0262,-0.79523 -1.4994,-0.0608 -3.113,-0.14368 -3.5858,-0.18421 -1.437,-0.12318 -1.5259,1.61941 -0.1022,2.00345 1.6571,0.44695 4.7831,-0.11324 5.7142,-1.02401 z"
       id="path1537"
       sodipodi:nodetypes="ccccccsssssssssssssssssssssscssssssssssssssssssssssssssssssssssssssscsssssssssssssssssssssssssssscssssssssssssssssssssssssssssssssssssssssssssssssssssssssssssssssssssssscsssssssssssssssssssssssssssssssssssssssssssssssssssssssssssssscssssssssssssssscssssssssssssssccccssssssssssssssssssssssssssssssssssssssssssssssssssssccccsccccscccsssssssssssssssssscscssscscscsssssssssscssssssssssssssssssssssssssssssssssssssssssccscsssssssssssssssssssssccsssssssssssssssssssscssssssscsssssssssssssssssssscssssssssssssssssscssssssssssssssssssssssssssssssssssssssssssssssssssssssssssssssssssssssssssssssssssssssscsssssssssssssssssssssssssssssscssccsssccsssscsssssssssssssssssssssssssssssssssssssssssssssssssscsssssssssssssssssscssssssssssscssssscsscssssssssssssscsssscccssscssssssssssssssssssssssssssssssssssssssssssssssssssssssssssssssssssssssssssss" />
  </g>
</svg>
