<?xml version="1.0" encoding="UTF-8" standalone="no"?>
<!-- Created with Inkscape (http://www.inkscape.org/) -->

<svg
   version="1.1"
   id="svg1262"
   width="476.48691"
   height="999.99994"
   viewBox="0 0 476.48691 999.99994"
   sodipodi:docname="lenin_inv.svg"
   inkscape:version="1.2.1 (9c6d41e410, 2022-07-14)"
   xmlns:inkscape="http://www.inkscape.org/namespaces/inkscape"
   xmlns:sodipodi="http://sodipodi.sourceforge.net/DTD/sodipodi-0.dtd"
   xmlns="http://www.w3.org/2000/svg"
   xmlns:svg="http://www.w3.org/2000/svg">
  <defs
     id="defs1266" />
  <sodipodi:namedview
     id="namedview1264"
     pagecolor="#505050"
     bordercolor="#ffffff"
     borderopacity="1"
     inkscape:pageshadow="0"
     inkscape:pageopacity="0"
     inkscape:pagecheckerboard="1"
     showgrid="false"
     fit-margin-top="0"
     fit-margin-left="0"
     fit-margin-right="0"
     fit-margin-bottom="0"
     showguides="true"
     inkscape:guide-bbox="true"
     inkscape:zoom="5.6891003"
     inkscape:cx="195.63726"
     inkscape:cy="96.324546"
     inkscape:window-width="2519"
     inkscape:window-height="1048"
     inkscape:window-x="1121"
     inkscape:window-y="575"
     inkscape:window-maximized="1"
     inkscape:current-layer="g1268"
     inkscape:showpageshadow="0"
     inkscape:deskcolor="#505050">
    <sodipodi:guide
       position="-659.52683,1076.0677"
       orientation="0,-1"
       id="guide4398"
       inkscape:locked="false" />
    <sodipodi:guide
       position="-659.52683,1076.0677"
       orientation="1,0"
       id="guide4457"
       inkscape:locked="false" />
    <sodipodi:guide
       position="940.4731,1076.0677"
       orientation="1,0"
       id="guide4459"
       inkscape:locked="false" />
    <sodipodi:guide
       position="-659.52683,176.06773"
       orientation="0,-1"
       id="guide4461"
       inkscape:locked="false" />
  </sodipodi:namedview>
  <g
     inkscape:groupmode="layer"
     inkscape:label="Image"
     id="g1268"
     transform="translate(-1276.5396,-89.149939)">
    <path
       id="rect3907"
       style="fill:#e5bd1a;fill-opacity:1;stroke:none;stroke-width:15.5546;stroke-linecap:round;stroke-linejoin:round;paint-order:stroke fill markers"
       d="m 1426.8477,89.160449 c -8.9615,-0.08156 -18.0306,0.310252 -22.2453,1.220899 -7.6145,1.645167 -15.5887,5.847933 -20.5938,10.853522 -5.5478,5.54808 -9.8256,8.15767 -17.7581,10.82905 -7.6516,2.57677 -11.6853,6.00621 -12.5271,10.6529 -0.3288,1.81485 -1.3729,4.83995 -2.3195,6.72351 -1.9995,3.97859 -2.0392,4.38771 -0.7633,7.74377 1.3325,3.50502 2.9701,1.61194 2.9017,-3.3544 -0.035,-2.55036 0.6792,-5.02 2.092,-7.22754 4.3836,-6.84908 8.3458,-9.34077 19.4316,-12.21388 2.5381,-0.65783 7.0213,-2.67084 9.9629,-4.475 8.7407,-5.36085 9.2349,-5.55938 13.814,-5.57356 2.4168,-0.008 8.2095,-0.86434 12.8745,-1.90352 9.5596,-2.12951 16.1444,-1.81643 22.6001,1.07654 2.1295,0.95436 4.4808,1.7347 5.2261,1.7347 1.4189,0 11.6095,7.53186 21.8221,16.12859 3.7736,3.17645 8.9087,6.29654 13.8434,8.41172 4.3148,1.84959 9.5899,4.14675 11.7196,5.1038 2.1295,0.95706 4.2523,1.7396 4.7172,1.7396 1.2896,0 8.5973,7.51772 11.7515,12.0891 1.5424,2.23536 5.4886,6.06319 8.7689,8.5047 10.1433,7.54974 13.5672,11.44231 15.6956,17.83882 1.0566,3.17523 4.3308,9.63802 7.2764,14.36208 2.9456,4.72404 5.8848,10.22121 6.5302,12.21633 1.0827,3.34748 1.0201,3.74975 -0.8,5.22369 -2.9285,2.37158 -2.448,6.05478 1.72,13.18766 2.0305,3.47505 3.6921,6.67411 3.6921,7.10764 0,0.43351 0.7689,1.19909 1.7102,1.7029 1.5396,0.82402 4.369,10.21782 4.0223,13.35649 -0.1806,1.63732 -2.0176,10.10082 -2.5763,11.8689 -0.8373,2.64963 1.2475,1.8427 4.7001,-1.8179 3.7101,-3.93364 6.6431,-11.03189 7.4722,-18.08594 0.5187,-4.41415 0.1846,-5.71636 -3.5869,-14.05624 -6.0035,-13.27529 -9.229,-23.77083 -10.347,-33.65423 -0.9569,-8.45927 -4.56,-19.80112 -8.9402,-28.15163 -2.3227,-4.42767 -9.0473,-11.57628 -14.1419,-15.03248 -6.7331,-4.56767 -17.4299,-13.45759 -25.8469,-21.48195 -7.5971,-7.24274 -17.4596,-15.33191 -22.1303,-18.14955 -6.7783,-4.088982 -23.1475,-11.569825 -28.1736,-12.876934 -3.7815,-0.983426 -12.6331,-1.54059 -21.5945,-1.622157 z m -21.2985,51.904111 c -9.5098,-0.0369 -13.5159,0.36256 -19.16,1.91331 -3.9249,1.07839 -8.3388,1.96225 -9.8088,1.96225 -1.4702,0 -3.22,0.66031 -3.8902,1.46801 -1.0959,1.32047 -0.7596,1.40721 3.347,0.86123 2.5117,-0.33396 6.6442,-0.99591 9.1825,-1.47046 2.8898,-0.54028 7.3746,-0.53075 11.9985,0.0244 7.6204,0.91495 10.1746,1.55759 25.8444,6.5082 5.0766,1.60381 11.7242,3.24256 14.7732,3.64312 4.1126,0.54032 7.4267,1.84293 12.8426,5.04508 11.2497,6.65143 16.3804,8.80076 24.9465,10.45226 8.4159,1.62249 9.7671,2.92818 5.0524,4.88116 -2.2822,0.94546 -4.8687,0.95575 -13.1534,0.0514 -14.4909,-1.58197 -35.2737,-1.77615 -36.7175,-0.34253 -0.892,0.88586 -0.7565,1.24429 0.6386,1.69311 0.9732,0.3131 3.2243,1.39562 5.001,2.40754 1.7769,1.01191 5.6176,2.94648 8.5365,4.29639 8.6903,4.01888 6.4467,5.21073 -3.7752,2.00628 -3.2181,-1.00879 -6.8323,-1.83501 -8.0325,-1.83501 -2.9139,0 -6.8825,1.87222 -6.8825,3.24676 0,1.54033 16.7254,8.75181 20.2977,8.75181 1.9363,0 2.7975,0.39223 2.5397,1.15484 -0.2765,0.81832 -3.0262,1.15483 -9.4589,1.15483 -5.2516,0 -9.1828,0.38796 -9.339,0.92241 -0.1484,0.50767 1.0321,1.7543 2.6252,2.76965 1.5934,1.01536 2.8463,2.25953 2.7844,2.76721 -0.1505,1.23394 -12.4991,4.0703 -17.9318,4.11778 -2.3813,0.0208 -4.615,-0.42568 -4.9643,-0.9909 -0.3494,-0.5652 -2.4773,-1.84049 -4.7271,-2.83572 -2.2498,-0.99522 -6.4179,-3.44079 -9.2631,-5.4341 -7.3663,-5.16037 -8.6302,-4.90796 -17.0975,3.44005 -7.5788,7.4719 -8.4595,9.57797 -5.5246,13.20234 1.2181,1.50462 3.1642,2.20046 7.734,2.76721 3.359,0.41659 7.3001,1.41472 8.7567,2.2167 1.4565,0.80197 4.3134,2.27708 6.3491,3.27856 4.2933,2.11221 11.5288,2.4009 11.5288,0.45998 0,-0.94005 0.55,-1.04352 2.207,-0.41349 1.2145,0.46182 3.0973,0.60711 4.1838,0.32297 2.3205,-0.60684 5.6078,1.9737 5.6078,4.4016 0,0.89658 1.9264,3.55584 4.2817,5.9112 3.1704,3.17062 4.0127,4.55321 3.2443,5.32156 -1.7214,1.72165 -9.3025,-2.61712 -14.4673,-8.27961 l -4.6364,-5.08178 -3.078,2.87486 c -3.5503,3.31667 -7.081,3.68107 -14.3351,1.48025 -6.638,-2.01381 -7.6407,-1.81315 -8.8204,1.76162 -0.5691,1.72475 -1.8475,4.07365 -2.8406,5.21879 -0.9931,1.14515 -1.8056,2.44208 -1.8056,2.88465 0,1.11919 4.2041,2.60573 7.3719,2.60573 1.451,0 3.8321,1.00474 5.2897,2.23138 1.4578,1.22664 4.2924,2.51384 6.3002,2.86018 7.3346,1.2651 12.5712,3.19908 14.2398,5.26038 0.9394,1.1605 3.8951,2.74225 6.5669,3.5159 9.7058,2.81028 5.4509,5.7489 -7.4453,5.14295 -5.5701,-0.26173 -9.5203,-0.99178 -12.505,-2.31212 -5.5481,-2.45441 -8.443,-2.48183 -9.202,-0.0906 -0.7396,2.33053 0.098,3.6994 2.2583,3.6994 2.4535,0 6.2698,3.33942 5.1233,4.48233 -0.5077,0.50601 -3.9733,1.33678 -7.7021,1.84725 -7.1051,0.97272 -9.4791,2.33756 -11.7686,6.7651 -1.4021,2.71165 -1.4551,7.01597 -0.1076,8.80809 0.6232,0.82915 1.3399,0.873 2.6693,0.16149 1.5232,-0.81528 2.3411,-0.43733 5.0255,2.3268 1.842,1.89693 4.1055,3.30059 5.324,3.30059 1.166,0 2.8769,0.83695 3.8022,1.85948 1.01,1.11604 2.3372,1.65201 3.3177,1.34078 0.8983,-0.28515 2.4035,-0.0363 3.3471,0.55296 1.9375,1.21016 11.7491,-0.35678 12.7913,-2.04299 0.3667,-0.59348 3.3392,-0.7074 8.1303,-0.30828 5.8489,0.48724 8.6881,0.28089 12.5907,-0.91996 2.7713,-0.85275 9.3989,-1.89786 14.7291,-2.3219 5.3302,-0.42405 11.5615,-1.45626 13.8458,-2.295 6.6797,-2.45249 7.3841,-2.59664 7.3841,-1.50961 0,1.02901 -8.2319,9.14007 -15.2307,15.00801 -2.0307,1.70248 -3.8981,3.35874 -4.152,3.68226 -0.2538,0.32354 -3.7854,2.22268 -7.8465,4.22055 -4.0612,1.99786 -12.7832,6.38023 -19.3827,9.73783 -6.5993,3.3576 -13.1744,6.54892 -14.6117,7.09296 -3.2599,1.23391 -2.8115,2.7681 1.4656,5.02061 2.4717,1.30168 3.9046,3.06731 5.6299,6.92902 2.8392,6.35544 4.6775,13.44528 3.966,15.29916 -0.2917,0.7602 0.276,3.15568 1.2601,5.324 0.9841,2.16831 1.7968,4.89787 1.8081,6.06535 0.024,2.52809 -2.2323,7.2328 -4.8396,10.08526 -1.6891,1.8481 -1.7251,2.1113 -0.3474,2.63998 0.8416,0.323 2.9723,-0.0985 4.7344,-0.93463 1.7619,-0.83616 4.9418,-2.13266 7.066,-2.8822 2.1243,-0.74956 4.5032,-1.87761 5.2848,-2.50541 0.8805,-0.7071 0.7353,-0.18682 -0.3816,1.36769 -0.9917,1.38016 -2.3547,2.52373 -3.029,2.53967 -2.2355,0.0529 -9.3904,8.61303 -9.3904,11.23521 0,3.24576 7.0418,24.45477 9.3806,28.25438 2.2037,3.57987 2.6359,3.64404 5.4928,0.82698 3.9352,-3.88044 10.2111,-7.36556 10.9905,-6.10449 0.384,0.62133 1.113,0.87346 1.6197,0.56029 0.5068,-0.31316 1.1362,0.25296 1.3996,1.26005 0.2633,1.00709 1.1474,2.08903 1.9647,2.40265 0.8172,0.31361 2.7453,1.74823 4.2865,3.18804 1.5413,1.43981 3.6128,2.87397 4.6023,3.18804 0.9895,0.31406 1.7983,1.06672 1.7983,1.67354 0,0.60681 1.1061,1.92953 2.4589,2.93847 1.3528,1.00891 3.5828,3.37857 4.9546,5.26528 1.3718,1.88672 2.6535,3.27724 2.8479,3.09017 0.1944,-0.18708 1.8076,0.35241 3.5844,1.19887 2.7556,1.31279 3.1842,1.93279 2.914,4.21566 -0.3098,2.61868 -2.0309,5.12586 -3.5403,5.15763 -0.4172,0.009 -1.7966,1.11864 -3.0657,2.46626 -1.2692,1.34762 -6.2418,5.37306 -11.0493,8.94754 -4.8076,3.57447 -12.4917,10.13681 -17.0755,14.58229 -11.3988,11.05457 -12.1812,11.77271 -18.4872,16.9629 -9.0095,7.41534 -11.6933,9.78765 -17.7678,15.70776 -4.542,4.42645 -5.7669,6.20973 -5.7669,8.38726 0,2.98902 -3.3443,7.07895 -18.7196,22.89613 -5.145,5.29282 -8.3475,7.95008 -8.769,7.27647 -0.6495,-1.03827 -0.4414,-7.55415 1.5537,-48.78214 0.5403,-11.16887 1.4005,-36.09158 1.9109,-55.3833 0.5101,-19.29171 1.3886,-40.2157 1.9549,-46.49691 0.7411,-8.22161 0.7496,-11.96963 0.029,-13.38341 -0.5506,-1.08012 -1.1114,-4.24157 -1.2478,-7.02444 -0.2469,-5.03269 -0.2738,-5.0726 -4.8641,-7.63612 -2.5381,-1.41754 -6.7963,-3.63819 -9.4613,-4.93253 -2.6653,-1.29435 -4.8471,-2.84023 -4.8493,-3.4376 0,-0.59738 -1.1436,-2.34666 -2.5373,-3.88536 -3.2598,-3.59887 -6.6892,-8.44295 -6.6892,-9.45156 0,-0.98023 -5.1179,-4.82732 -6.4226,-4.82732 -0.5281,0 -0.9615,-0.57732 -0.9615,-1.28451 0,-0.70722 -0.6552,-1.5391 -1.4583,-1.84725 -2.0853,-0.80027 -7.2448,-0.69183 -8.2796,0.17371 -0.4823,0.4034 -3.3668,1.51565 -6.4127,2.47115 -3.0459,0.9555 -5.9331,2.08012 -6.4153,2.49808 -0.4823,0.41796 -1.705,0.75847 -2.7158,0.75847 -1.7651,0 -1.7691,-0.0487 -0.1395,-1.24047 1.5473,-1.13142 1.3374,-1.3244 -2.3635,-2.18734 -4.3172,-1.00666 -13.1462,-0.89876 -15.8178,0.19328 -1.0657,0.43563 -1.7986,0.15938 -2.1751,-0.82209 -0.3126,-0.81418 -1.5623,-1.48024 -2.777,-1.48024 -1.6691,0 -2.2133,0.50533 -2.229,2.07479 l -0.02,2.07725 -1.7004,-2.21181 -1.7005,-2.21182 -0.6704,4.47011 c -0.5345,3.56545 -0.3734,4.68786 0.7976,5.54421 1.6433,1.20156 1.9698,4.60448 0.5285,5.49526 -0.516,0.31887 -0.6964,0.96756 -0.4037,1.44111 0.2926,0.47353 -0.5329,1.26499 -1.8326,1.75916 -2.8313,1.07653 -3.1683,3.71409 -0.4746,3.71409 1.6515,0 1.862,0.51546 1.676,4.10798 -0.3166,6.11861 4.0095,13.1644 6.0531,9.85772 0.2731,-0.44209 1.8154,-1.06769 3.4254,-1.38971 1.6101,-0.32204 4.6859,-1.46583 6.836,-2.53968 3.8666,-1.93118 3.8983,-1.98818 3.007,-5.30197 -0.4955,-1.84267 -2.1417,-5.30893 -3.6603,-7.70218 -2.8505,-4.49292 -2.8189,-6.26353 0.115,-6.26353 1.9386,0 7.4258,5.83632 7.4258,7.89791 0,0.75393 1.0507,3.95699 2.3341,7.11988 1.9795,4.8782 3.9757,7.3614 13.1534,16.36591 9.9687,9.78074 15.8703,16.76181 17.2834,20.44455 0.3161,0.82343 -0.1507,2.18635 -1.0594,3.09506 -1.4933,1.49344 -3.2151,1.56815 -21.5137,0.92975 -22.8718,-0.79796 -25.0402,-0.90565 -37.1066,-1.83502 -8.702,-0.67023 -8.9442,-0.63651 -10.3323,1.49249 -1.3049,2.00117 -1.2007,3.20182 1.26,14.641 1.4742,6.85363 4.1823,15.99227 6.0189,20.30753 1.8366,4.31524 4.3053,10.33735 5.4855,13.38341 2.3028,5.94368 10.3925,24.74518 13.9021,32.30854 1.1779,2.53839 3.7773,8.35191 5.7766,12.92099 4.3315,9.89837 20.0459,40.83358 23.5518,46.36479 1.3615,2.14753 2.4761,4.07946 2.4761,4.2915 0,0.45165 4.8142,8.39557 12.9332,21.34248 12.8075,20.42311 16.8432,31.31466 17.1024,46.15194 0.071,4.06142 1.0161,12.99147 2.0992,19.84511 1.0831,6.85363 3.035,21.39351 4.338,32.30855 1.3032,10.91505 3.2013,23.58254 4.2181,28.15163 1.9862,8.92531 7.7042,22.98292 12.3925,30.46131 2.5813,4.11751 6.6407,12.19636 11.59,23.07475 1.0003,2.19871 1.8009,6.49362 1.9818,10.61619 0.2388,5.43915 0.9228,8.20948 3.1831,12.92341 1.6645,3.47134 3.1224,8.29647 3.4621,11.45052 0.3231,2.99828 1.1521,6.73572 1.8399,8.30652 0.688,1.57081 3.241,8.2565 5.6764,14.8563 2.4352,6.59978 4.6963,12.41576 5.023,12.92343 0.3267,0.50769 0.6809,2.36876 0.7878,4.13735 0.1065,1.76857 0.546,3.56758 0.9738,3.99546 0.4279,0.42787 0.4633,2.30177 0.081,4.16671 -0.5881,2.86999 -0.5237,25.73925 0.1909,68.00578 -2.1483,13.17642 -1.2335,30.10291 -4.3356,41.08729 -2.77,14.07227 -1.9576,14.98086 -5.987,29.01775 -1.0874,3.78865 -1.4849,6.63372 -0.9714,6.95105 -0.1425,1.31498 -0.2313,-0.48174 -1.9108,2.2167 -0.6904,1.13166 -0.8494,3.79163 -0.4576,7.61655 0,0 1.2189,5.42009 -1.0839,2.1849 -0.5104,0 -1.204,1.55583 -1.5414,3.45962 -0.3374,1.90379 -0.8262,4.29396 -1.0863,5.30932 1.4561,4.97556 0.8823,2.22215 -5.0989,8.82276 -0.4376,0.2842 -0.9628,2.2725 -1.1695,4.4187 -8.7678,45.1064 47.1385,75.6767 92.2158,77.7779 -3.9846,0.4682 52.3298,1.2512 106.3527,1.4803 l 46.3599,0.1981 -0.4673,-10.8119 c -1.0941,-25.4379 -1.9187,-34.6966 -3.122,-35.0978 -0.9493,-0.3164 -0.9561,-0.545 -0.037,-1.1132 0.9258,-0.5722 0.9333,-7.0476 0.042,-32.426 -0.6132,-17.44085 -1.226,-33.99626 -1.3628,-36.78848 -0.1365,-2.79223 -0.5823,-14.63414 -0.9909,-26.31661 -0.7982,-22.81157 -0.8716,-22.28689 4.1276,-29.98909 0.4943,-0.7615 3.2568,-5.33082 6.1363,-10.15377 2.8795,-4.82291 6.1493,-10.01313 7.2691,-11.53615 2.3033,-3.13264 7.5897,-17.33257 8.1548,-21.90523 1.9142,-15.49025 2.101,-13.69442 -2.2925,-22.08627 -2.2178,-4.23582 -4.2409,-7.90834 -4.4946,-8.16217 -0.8875,-0.8876 -2.7672,-4.59834 -2.7672,-5.46101 0,-0.74606 -4.881,-8.26872 -9.1457,-14.09539 -1.1355,-1.55129 -1.1017,-1.97394 0.2789,-3.33973 1.4884,-1.47225 1.783,-1.33682 4.9937,2.29988 1.8762,2.12499 5.2807,6.20899 7.5651,9.07478 7.9648,9.99184 9.3021,11.37395 12.7155,13.13874 3.0398,1.57159 3.7808,1.63363 6.4299,0.54072 1.6469,-0.67939 4.2834,-3.00022 5.8574,-5.15763 2.4743,-3.39117 2.7957,-4.48551 2.388,-8.07653 -0.6773,-5.96392 0.1172,-8.85068 2.7623,-10.0559 2.4703,-1.12569 3.2957,-0.86256 6.6256,2.11639 l 2.1678,1.94022 3.555,-3.99055 c 3.5687,-4.00543 5.5047,-10.23966 4.2206,-13.58648 -0.3051,-0.79524 0.4808,-3.4857 1.7445,-5.97971 1.2637,-2.49401 2.2975,-5.82344 2.2975,-7.3988 0,-3.21574 -3.4832,-8.6072 -9.2046,-14.24952 -2.0451,-2.01707 -3.7189,-4.13299 -3.7189,-4.70254 0,-2.14628 3.8125,-4.37309 8.2087,-4.79552 3.8763,-0.3725 5.484,0.0492 11.0859,2.90422 9.908,5.04965 10.1643,4.95305 15.2234,-5.66164 2.3593,-4.94984 4.6835,-9.62223 5.1649,-10.38375 2.435,-3.85188 6.4574,-13.08543 7.8417,-18.00031 0.8581,-3.04605 2.5446,-8.65343 3.7483,-12.461 3.9865,-12.60993 6.4816,-44.68482 4.0932,-52.61365 -0.5351,-1.77687 -1.7769,-13.91679 -2.7598,-26.97722 -0.983,-13.0604 -2.2159,-26.3512 -2.7403,-29.53645 -0.5241,-3.18523 -1.5622,-9.53118 -2.3072,-14.10028 -0.7451,-4.56908 -2.43,-13.29058 -3.7435,-19.38269 -1.3134,-6.09212 -2.7487,-13.36082 -3.1904,-16.15305 -1.5429,-9.75575 -3.5846,-18.96888 -5.5198,-24.922 -6.4076,-19.71241 -6.6222,-20.88319 -5.9601,-32.24739 0.6866,-11.78162 -0.396,-18.12852 -4.6242,-27.09709 -1.2471,-2.64517 -3.3014,-9.16849 -4.5655,-14.4991 -1.2639,-5.3306 -3.5126,-12.61849 -4.9962,-16.19465 -1.4836,-3.57619 -3.8209,-9.97458 -5.1943,-14.21772 -5.568,-17.20082 -19.3284,-38.83538 -27.3003,-42.92231 -1.2692,-0.65064 -4.3835,-1.45004 -6.9217,-1.77629 -3.0609,-0.39342 -9.2779,-2.93552 -18.4602,-7.54805 -7.6147,-3.82503 -16.1307,-7.60975 -18.9227,-8.41172 -2.7921,-0.80194 -5.4916,-1.76899 -5.9993,-2.1482 -1.0879,-0.81259 -22.2702,-7.93996 -34.1509,-11.4921 -16.942,-5.06529 -33.1586,-11.92695 -37.5201,-15.87413 -0.958,-0.8672 -3.1797,-6.1843 -4.9374,-11.81508 -3.1296,-10.0263 -8.0918,-19.87436 -10.3837,-20.61093 -1.6193,-0.52027 -1.441,2.08865 0.2373,3.48165 0.7646,0.63459 1.3003,2.32238 1.1915,3.75077 -0.1152,1.51386 0.5564,3.43105 1.61,4.59733 1.6746,1.85392 1.7846,3.17358 1.5071,17.98074 -0.256,13.66444 -0.078,16.31932 1.2307,18.31593 1.1879,1.81333 1.648,5.52619 2.0528,16.61549 l 0.5211,14.27888 -3.7312,1.0056 c -5.9954,1.6145 -19.4674,1.45946 -24.117,-0.27649 -5.0177,-1.87335 -11.1856,-1.94184 -13.5522,-0.15169 -2.3955,1.81199 -3.7036,1.7773 -2.18,-0.0587 1.0322,-1.24364 0.9755,-1.61463 -0.367,-2.36596 -0.8751,-0.48975 -1.3165,-1.33428 -0.9812,-1.87661 0.3559,-0.57595 0.075,-0.79394 -0.6728,-0.52359 -0.7052,0.25458 -3.2421,-0.61934 -5.6372,-1.94267 -4.3128,-2.38297 -4.3681,-2.38714 -5.7693,-0.57252 -1.4107,1.8268 -1.4193,1.82599 -2.569,-0.0147 -0.634,-1.01537 -1.1524,-2.47059 -1.1524,-3.23208 0,-0.76152 -0.9099,-1.78284 -2.021,-2.27053 -1.1109,-0.48769 -2.2286,-1.68276 -2.4834,-2.6571 -0.3005,-1.1493 -0.9671,-1.57929 -1.901,-1.2209 -0.8137,0.3123 -1.4541,0.0634 -1.4705,-0.57254 -0.016,-0.61866 -1.054,0.0411 -2.3072,1.46558 -1.3615,1.5477 -2.2779,2.06326 -2.2779,1.28206 0,-1.67054 3.6737,-7.08895 7.9126,-11.67071 1.8161,-1.96293 4.3178,-4.94584 5.5589,-6.6281 1.241,-1.68224 4.2508,-5.14681 6.6892,-7.69973 2.4387,-2.55291 6.9666,-7.78127 10.0608,-11.61933 3.0942,-3.83808 6.2829,-7.52283 7.0856,-8.18908 0.8028,-0.66625 1.4583,-1.81359 1.4583,-2.54946 0,-0.73587 1.0071,-3.07321 2.2363,-5.19432 3.1336,-5.40758 4.9952,-12.56675 5.9258,-22.7787 0.6447,-7.07489 0.5489,-9.0616 -0.4991,-10.28099 -1.1229,-1.3064 -0.9866,-3.37197 1.0081,-15.23065 2.169,-12.8949 2.4782,-13.86098 5.1282,-16.09434 l 2.8186,-2.37573 -2.3708,-2.22894 c -1.9018,-1.7868 -2.264,-2.79748 -1.8302,-5.11114 0.3717,-1.98139 0.1028,-3.24718 -0.8612,-4.04683 -1.8521,-1.53727 -1.7784,-2.35267 0.6557,-7.34007 1.3524,-2.77101 2.1727,-6.44445 2.3978,-10.72629 0.3113,-5.9195 0.1259,-6.77079 -2.0455,-9.35125 -2.8735,-3.41511 -7.6509,-5.82803 -11.5386,-5.82803 -1.5677,0 -5.5576,1.08515 -8.8668,2.41 -5.6747,2.27188 -6.1486,2.32176 -8.3065,0.90772 -4.3955,-2.88025 -7.5731,-12.19544 -4.5043,-13.2048 0.5707,-0.18769 2.2933,0.71364 3.8266,2.00384 2.887,2.42955 4.8273,3.00877 4.8273,1.4411 0,-0.49738 -1.6671,-3.0937 -3.7043,-5.76929 -4.6787,-6.14513 -7.6777,-12.25113 -7.6777,-15.62701 0,-4.03846 1.1327,-4.28578 3.9294,-0.85879 2.6971,3.30474 4.6829,3.24823 4.6829,-0.13212 0,-1.93979 0.016,-1.93764 2.2681,0.17861 5.2991,4.9784 9.3964,13.51496 4.2524,8.85946 -0.989,-0.89512 -2.2671,-1.47077 -2.8406,-1.27962 -2.5472,0.84906 7.9554,9.99474 11.4774,9.99474 2.7469,0 2.4481,-2.0859 -1.1646,-8.11812 -2.0383,-3.40366 -5.5469,-9.71897 -7.7976,-14.03423 -3.856,-7.39269 -4.5409,-8.1488 -11.8322,-13.09714 -4.256,-2.88841 -8.5688,-6.2619 -9.5862,-7.49665 -3.5194,-4.27128 -7.8571,-5.44382 -10.6822,-2.8871 -1.4512,1.31349 -2.434,1.19409 -11.0737,-1.32856 -5.2152,-1.5227 -10.6414,-3.62373 -12.0573,-4.67072 -1.4162,-1.04699 -2.9529,-1.90353 -3.4132,-1.90353 -0.4603,0 -4.7524,-1.85725 -9.5396,-4.12512 -11.7594,-5.57086 -18.8418,-7.07758 -33.5148,-7.13455 z m 8.5904,35.81222 c -1.8002,-0.15431 -1.9132,2.02921 -0.1297,2.5103 2.0758,0.55989 5.9926,-0.14359 7.159,-1.28452 0.544,-0.53212 -0.4185,-0.9099 -2.5372,-0.9958 -1.8783,-0.0762 -3.8999,-0.17921 -4.4921,-0.22998 z m -46.2278,10.8633 c -1.1422,0.30612 -3.2185,0.56315 -4.6145,0.57008 -2.8529,0.0142 -3.3189,1.90483 -1.468,5.96748 1.4067,3.08723 2.552,2.99672 2.3341,-0.18595 -0.1405,-2.05338 0.3995,-2.79033 2.826,-3.85842 3.4006,-1.4968 4.0822,-3.34002 0.9224,-2.49319 z m 84.3717,12.1258 c 0.8541,-0.8541 5.4458,0.54032 4.8664,1.47781 -0.653,1.05661 -4.0639,1.9816 -4.0639,-0.0636 0,-0.88356 -1.1086,-1.10803 -0.8025,-1.41418 z m -3.4083,1.4044 c 0.7237,0.0286 1.5399,0.3548 1.9133,0.95911 0.7786,1.25958 0.3603,1.53439 -1.6539,1.08632 -0.8884,-0.1976 -1.6148,-0.74556 -1.6148,-1.216 0,-0.58955 0.6317,-0.85802 1.3554,-0.82943 z m -78.436,7.35965 c -0.7871,0 -1.6504,0.72639 -1.9182,1.61482 -0.2677,0.88843 -1.6696,4.10806 -3.1146,7.15412 -3.6008,7.59036 -4.1229,11.83669 -2.3831,19.33865 1.6445,7.0918 2.6047,9.18364 3.0902,6.73329 0.1763,-0.89042 -0.2656,-3.61699 -0.9812,-6.058 -1.1844,-4.041 -1.1485,-4.72072 0.3939,-7.59698 0.9318,-1.73742 1.6932,-4.77662 1.6932,-6.75532 0,-1.9787 0.7773,-4.89343 1.7273,-6.47639 2.5751,-4.29027 3.263,-7.95419 1.4925,-7.95419 z m 149.3265,13.84583 c 4.1992,0 6.1318,1.79637 6.1778,5.74482 0.026,2.25074 -0.2364,2.46437 -2.5078,2.03076 -1.5782,-0.3013 -3.9215,0.23269 -6.195,1.4093 -2.0111,1.04071 -4.2038,1.89128 -4.8738,1.89128 -2.1427,0 -2.2672,2.48428 -0.3157,6.31002 1.0437,2.04548 2.3186,3.97814 2.8333,4.29639 1.9165,1.18444 0.8308,4.46994 -2.476,7.49911 -3.8704,3.54529 -11.2288,1.8448 -7.2031,1.8448 v 0 c 4.1287,0 -5.5834,-5.17217 -4.3894,-8.59767 0.622,-1.78437 0.6026,-4.20065 -0.064,-7.45017 -0.6493,-3.1702 -0.6826,-5.67937 -0.095,-7.3572 0.777,-2.21786 1.4886,-2.60632 5.5198,-3.01433 2.8273,-0.28616 5.6515,-1.27239 7.2593,-2.53721 1.7315,-1.36205 3.8948,-2.0699 6.3271,-2.0699 z m -145.0326,14.86364 c -0.4492,-0.18175 -1.0032,0.50851 -1.419,2.16533 -0.312,1.24297 -1.7058,2.80473 -3.0975,3.47185 -1.3919,0.66713 -3.3633,2.80046 -4.3796,4.73924 -1.0165,1.93876 -2.5738,3.92712 -3.4621,4.41873 -2.3358,1.2926 -2.0435,5.41697 0.3841,5.41697 0.4231,0 0.7683,-0.83667 0.7683,-1.85949 0,-1.08681 1.1793,-2.57802 2.8382,-3.58685 1.561,-0.94941 3.4537,-2.60354 4.2058,-3.67738 0.7521,-1.0738 1.9225,-1.95245 2.6009,-1.95245 1.5606,0 2.3537,-2.04732 2.3537,-6.07514 0,-1.825 -0.3435,-2.87905 -0.7928,-3.06081 z m 70.751,2.07724 c 1.8601,0.45277 3.0554,3.19992 4.5533,9.59593 1.0092,4.30959 -0.1592,5.38732 -1.6344,1.50717 -0.5051,-1.32876 -2.1571,-3.57306 -3.67,-4.98636 -3.0068,-2.80882 -3.5233,-5.02677 -1.3653,-5.85494 0.8039,-0.3085 1.4964,-0.41271 2.1164,-0.2618 z m 50.2306,23.40994 c 0.8867,-0.46773 2.0334,0.2967 3.9832,2.00874 1.8445,1.61951 4.5914,3.1937 6.1045,3.49633 1.513,0.30263 2.4139,0.87001 2.0014,1.26004 -1.5718,1.48625 -8.2506,4.87039 -10.9025,5.52462 -1.523,0.37574 -3.5636,1.00887 -4.5337,1.40686 -1.5368,0.63058 -1.6745,0.43599 -1.0692,-1.50962 0.3818,-1.22789 1.2775,-4.28465 1.9892,-6.79446 0.9139,-3.22272 1.5404,-4.92476 2.4271,-5.39251 z m -124.8033,12.26283 c -0.5076,0 -0.9224,0.50005 -0.9224,1.11324 0,0.6132 -1.419,2.5862 -3.1538,4.38447 -2.7206,2.8203 -3.8062,5.58803 -3.4082,8.68086 0.1973,1.53306 8.4068,-10.51373 8.4068,-12.33622 0,-1.01393 -0.4147,-1.84235 -0.9224,-1.84235 z m -7.1174,22.45328 c -0.1938,0.0631 -0.2667,0.37075 -0.2667,0.93953 0,0.80582 0.7431,1.86256 1.6515,2.34883 0.9085,0.48622 2.226,1.95293 2.9263,3.26143 1.3284,2.48257 2.8063,3.16353 2.8063,1.29185 0,-2.83058 -2.3066,-7.2386 -3.5403,-6.7651 -0.7191,0.27592 -1.8793,0.0281 -2.5764,-0.5505 -0.4921,-0.40841 -0.8069,-0.58922 -1.0007,-0.52604 z m 18.1716,12.62248 c -2.8507,0 -3.9499,0.4937 -5.1381,2.30722 -0.8314,1.26919 -2.128,2.30723 -2.8797,2.30723 -0.7517,0 -2.4693,0.77819 -3.8169,1.72982 -1.3474,0.95165 -5.4604,3.24215 -9.1408,5.08911 -6.2287,3.12581 -7.8043,4.25725 -5.9259,4.25725 0.421,0 3.7708,-1.07833 7.4453,-2.39775 3.6745,-1.31948 6.9188,-2.16328 7.2079,-1.87418 0.289,0.2891 1.6733,-0.29149 3.078,-1.29185 1.4047,-1.00035 3.3228,-1.8157 4.2596,-1.81055 2.8857,0.0159 13.2391,-3.97954 13.2391,-5.1087 0,-1.58625 -4.2103,-3.2076 -8.3285,-3.2076 z m 13.9999,19.49278 c -1.2233,0.16461 -1.7665,2.19088 -1.7665,6.32715 0,2.40021 -0.5391,5.3608 -1.1989,6.57915 -1.1074,2.04497 -1.9889,5.64912 -3.3348,13.64764 -0.7912,4.70259 1.1317,2.80928 2.9483,-2.90422 0.8457,-2.65933 2.7711,-7.87897 4.2792,-11.59731 2.9646,-7.30994 3.0882,-10.01834 0.5285,-11.60466 -0.5639,-0.34951 -1.048,-0.50261 -1.4558,-0.44775 z m 84.8366,51.58115 c 0.5377,0 0.7224,0.41472 0.4086,0.9224 -0.3137,0.50767 -0.7549,0.92484 -0.9787,0.92484 -0.224,0 -0.4061,-0.41717 -0.4061,-0.92484 0,-0.50768 0.4385,-0.9224 0.9762,-0.9224 z m 7.6655,61.57099 c 1.8121,0.31256 3.3568,0.95814 3.3568,1.71267 0,0.65825 1.1412,2.05327 2.5373,3.09996 1.396,1.04666 3.0397,2.3225 3.6529,2.83571 0.6132,0.5132 1.475,0.9322 1.9133,0.9322 1.1079,0 9.4344,8.07813 9.4344,9.15307 0,0.48201 0.9326,1.1569 2.0748,1.49982 2.5042,0.75183 8.5651,7.18537 7.1982,7.64101 -0.5314,0.17717 -0.9665,0.69225 -0.9665,1.14505 0,0.4608 1.0482,0.42441 2.3831,-0.0832 3.0809,-1.17139 3.8747,-0.60703 4.6047,3.28346 0.3291,1.7546 0.967,2.96094 1.4191,2.68158 0.4518,-0.27936 0.8221,-0.0797 0.8221,0.44284 0,0.52249 1.6607,1.89603 3.692,3.05347 2.031,1.15743 3.9282,2.83297 4.2157,3.72142 0.2875,0.88843 1.1636,1.61482 1.9451,1.61482 0.829,0 1.2173,0.53172 0.9322,1.27472 -0.2689,0.70053 0.8288,3.18374 2.4393,5.51974 9.1452,13.26473 12.4798,18.48136 22.8007,35.66542 6.2508,10.40736 13.8168,22.64551 16.8113,27.19496 5.0276,7.63789 5.3188,8.36302 3.8168,9.46137 -0.8947,0.65423 -2.2744,1.22096 -3.0657,1.26004 -8.3945,0.41449 -16.9686,1.80263 -18.5728,3.00698 -1.3253,0.99473 -4.355,6.03016 -9.7868,16.26072 -1.1997,2.25954 -2.51,4.33562 -2.9116,4.61445 -0.4015,0.27882 -1.2755,1.8586 -1.9426,3.50855 -1.6923,4.1839 -5.1821,-6.83381 -5.1821,-1.38482 0,2.56222 -2.2887,-6.04581 -3.1636,-8.07653 -0.8751,-2.03069 -3.5561,-9.92273 -5.9577,-17.53788 -2.4016,-7.61515 -5.5235,-16.75381 -6.9388,-20.30754 -2.9233,-7.34088 -6.585,-17.90967 -8.7934,-25.38441 -0.8248,-2.79224 -1.732,-5.7002 -2.0161,-6.46172 -0.2839,-0.7615 -1.2658,2.14644 -2.1824,6.46172 -1.6069,7.56427 -4.6304,17.86025 -6.3688,21.69235 -1.096,2.41611 -2.8439,11.99368 -2.8504,15.61479 0,1.56528 -0.4378,4.40378 -0.9664,6.30756 -0.7997,2.87964 -1.3701,3.45963 -3.3911,3.45963 -3.1769,0 -7.3761,-1.37165 -16.4051,-5.36559 -8.1827,-3.61963 -11.4813,-3.95012 -21.2275,-2.11394 -8.2808,1.56008 -10.9866,1.19402 -11.3747,-1.54142 -0.3404,-2.39951 4.5594,-11.61327 9.4369,-17.74586 1.8169,-2.28453 3.3078,-4.46308 3.3129,-4.84199 0.013,-0.7172 9.0666,-13.73397 10.1195,-14.54313 0.3303,-0.25384 1.8117,-2.12134 3.2908,-4.15204 1.4789,-2.0307 4.051,-5.25133 5.7179,-7.15657 1.667,-1.90527 3.0314,-4.13132 3.0314,-4.94722 0,-2.30301 5.2078,-11.52053 8.7739,-15.52914 1.7672,-1.98644 3.0996,-3.72419 2.9605,-3.86333 -0.1391,-0.13913 -2.9403,0.18821 -6.2244,0.72912 -4.2938,0.70727 -6.6895,0.69825 -8.5267,-0.0318 -3.2244,-1.28118 -4.8149,-5.1063 -3.4817,-8.37013 2.1037,-5.15042 3.8201,-13.41568 2.8529,-13.73817 -1.064,-0.35461 -1.3366,-12.86172 -0.3842,-17.62351 0.3208,-1.60453 1.3008,-3.30105 2.1776,-3.77036 1.0662,-0.57063 3.1448,-0.59149 4.957,-0.27891 z m 22.5903,40.88665 c -2.2688,0 -2.1668,1.57459 0.1492,2.30967 1.0152,0.32228 1.8448,1.18112 1.8448,1.90841 0,0.7273 0.4173,1.32122 0.9249,1.32122 0.5077,0 0.9224,-0.18842 0.9224,-0.41838 0,-1.82925 -2.4695,-5.12092 -3.8413,-5.12092 z m 125.1996,90.49576 c 0.7253,0.35669 1.5227,1.66208 1.8595,3.65536 0.3431,2.03071 1.0049,3.69206 1.468,3.69206 0.4629,0 0.8417,-0.41473 0.8417,-0.92241 0,-0.50767 0.621,-0.9224 1.3824,-0.9224 0.7615,0 1.3848,0.53484 1.3848,1.18909 0,0.65424 2.2848,2.57478 5.0769,4.26703 4.588,2.78087 5.4921,3.78805 5.2041,5.79865 -0.051,0.35149 1.1463,1.8754 2.6595,3.38867 1.5132,1.51327 2.7501,2.9126 2.7501,3.1073 0,0.19471 1.8701,2.35942 4.1545,4.81265 2.2843,2.45321 4.1545,4.02671 4.1545,3.49631 0,-0.64256 0.7537,-0.60828 2.2632,0.10272 1.5279,0.71971 2.3555,1.96067 2.5396,3.81439 0.1768,1.78032 1.0246,3.12149 2.4076,3.80705 1.1741,0.58202 2.1092,1.31884 2.0772,1.63684 -0.2857,2.84218 0.1575,4.26947 1.3261,4.26947 2.2774,0 1.5414,1.20842 -2.8137,4.61691 -7.5304,5.89369 -6.4448,9.22892 3.0046,9.22892 6.0746,0 17.807,2.55988 17.807,3.88534 0,0.40153 0.8065,0.73156 1.7934,0.73156 0.9871,0 2.9603,1.07048 4.3845,2.38064 1.4243,1.31015 2.0707,2.11572 1.4362,1.79097 -0.6345,-0.32477 -1.1524,-0.10323 -1.1524,0.48934 0,0.65776 0.8122,0.87229 2.0846,0.55295 2.432,-0.61043 5.1569,0.65358 3.5501,1.64663 -1.8949,1.17119 -1.0699,2.58062 1.1793,2.01607 1.8012,-0.45209 2.4003,-0.0676 3.3079,2.12373 0.8448,2.03965 0.8544,3.15175 0.039,4.67563 -0.9505,1.7759 -1.5025,1.9146 -4.9253,1.23802 -2.119,-0.41893 -11.1203,-0.76092 -20.0041,-0.76092 -14.2418,0 -16.9447,0.24801 -22.8497,2.10415 -5.7445,1.80564 -7.0377,2.6185 -9.087,5.71547 -1.3141,1.98586 -2.1151,4.05431 -1.7812,4.59489 1.4519,2.34917 6.5087,3.93275 12.2775,3.84619 8.6264,-0.12939 18.5816,2.15207 21.3132,4.8836 l 2.2362,2.23628 -2.6693,2.49317 c -2.542,2.37264 -2.9926,2.46474 -9.4198,1.93045 -5.1044,-0.42433 -7.4123,-0.22047 -9.4613,0.83921 -1.4905,0.77083 -2.711,1.58768 -2.711,1.81545 0,1.28304 5.9297,3.04824 11.5386,3.43515 14.5341,1.00256 24.8996,10.69582 24.2712,22.69306 -0.2342,4.47604 -0.5472,5.28396 -2.1188,5.439 -1.0153,0.10009 -2.8027,-1.60993 -4.6169,-1.60993 -1.8142,0 -3.3978,-1.79564 -4.1667,-1.79832 -0.7691,-0.003 -2.9779,-0.85182 -4.9081,-1.88639 -7.0283,-3.76717 -13.9958,-4.87872 -31.0754,-4.96189 -15.0695,-0.0734 -16.4282,-0.22452 -20.266,-2.24117 -6.6453,-3.4919 -6.5847,-3.28746 -6.0653,-20.91432 0.2544,-8.63049 0.7134,-28.15442 1.0227,-43.38473 0.3937,-19.3922 0.9744,-29.48929 1.9353,-33.69093 1.2673,-5.53969 3.8122,-24.48609 3.9368,-29.30647 0.046,-1.80472 0.6987,-2.39724 1.4239,-2.04054 z m -6.5302,135.16745 c 0.8324,-0.62558 2.0118,-0.54126 3.4229,0.3401 0.9413,0.58779 2.8882,1.06675 4.3258,1.06675 3.4935,0 11.5295,2.44205 15.7151,4.7735 3.7765,2.10363 9.3855,7.77949 9.3855,9.49805 0,1.65094 9.1812,7.67583 13.8996,9.12127 6.7287,2.06125 12.3833,5.09523 15.5169,8.32854 4.1416,4.27346 2.486,7.86814 -2.432,5.28239 -2.8429,-1.49464 -22.705,-7.715 -26.7521,-8.37747 -2.7716,-0.45365 -3.9245,-0.31871 -3.9245,0.45509 0,0.60235 -0.8064,1.82496 -1.7934,2.71828 -1.4828,1.34201 -2.7428,1.51457 -7.2545,0.9909 -5.8647,-0.68072 -12.2987,0.66575 -14.2152,2.97518 -2.3078,2.78091 0.4241,4.11427 14.0318,6.85318 7.6106,1.53184 14.0236,3.32072 14.9664,4.17405 4.242,3.83919 -0.1015,6.53913 -8.3751,5.20657 -4.2215,-0.6799 -5.3757,-0.62599 -5.0426,0.24221 0.2378,0.61942 1.5796,1.60136 2.9825,2.18245 2.6765,1.10872 6.7294,4.6349 9.6742,8.41418 0.9592,1.23086 2.3519,2.93811 3.0927,3.79482 1.1965,1.38405 1.1039,1.81812 -0.8221,3.89023 l -2.1678,2.3317 -4.6145,-2.72317 c -2.9469,0 -7.5226,-3.83432 -11.0761,-5.19432 -3.5536,-1.35999 -9.8507,-4.06184 -13.9927,-6.00174 l -7.5284,-3.52568 -0.064,-6.52532 c -0.033,-3.58905 -0.2545,-6.83896 -0.4918,-7.22264 -0.2371,-0.38367 -0.011,-4.82672 0.5163,-9.8724 0.8784,-8.51263 1.5956,-20.99597 1.6809,-29.27954 0.02,-1.95716 0.5035,-3.29157 1.3359,-3.91716 z m 99.0127,56.61888 c 0.2666,0.66632 0.2332,1.46225 -0.074,1.76896 -0.3066,0.30673 -0.5246,-0.2405 -0.4845,-1.21356 0.044,-1.07529 0.2633,-1.29174 0.5579,-0.5554 z"
       sodipodi:nodetypes="sscsscsscsssssscscssccsccssscssssccssssscsscssssscscssssssssscssssssscscsscsssscccccsscssssscsscscsccscscssssssssccscssssscsssssssscsssssssssssscssscsssssccsccscccssscsscsssscsccccccscssccssccssccssssscsssccsccssssssssssscsccccccccscccccccsscccssssscsssssssssscccssssssssssssscsscccscscssssssssssssscsccsscsccsscssssccssscssssssscccccssssssscssscscssscssccscssccssssssscssssssssscsssscscscsscssssssccssssccsssssssccsssssssssssssssscssccsssssssssssssssscscssssssssssssccsssssssssssssssssssssssscscssssscscscccsscsssssscsssssssscssssssssssssssssscssssssscssssssssssssssssscssccsssssssssssssccssscsssssssssssscssssscccscccscssscscccs" />
  </g>
</svg>
