<?xml version="1.0" encoding="UTF-8" standalone="no"?>
<svg
   viewBox="0 0 512 512"
   version="1.1"
   id="svg288"
   sodipodi:docname="librepay-white.svg"
   width="512"
   height="512"
   inkscape:version="1.2.1 (9c6d41e410, 2022-07-14)"
   xmlns:inkscape="http://www.inkscape.org/namespaces/inkscape"
   xmlns:sodipodi="http://sodipodi.sourceforge.net/DTD/sodipodi-0.dtd"
   xmlns="http://www.w3.org/2000/svg"
   xmlns:svg="http://www.w3.org/2000/svg">
  <defs
     id="defs292" />
  <sodipodi:namedview
     id="namedview290"
     pagecolor="#505050"
     bordercolor="#ffffff"
     borderopacity="1"
     inkscape:showpageshadow="0"
     inkscape:pageopacity="0"
     inkscape:pagecheckerboard="1"
     inkscape:deskcolor="#505050"
     showgrid="false"
     inkscape:zoom="1.0573147"
     inkscape:cx="281.84609"
     inkscape:cy="304.5451"
     inkscape:current-layer="svg288" />
  <path
     id="rect284"
     style="stroke-width:1;fill:#ffffff"
     d="M 8 0 C 3.5680044 0 0 3.5680044 0 8 L 0 504 C 0 508.432 3.5680044 512 8 512 L 504 512 C 508.432 512 512 508.432 512 504 L 512 8 C 512 3.5680044 508.432 0 504 0 L 8 0 z M 246.89062 85.232422 L 198.2832 286.66016 C 197.35008 290.85215 196.8261 294.70415 196.70898 298.19727 C 196.59186 301.69038 197.23179 304.78382 198.62891 307.46094 C 200.02602 310.13805 202.41576 312.30281 205.79688 313.92969 C 209.17799 315.55657 213.8989 316.61803 219.96289 317.08203 L 209.47266 360.0957 C 192.91779 360.0957 179.92046 357.93674 170.48047 353.62891 C 161.04048 349.32107 154.2835 343.42902 150.1875 335.95703 C 146.0915 328.48504 144.13288 320.00059 144.25 310.26172 C 144.36712 300.52285 145.70256 290.27121 148.27344 279.3125 L 192.68359 93.621094 L 246.89062 85.232422 z M 330.42578 168.49609 C 344.41489 168.49609 354.73569 170.47526 364.16992 174.4375 C 373.60415 178.39974 381.36441 183.82435 387.42969 190.69922 C 393.49496 197.57409 397.97341 205.62237 400.88477 214.82812 C 403.79612 224.03388 405.25781 233.88878 405.25781 244.38477 C 405.25781 261.39787 402.45902 276.96149 396.80078 291.06836 C 391.14255 305.17523 383.51269 317.35534 373.60742 327.61133 C 363.70215 337.86732 351.81047 345.85811 337.91992 351.5957 C 324.02938 357.3333 308.96926 360.13477 292.66016 360.13477 C 284.72992 360.13477 276.80402 359.42827 268.87891 358.02539 L 253.14062 421.33008 L 201.38672 421.33008 L 259.41406 179.33398 C 268.75805 176.53911 279.42458 174.03269 291.42969 171.81445 C 303.4348 169.59622 316.43668 168.49609 330.42578 168.49609 z M 323.77539 212.21289 C 316.30852 212.21289 309.31706 212.91221 302.78906 214.31445 L 278.31445 316.07422 C 282.27733 317.00734 287.17284 317.43945 293.00195 317.43945 C 302.08994 317.43945 310.36833 315.78727 317.83008 312.40039 C 325.29183 309.01351 331.64263 304.30423 336.89062 298.24023 C 342.13862 292.17624 346.2066 284.90188 349.125 276.38477 C 352.0434 267.86765 353.49414 258.49548 353.49414 248.23438 C 353.49414 237.97327 351.27524 229.70088 346.85156 222.70312 C 342.42789 215.70537 334.73026 212.21289 323.77539 212.21289 z " />
</svg>
