<?xml version="1.0" encoding="UTF-8" standalone="no"?>
<svg
   sodipodi:docname="penguin-hammer.svg"
   inkscape:version="1.1.2 (0a00cf5339, 2022-02-04, custom)"
   id="svg8"
   version="1.1"
   viewBox="0 0 999.99999 799.33355"
   height="799.33356"
   width="1000"
   xmlns:inkscape="http://www.inkscape.org/namespaces/inkscape"
   xmlns:sodipodi="http://sodipodi.sourceforge.net/DTD/sodipodi-0.dtd"
   xmlns="http://www.w3.org/2000/svg"
   xmlns:svg="http://www.w3.org/2000/svg"
   xmlns:rdf="http://www.w3.org/1999/02/22-rdf-syntax-ns#"
   xmlns:cc="http://creativecommons.org/ns#"
   xmlns:dc="http://purl.org/dc/elements/1.1/">
  <defs
     id="defs2" />
  <sodipodi:namedview
     inkscape:window-maximized="1"
     inkscape:window-y="575"
     inkscape:window-x="1121"
     inkscape:window-height="1048"
     inkscape:window-width="2519"
     showborder="true"
     units="px"
     showgrid="false"
     inkscape:document-rotation="0"
     inkscape:current-layer="layer1"
     inkscape:document-units="px"
     inkscape:cy="704.43769"
     inkscape:cx="568.89548"
     inkscape:zoom="0.52382206"
     inkscape:pageshadow="0"
     inkscape:pageopacity="0.0"
     borderopacity="1.0"
     bordercolor="#666666"
     pagecolor="#ffffff"
     id="base"
     inkscape:pagecheckerboard="1"
     inkscape:snap-nodes="true"
     showguides="true"
     inkscape:guide-bbox="true"
     inkscape:object-paths="true"
     inkscape:snap-intersection-paths="true"
     inkscape:snap-bbox="false"
     inkscape:bbox-paths="true"
     inkscape:bbox-nodes="true"
     fit-margin-top="0"
     fit-margin-left="0"
     fit-margin-right="0"
     fit-margin-bottom="0"
     inkscape:snap-to-guides="true">
    <inkscape:grid
       type="xygrid"
       id="grid56381"
       originx="0.0051515344"
       originy="79.435516" />
    <sodipodi:guide
       position="-1.9007348e-05,719.89827"
       orientation="0,1917.0126"
       id="guide5828" />
    <sodipodi:guide
       position="1917.0126,719.89827"
       orientation="1754.0009,0"
       id="guide5830" />
    <sodipodi:guide
       position="1917.0126,-1252.645"
       orientation="0,-1917.0126"
       id="guide5832" />
    <sodipodi:guide
       position="-1.9007348e-05,-1034.1025"
       orientation="-1754.0009,0"
       id="guide5834" />
    <sodipodi:guide
       position="335.82604,742.10429"
       orientation="0,-1"
       id="guide75551" />
    <sodipodi:guide
       position="841.21372,570.47742"
       orientation="0.99566106,0.093053984"
       id="guide21981" />
  </sodipodi:namedview>
  <metadata
     id="metadata5">
    <rdf:RDF>
      <cc:Work
         rdf:about="">
        <dc:format>image/svg+xml</dc:format>
        <dc:type
           rdf:resource="http://purl.org/dc/dcmitype/StillImage" />
      </cc:Work>
    </rdf:RDF>
  </metadata>
  <g
     id="layer1"
     inkscape:groupmode="layer"
     inkscape:label="Layer 1"
     transform="translate(369.75472,815.20452)">
    <g
       id="g21808"
       transform="matrix(-1.0544694,-0.203445,-0.203445,1.0544694,438.75316,40.110181)"
       style="stroke:#333333;stroke-opacity:1">
      <path
         id="rect20222"
         style="fill:#6c5353;stroke:#333333;stroke-width:10;stroke-linejoin:round;stroke-miterlimit:4;stroke-dasharray:none;stroke-opacity:1;paint-order:stroke fill markers"
         d="m 1047.1211,129.3418 c -10.8138,27.34863 -27.9441,50.52834 -83.75977,48.16992 l -6.34571,52.49414 c 80.41568,0.33014 157.13678,-6.02621 237.54848,-6.67733 l 36.7944,32.99384 9.7739,-96.14872 -36.8961,-30.83185 z"
         transform="translate(-369.75472,-774.38095)"
         sodipodi:nodetypes="cccccccc" />
      <path
         id="rect20697"
         style="fill:#483737;stroke:#333333;stroke-width:10;stroke-linejoin:round;stroke-miterlimit:4;stroke-dasharray:none;stroke-opacity:1;paint-order:stroke fill markers"
         d="m 587.25995,-544.37476 237.54968,-6.67734 36.79483,32.99287 -241.40974,-6.00175 z"
         sodipodi:nodetypes="ccccc" />
      <path
         style="fill:#6c5353;stroke:#333333;stroke-width:6;stroke-linecap:round;stroke-linejoin:round;stroke-miterlimit:4;stroke-dasharray:none;stroke-opacity:1;paint-order:stroke fill markers"
         d="m 834.48158,-645.03915 -8.79018,89.41518"
         id="path21439"
         sodipodi:nodetypes="cc" />
    </g>
    <path
       style="fill:#732626;fill-opacity:1;stroke:#333333;stroke-width:34.4379;stroke-linejoin:miter;stroke-miterlimit:4;stroke-dasharray:none;stroke-opacity:1;paint-order:stroke fill markers"
       d="m -45.634329,-214.16267 c 0,0 -230.474381,-132.46279 -252.317451,-108.05007 -28.81047,32.19981 85.83564,300.366902 133.27145,288.682428 h 98.871271 z"
       id="path28359"
       sodipodi:nodetypes="csccc" />
    <path
       style="fill:#732626;fill-opacity:1;stroke:#333333;stroke-width:34.4379;stroke-linejoin:round;stroke-miterlimit:4;stroke-dasharray:none;stroke-opacity:1;paint-order:stroke fill markers"
       d="m 5.7900812,-465.84906 c 0,0 10.7519898,-85.66666 29.5558898,-123.64454 27.23814,-55.01229 59.36549,-120.14664 116.495009,-142.64713 98.95762,-38.97447 234.95733,-25.5771 316.15786,43.0948 73.66411,62.29828 86.22444,172.91115 86.08948,276.27262 0.56029,112.81323 -13.63425,254.07439 -26.26816,379.242998 H -105.27145 C -42.824489,-190.59396 -15.852189,-335.49994 5.7900812,-465.84906 Z"
       id="path22125"
       sodipodi:nodetypes="caaacccc" />
    <path
       id="path23132"
       style="fill:#d3bc5f;fill-opacity:1;stroke:#333333;stroke-width:25.8285;stroke-linejoin:round;stroke-miterlimit:4;stroke-dasharray:none;stroke-opacity:1;paint-order:stroke fill markers"
       d="m 184.79515,-588.5882 c 22.31392,3.10588 45.48771,4.1165 66.78859,2.43454 a 60.073181,97.478123 12.674475 0 1 12.68495,93.69786 60.073181,97.478123 12.674475 0 1 -80.70385,79.80854 60.073181,97.478123 12.674475 0 1 -35.66403,-109.85022 60.073181,97.478123 12.674475 0 1 36.89434,-66.09072 z" />
    <path
       id="path23134"
       style="fill:#d3bc5f;fill-opacity:1;stroke:#333333;stroke-width:25.8285;stroke-linejoin:round;stroke-miterlimit:4;stroke-dasharray:none;stroke-opacity:1;paint-order:stroke fill markers"
       d="m 78.168891,-635.75658 c 4.05391,9.75979 15.48904,18.7328 31.383579,26.33271 a 36.536254,73.781722 14.429527 0 1 -2.7062,53.96845 36.536254,73.781722 14.429527 0 1 -53.902649,61.70585 36.536254,73.781722 14.429527 0 1 -16.5693,-81.05355 36.536254,73.781722 14.429527 0 1 41.79457,-60.95346 z" />
    <g
       id="g24064"
       transform="matrix(-0.36508644,-0.06295901,-0.06073749,0.37843977,431.9419,-413.70556)"
       style="stroke:#333333;stroke-width:1.14241;stroke-opacity:1">
      <path
         style="fill:#b49932;fill-opacity:1;stroke:#333333;stroke-width:68.5447;stroke-linejoin:round;stroke-miterlimit:4;stroke-dasharray:none;stroke-opacity:1;paint-order:stroke fill markers"
         d="m 1332.574,270.86532 c 0,0 -113.2206,119.12411 -221.4591,137.57341 -90.3853,15.40619 -205.53952,34.55716 -292.52174,-24.23448 -20.29624,-13.71831 -35.9488,-72.75175 -35.9488,-72.75175 l 279.40134,-86.02099 z"
         id="path20986"
         sodipodi:nodetypes="cssccc" />
      <path
         style="fill:#c8ab37;fill-opacity:1;stroke:#333333;stroke-width:68.5447;stroke-linejoin:round;stroke-miterlimit:4;stroke-dasharray:none;stroke-opacity:1;paint-order:stroke fill markers"
         d="m 780.85692,316.66786 c 23.65206,-3.90337 564.76908,48.16436 636.18258,-83.90369 0,0 -73.9077,-133.204356 -130.8874,-181.225128 C 1216.2136,-7.4030875 1091.9486,-51.912053 1001.1195,-49.774763 910.2902,-47.637461 843.53546,-2.5241848 802.41758,61.237589 756.10981,133.04737 780.85692,316.66786 780.85692,316.66786 Z"
         id="path20125"
         sodipodi:nodetypes="ccszsc" />
    </g>
    <ellipse
       style="fill:#333333;fill-opacity:1;stroke:none;stroke-width:1.29394;stroke-linejoin:round;stroke-miterlimit:4;stroke-dasharray:none;paint-order:stroke fill markers"
       id="path24212"
       cx="63.641754"
       cy="-555.09149"
       transform="matrix(-0.95256964,-0.30432069,-0.21926584,0.97566515,0,0)"
       ry="28.965363"
       rx="18.459044" />
    <ellipse
       style="fill:#333333;fill-opacity:1;stroke:none;stroke-width:1.30027;stroke-linejoin:round;stroke-miterlimit:4;stroke-dasharray:none;paint-order:stroke fill markers"
       id="ellipse24316"
       cx="-91.238419"
       cy="-545.95422"
       transform="matrix(-0.93739712,-0.34826231,-0.18974059,0.98183426,0,0)"
       ry="39.732407"
       rx="22.265764" />
    <path
       style="fill:#d3bc5f;fill-opacity:1;stroke:#333333;stroke-width:25.8285;stroke-linejoin:round;stroke-miterlimit:4;stroke-dasharray:none;stroke-opacity:1;paint-order:stroke fill markers"
       d="m -93.081359,-31.843478 c 0,0 35.27103,-139.455032 90.5118102,-169.197232 49.2680098,-26.52638 119.1786588,-13.22154 165.6528088,18.25066 46.81842,31.70532 83.1688,150.946572 83.1688,150.946572 z"
       id="path24827"
       sodipodi:nodetypes="caacc" />
    <path
       style="fill:#732626;fill-opacity:1;stroke:#333333;stroke-width:34.4379;stroke-linejoin:miter;stroke-miterlimit:4;stroke-dasharray:none;stroke-opacity:1;paint-order:stroke fill markers"
       d="m 605.1306,-33.532031 c 0,0 -63.785,-148.807969 -97.29536,-159.360309 -33.51036,-10.55234 -109.18566,159.362116 -109.18566,159.362116 z"
       id="path36820"
       sodipodi:nodetypes="cscc" />
    <path
       id="rect5938"
       style="fill:#784421;fill-opacity:1;stroke:#333333;stroke-width:8.59132;stroke-miterlimit:4;stroke-dasharray:none;stroke-opacity:1;paint-order:normal"
       d="m -193.9791,-666.74557 c -22.71028,-16.56889 -52.47833,-15.26169 -68.27079,-5.98037 0,0 -16.7508,171.15801 -23.64883,256.86448 -10.54973,131.07729 -27.47117,287.50119 -27.47117,287.50119 21.41188,37.686112 51.19515,28.783047 69.79831,13.11775 0,0 8.84072,-74.48818 15.39321,-161.09045 9.85597,-130.26355 34.19927,-390.4126 34.19927,-390.4126 z"
       sodipodi:nodetypes="ccsccsc" />
    <path
       style="fill:#732626;fill-opacity:1;stroke:#333333;stroke-width:34.4379;stroke-linejoin:miter;stroke-miterlimit:4;stroke-dasharray:none;stroke-opacity:1;paint-order:stroke fill markers"
       d="m -323.65978,-253.87367 c 20.6526,22.95235 108.76683,29.78493 114.96377,17.26394 8.17358,-16.51489 -68.42749,-115.28956 -86.48197,-105.25378 -57.76214,7.00763 -36.33203,79.26546 -28.4818,87.98984 z"
       id="path74516"
       sodipodi:nodetypes="sscs" />
  </g>
</svg>
