<?xml version="1.0" encoding="UTF-8" standalone="no"?>
<svg
   sodipodi:docname="tux-soviet.svg"
   inkscape:version="1.1.2 (0a00cf5339, 2022-02-04)"
   id="svg8"
   version="1.1"
   viewBox="0 0 1922.6624 703.49309"
   height="703.4931"
   width="1922.6624"
   xmlns:inkscape="http://www.inkscape.org/namespaces/inkscape"
   xmlns:sodipodi="http://sodipodi.sourceforge.net/DTD/sodipodi-0.dtd"
   xmlns="http://www.w3.org/2000/svg"
   xmlns:svg="http://www.w3.org/2000/svg"
   xmlns:rdf="http://www.w3.org/1999/02/22-rdf-syntax-ns#"
   xmlns:cc="http://creativecommons.org/ns#"
   xmlns:dc="http://purl.org/dc/elements/1.1/">
  <defs
     id="defs2" />
  <sodipodi:namedview
     inkscape:window-maximized="1"
     inkscape:window-y="560"
     inkscape:window-x="1120"
     inkscape:window-height="1052"
     inkscape:window-width="2520"
     showborder="true"
     units="px"
     showgrid="false"
     inkscape:document-rotation="0"
     inkscape:current-layer="layer1"
     inkscape:document-units="px"
     inkscape:cy="659.93749"
     inkscape:cx="331.02537"
     inkscape:zoom="3.312435"
     inkscape:pageshadow="0"
     inkscape:pageopacity="0.0"
     borderopacity="1.0"
     bordercolor="#666666"
     pagecolor="#ffffff"
     id="base"
     inkscape:pagecheckerboard="1"
     inkscape:snap-nodes="true"
     showguides="true"
     inkscape:guide-bbox="true"
     inkscape:object-paths="true"
     inkscape:snap-intersection-paths="true"
     inkscape:snap-bbox="false"
     inkscape:bbox-paths="true"
     inkscape:bbox-nodes="true"
     fit-margin-top="0"
     fit-margin-left="0"
     fit-margin-right="0"
     fit-margin-bottom="0">
    <inkscape:grid
       type="xygrid"
       id="grid56381"
       originx="0.0051543767"
       originy="38.611952" />
    <sodipodi:guide
       position="-1.6164843e-05,664.88139"
       orientation="0,1917.0126"
       id="guide5828" />
    <sodipodi:guide
       position="1917.0126,664.88139"
       orientation="1754.0009,0"
       id="guide5830" />
    <sodipodi:guide
       position="1917.0126,-1114.9513"
       orientation="0,-1917.0126"
       id="guide5832" />
    <sodipodi:guide
       position="-1.6164843e-05,-1089.1194"
       orientation="-1754.0009,0"
       id="guide5834" />
    <sodipodi:guide
       position="335.82604,687.08741"
       orientation="0,-1"
       id="guide75551" />
  </sodipodi:namedview>
  <metadata
     id="metadata5">
    <rdf:RDF>
      <cc:Work
         rdf:about="">
        <dc:format>image/svg+xml</dc:format>
        <dc:type
           rdf:resource="http://purl.org/dc/dcmitype/StillImage" />
      </cc:Work>
    </rdf:RDF>
  </metadata>
  <g
     id="layer1"
     inkscape:groupmode="layer"
     inkscape:label="Layer 1"
     transform="translate(369.75472,774.38095)">
    <path
       style="fill:#732626;fill-opacity:1;stroke:#333333;stroke-width:32.0676;stroke-linejoin:miter;stroke-miterlimit:4;stroke-dasharray:none;stroke-opacity:1;paint-order:stroke fill markers"
       d="m 260.53637,-255.53147 c 0,0 214.61118,-123.34558 234.95083,-100.61314 26.82749,29.98354 -79.92771,279.693101 -124.09858,268.812856 h -92.06611 z"
       id="path28359"
       sodipodi:nodetypes="csccc" />
    <path
       style="fill:#732626;fill-opacity:1;stroke:#333333;stroke-width:32.0676;stroke-linejoin:round;stroke-miterlimit:4;stroke-dasharray:none;stroke-opacity:1;paint-order:stroke fill markers"
       d="m 212.65143,-489.89467 c 0,0 -10.01195,-79.77035 -27.5216,-115.13427 -25.36339,-51.22588 -55.27946,-111.87714 -108.476845,-132.82895 -92.146513,-36.29192 -218.785575,-23.81666 -294.397195,40.12865 -68.59393,58.01039 -80.28975,161.00994 -80.16408,257.2572 -0.52172,105.04847 12.69583,236.58684 24.46017,353.140286 H 316.06876 C 257.91993,-233.58495 232.80409,-368.51728 212.65143,-489.89467 Z"
       id="path22125"
       sodipodi:nodetypes="caaacccc" />
    <path
       id="path23132"
       style="fill:#d3bc5f;fill-opacity:1;stroke:#333333;stroke-width:24.0507;stroke-linejoin:round;stroke-miterlimit:4;stroke-dasharray:none;stroke-opacity:1;paint-order:stroke fill markers"
       d="m 45.966997,-604.18586 c -20.778077,2.8921 -42.3568585,3.83317 -62.191627,2.26697 a 90.768855,55.938436 77.325525 0 0 -11.811869,87.24878 90.768855,55.938436 77.325525 0 0 75.149132,74.31544 90.768855,55.938436 77.325525 0 0 33.209325,-102.2894 90.768855,55.938436 77.325525 0 0 -34.354961,-61.54179 z" />
    <path
       id="path23134"
       style="fill:#d3bc5f;fill-opacity:1;stroke:#333333;stroke-width:24.0507;stroke-linejoin:round;stroke-miterlimit:4;stroke-dasharray:none;stroke-opacity:1;paint-order:stroke fill markers"
       d="m 145.25434,-648.10771 c -3.77489,9.08804 -14.42295,17.44345 -29.22349,24.52027 a 68.703439,34.02152 75.570473 0 0 2.51993,50.25388 68.703439,34.02152 75.570473 0 0 50.19261,57.45873 68.703439,34.02152 75.570473 0 0 15.42886,-75.47475 68.703439,34.02152 75.570473 0 0 -38.91791,-56.75813 z" />
    <g
       id="g24064"
       transform="matrix(0.3399581,-0.05862564,0.05655702,0.35239234,-184.16902,-441.34013)"
       style="stroke:#333333;stroke-width:1.14241;stroke-opacity:1">
      <path
         style="fill:#b49932;fill-opacity:1;stroke:#333333;stroke-width:68.5447;stroke-linejoin:round;stroke-miterlimit:4;stroke-dasharray:none;stroke-opacity:1;paint-order:stroke fill markers"
         d="m 1332.574,270.86532 c 0,0 -113.2206,119.12411 -221.4591,137.57341 -90.3853,15.40619 -205.53952,34.55716 -292.52174,-24.23448 -20.29624,-13.71831 -35.9488,-72.75175 -35.9488,-72.75175 l 279.40134,-86.02099 z"
         id="path20986"
         sodipodi:nodetypes="cssccc" />
      <path
         style="fill:#c8ab37;fill-opacity:1;stroke:#333333;stroke-width:68.5447;stroke-linejoin:round;stroke-miterlimit:4;stroke-dasharray:none;stroke-opacity:1;paint-order:stroke fill markers"
         d="m 780.85692,316.66786 c 23.65206,-3.90337 564.76908,48.16436 636.18258,-83.90369 0,0 -73.9077,-133.204356 -130.8874,-181.225128 C 1216.2136,-7.4030875 1091.9486,-51.912053 1001.1195,-49.774763 910.2902,-47.637461 843.53546,-2.5241848 802.41758,61.237589 756.10981,133.04737 780.85692,316.66786 780.85692,316.66786 Z"
         id="path20125"
         sodipodi:nodetypes="ccszsc" />
    </g>
    <ellipse
       style="fill:#333333;fill-opacity:1;stroke:none;stroke-width:1.20488;stroke-linejoin:round;stroke-miterlimit:4;stroke-dasharray:none;paint-order:stroke fill markers"
       id="path24212"
       cx="285.17862"
       cy="-503.9281"
       transform="matrix(0.95256964,-0.30432069,0.21926584,0.97566515,0,0)"
       ry="26.97172"
       rx="17.188536" />
    <ellipse
       style="fill:#333333;fill-opacity:1;stroke:none;stroke-width:1.21077;stroke-linejoin:round;stroke-miterlimit:4;stroke-dasharray:none;paint-order:stroke fill markers"
       id="ellipse24316"
       cx="142.85699"
       cy="-484.71692"
       transform="matrix(0.93739712,-0.34826231,0.18974059,0.98183426,0,0)"
       ry="36.997688"
       rx="20.733246" />
    <path
       style="fill:#d3bc5f;fill-opacity:1;stroke:#333333;stroke-width:24.0507;stroke-linejoin:round;stroke-miterlimit:4;stroke-dasharray:none;stroke-opacity:1;paint-order:stroke fill markers"
       d="m 304.7177,-85.761029 c 0,0 -32.84338,-129.856551 -84.28202,-157.551641 -45.87697,-24.70061 -110.97578,-12.31152 -154.251187,16.99449 -43.595973,29.5231 -77.444417,140.557151 -77.444417,140.557151 z"
       id="path24827"
       sodipodi:nodetypes="caacc" />
    <path
       style="fill:#732626;fill-opacity:1;stroke:#333333;stroke-width:32.0676;stroke-linejoin:miter;stroke-miterlimit:4;stroke-dasharray:none;stroke-opacity:1;paint-order:stroke fill markers"
       d="m -345.4374,-87.333354 c 0,0 59.39477,-138.565746 90.59866,-148.391786 31.2039,-9.82604 101.67058,148.393466 101.67058,148.393466 z"
       id="path36820"
       sodipodi:nodetypes="cscc" />
    <path
       id="rect5938"
       style="fill:#333333;fill-opacity:1;stroke-width:32.0676;paint-order:stroke fill markers"
       d="m 398.6708,-676.96378 c 14.44256,-23.45434 33.26661,-32.88514 63.57182,-5.56875 0,0 15.59787,159.37747 22.02111,239.18489 9.82361,122.05544 27.82304,372.049693 27.82304,372.049693 l -66.13579,-3e-6 c 0,0 -9.3333,-161.48316 -15.43479,-242.12473 -9.1776,-121.29771 -31.84539,-363.5411 -31.84539,-363.5411 z"
       sodipodi:nodetypes="ccsccsc" />
    <path
       id="rect6042"
       style="fill:#782121;fill-opacity:1;stroke:#333333;stroke-width:32.0676;stroke-miterlimit:4;stroke-dasharray:none;stroke-opacity:1;paint-order:stroke fill markers"
       d="m 489.6353,-618.07724 c 0,0 95.46103,-86.25887 214.80073,-75.30941 129.51581,11.88311 231.92827,154.22181 361.74217,146.22773 115.6755,-7.12342 120.4955,-75.62254 221.1169,-124.24674 124.7674,-60.29246 211.2802,-82.5696 211.2802,-82.5696 32.771,230.35803 41.517,367.55931 37.3106,454.5387 0,0 -77.2566,51.12803 -186.7621,123.3713 -90.3977,59.63744 -137.3512,81.717924 -245.635,83.445042 -130.04327,2.074182 -232.22636,-134.344612 -361.74216,-146.227732 -119.33971,-10.94946 -214.80074,75.30941 -214.80074,75.30941 10.93021,-154.71601 1.79442,-306.68142 -37.3106,-454.5387 z"
       sodipodi:nodetypes="csssccssscc" />
    <g
       aria-label="☭"
       transform="matrix(0.40084531,0.0423251,-0.08213619,0.39217258,-217.88746,-455.71312)"
       id="text20618"
       style="font-weight:bold;font-size:538.868px;line-height:1.15;font-family:Wingdings;-inkscape-font-specification:'Wingdings Bold';font-variant-ligatures:none;letter-spacing:28.066px;fill:#c8ab37;fill-opacity:1;stroke:#333333;stroke-width:15;stroke-miterlimit:4;stroke-dasharray:none;stroke-opacity:1">
      <path
         d="m 2222.5529,-715.57305 q 57.9869,15.70888 96.8978,76.38895 26.6746,48.34554 12.7676,101.61447 -13.0015,49.80027 -52.5116,75.70623 l 37.8929,49.5276 -42.7273,23.1774 -0.7342,-0.19867 -34.2677,-54.38181 q -47.4858,16.31732 -100.5792,1.93411 -41.5941,-11.268 -70.8898,-42.54945 l -0.1939,0.74332 -93.5628,97.48069 -0.7342,-0.19867 q -40.7923,-48.45608 -41.3181,-50.45551 7.9784,-4.47076 118.7806,-82.69054 7.748,-5.59431 9.4607,-5.13033 22.1496,28.54969 60.8075,39.02227 46.7321,12.65991 90.4044,-3.0988 l -40.2861,-63.4402 -33.863,21.33422 -1.4681,-0.3977 q -38.25,-41.13521 -39.6759,-44.7049 l 73.6966,-48.47899 q 68.3362,22.22654 68.0128,23.46536 l -41.1132,31.04268 q 44.9544,58.60331 51.1444,63.99419 l 0.126,-0.49642 q 21.9698,-17.92398 29.9905,-48.64655 l 2.3286,-8.91945 q 16.4297,-62.93168 -38.4495,-104.59251 -29.0568,-26.1763 -58.1724,-34.06385 l -9.0528,-2.45244 q -23.9778,-6.49566 -56.8958,-0.82257 50.8437,-24.16209 104.1818,-9.71258 z"
         id="path33808"
         style="fill:#c8ab37;fill-opacity:1;stroke:#333333;stroke-width:15;stroke-miterlimit:4;stroke-dasharray:none;stroke-opacity:1" />
    </g>
    <path
       style="fill:#732626;fill-opacity:1;stroke:#333333;stroke-width:32.0676;stroke-linejoin:miter;stroke-miterlimit:4;stroke-dasharray:none;stroke-opacity:1;paint-order:stroke fill markers"
       d="m 519.42576,-292.50922 c -19.23111,21.37258 -101.28058,27.73488 -107.05099,16.07569 -7.61101,-15.37819 63.71773,-107.35436 80.52954,-98.00933 53.78647,6.52531 33.83135,73.80974 26.52145,81.93364 z"
       id="path74516"
       sodipodi:nodetypes="sscs" />
  </g>
</svg>
