<?xml version="1.0" encoding="UTF-8" standalone="no"?>
<svg
   sodipodi:docname="tux-soviet.svg"
   inkscape:version="1.1.2 (0a00cf5339, 2022-02-04)"
   id="svg8"
   version="1.1"
   viewBox="0 0 1917.0126 1754.0008"
   height="1754.0009"
   width="1917.0126"
   xmlns:inkscape="http://www.inkscape.org/namespaces/inkscape"
   xmlns:sodipodi="http://sodipodi.sourceforge.net/DTD/sodipodi-0.dtd"
   xmlns="http://www.w3.org/2000/svg"
   xmlns:svg="http://www.w3.org/2000/svg"
   xmlns:rdf="http://www.w3.org/1999/02/22-rdf-syntax-ns#"
   xmlns:cc="http://creativecommons.org/ns#"
   xmlns:dc="http://purl.org/dc/elements/1.1/">
  <defs
     id="defs2" />
  <sodipodi:namedview
     inkscape:window-maximized="1"
     inkscape:window-y="547"
     inkscape:window-x="1121"
     inkscape:window-height="1044"
     inkscape:window-width="2519"
     showborder="false"
     units="px"
     showgrid="false"
     inkscape:document-rotation="0"
     inkscape:current-layer="layer1"
     inkscape:document-units="px"
     inkscape:cy="1673.0844"
     inkscape:cx="655.87208"
     inkscape:zoom="2.0880596"
     inkscape:pageshadow="0"
     inkscape:pageopacity="0.0"
     borderopacity="1.0"
     bordercolor="#666666"
     pagecolor="#ffffff"
     id="base"
     inkscape:pagecheckerboard="1"
     inkscape:snap-nodes="true"
     showguides="true"
     inkscape:guide-bbox="true"
     inkscape:object-paths="true"
     inkscape:snap-intersection-paths="true"
     inkscape:snap-bbox="false"
     inkscape:bbox-paths="true"
     inkscape:bbox-nodes="true"
     fit-margin-top="0"
     fit-margin-left="0"
     fit-margin-right="0"
     fit-margin-bottom="0">
    <sodipodi:guide
       position="-48.683709,39.773734"
       orientation="0,-1"
       id="guide32818" />
    <inkscape:grid
       type="xygrid"
       id="grid56381"
       originx="0.0052428764"
       originy="0.00032939" />
  </sodipodi:namedview>
  <metadata
     id="metadata5">
    <rdf:RDF>
      <cc:Work
         rdf:about="">
        <dc:format>image/svg+xml</dc:format>
        <dc:type
           rdf:resource="http://purl.org/dc/dcmitype/StillImage" />
      </cc:Work>
    </rdf:RDF>
  </metadata>
  <g
     id="layer1"
     inkscape:groupmode="layer"
     inkscape:label="Layer 1"
     transform="translate(369.75474,735.76931)">
    <path
       style="fill:#782121;fill-opacity:1;stroke:#333333;stroke-width:80;stroke-linejoin:miter;stroke-miterlimit:4;stroke-dasharray:none;stroke-opacity:1;paint-order:stroke fill markers"
       d="m 1202.6501,558.61902 c 0,0 117.6131,128.60036 153.4357,195.73937 35.8226,67.13901 123.1105,223.87316 123.1105,223.87316 h -229.6799 z"
       id="path28359"
       sodipodi:nodetypes="csccc" />
    <path
       style="fill:#782121;fill-opacity:1;stroke:#333333;stroke-width:80;stroke-linejoin:round;stroke-miterlimit:4;stroke-dasharray:none;paint-order:stroke fill markers;stroke-opacity:1"
       d="m 1083.1902,-26.053405 c 0,0 -24.9771,-199.005335 -68.6589,-287.228695 C 951.25655,-441.07672 876.62409,-592.38513 743.91108,-644.65419 514.0306,-735.19266 198.10058,-704.07026 9.4701684,-544.54412 -161.65302,-399.82397 -190.83091,-142.86811 -190.51739,97.242613 c -1.30157,262.067347 31.67264,590.219807 61.02147,880.988937 H 1341.1883 C 1196.1228,613.36961 1133.4656,276.75015 1083.1902,-26.053405 Z"
       id="path22125"
       sodipodi:nodetypes="caaacccc" />
    <path
       id="path23132"
       style="fill:#d3bc5f;fill-opacity:1;stroke:#333333;stroke-width:60;stroke-linejoin:round;stroke-miterlimit:4;stroke-dasharray:none;stroke-opacity:1;paint-order:stroke fill markers"
       d="m 667.35789,-311.17883 c -51.83565,7.21501 -105.66884,9.5627 -155.15119,5.65548 A 226.4436,139.55118 77.325525 0 0 482.7393,-87.861382 226.4436,139.55118 77.325525 0 0 670.21594,97.53542 226.4436,139.55118 77.325525 0 0 753.06417,-157.64882 226.4436,139.55118 77.325525 0 0 667.35789,-311.17883 Z" />
    <path
       id="path23134"
       style="fill:#d3bc5f;fill-opacity:1;stroke:#333333;stroke-width:60;stroke-linejoin:round;stroke-miterlimit:4;stroke-dasharray:none;stroke-opacity:1;paint-order:stroke fill markers"
       d="m 915.05279,-420.75191 c -9.41732,22.67219 -35.98134,43.51666 -72.90464,61.17141 a 171.39639,84.874437 75.570473 0 0 6.28653,125.36977 171.39639,84.874437 75.570473 0 0 125.2169,143.343895 171.39639,84.874437 75.570473 0 0 38.49082,-188.288985 171.39639,84.874437 75.570473 0 0 -97.08961,-141.59609 z" />
    <g
       id="g24064"
       transform="matrix(0.84810297,-0.14625503,0.14109439,0.87912302,93.231132,95.076948)"
       style="stroke-width:1.14241;stroke:#333333;stroke-opacity:1">
      <path
         style="fill:#b49932;fill-opacity:1;stroke:#333333;stroke-width:68.5447;stroke-linejoin:round;stroke-miterlimit:4;stroke-dasharray:none;paint-order:stroke fill markers;stroke-opacity:1"
         d="m 1332.574,270.86532 c 0,0 -113.2206,119.12411 -221.4591,137.57341 -90.3853,15.40619 -205.53952,34.55716 -292.52174,-24.23448 -20.29624,-13.71831 -35.9488,-72.75175 -35.9488,-72.75175 l 279.40134,-86.02099 z"
         id="path20986"
         sodipodi:nodetypes="cssccc" />
      <path
         style="fill:#c8ab37;fill-opacity:1;stroke:#333333;stroke-width:68.5447;stroke-linejoin:round;stroke-miterlimit:4;stroke-dasharray:none;paint-order:stroke fill markers;stroke-opacity:1"
         d="m 780.85692,316.66786 c 23.65206,-3.90337 564.76908,48.16436 636.18258,-83.90369 0,0 -73.9077,-133.204356 -130.8874,-181.225128 C 1216.2136,-7.4030875 1091.9486,-51.912053 1001.1195,-49.774763 910.2902,-47.637461 843.53546,-2.5241848 802.41758,61.237589 756.10981,133.04737 780.85692,316.66786 780.85692,316.66786 Z"
         id="path20125"
         sodipodi:nodetypes="ccszsc" />
    </g>
    <ellipse
       style="fill:#333333;fill-opacity:1;stroke:none;stroke-width:3.00584;stroke-linejoin:round;stroke-miterlimit:4;stroke-dasharray:none;paint-order:stroke fill markers"
       id="path24212"
       cx="989.49225"
       cy="55.496479"
       rx="42.880722"
       ry="67.287102"
       transform="matrix(0.95256964,-0.30432069,0.21926584,0.97566515,0,0)" />
    <ellipse
       style="fill:#333333;fill-opacity:1;stroke:none;stroke-width:3.02054;stroke-linejoin:round;stroke-miterlimit:4;stroke-dasharray:none;paint-order:stroke fill markers"
       id="ellipse24316"
       cx="676.42041"
       cy="122.51064"
       rx="51.723808"
       ry="92.299164"
       transform="matrix(0.93739712,-0.34826231,0.18974059,0.98183426,0,0)" />
    <path
       style="fill:#d3bc5f;fill-opacity:1;stroke:#333333;stroke-width:60;stroke-linejoin:round;stroke-miterlimit:4;stroke-dasharray:none;stroke-opacity:1;paint-order:stroke fill markers"
       d="m 1312.8705,982.15008 c 0,0 -81.9353,-323.95677 -210.2607,-393.04847 C 988.15924,527.4803 825.75541,558.38771 717.79504,631.49823 609.03495,705.15032 524.59229,982.15008 524.59229,982.15008 Z"
       id="path24827"
       sodipodi:nodetypes="caacc" />
    <path
       style="fill:#782121;fill-opacity:1;stroke:#333333;stroke-width:80;stroke-linejoin:miter;stroke-miterlimit:4;stroke-dasharray:none;stroke-opacity:1;paint-order:stroke fill markers"
       d="m 170.56984,978.23155 -479.65943,-0.004 c 0,0 148.17378,-345.68383 226.019005,-370.19714 77.8452397,-24.51329 253.640425,370.20153 253.640425,370.20153 z"
       id="path36820"
       sodipodi:nodetypes="ccscc" />
  </g>
</svg>
